<svg width="100%" height="100%" viewBox="0 0 432 546" version="1.1" xmlns="http://www.w3.org/2000/svg" xmlns:xlink="http://www.w3.org/1999/xlink" xml:space="preserve" style="fill-rule:evenodd;clip-rule:evenodd;stroke-linejoin:round;stroke-miterlimit:1.41421;">
	<g id="logo">
		
		<path id="left"  style="fill:rgba(255,255,255,1);" d="M206.857,491.12c-18.36,-9.8 -27.817,-20.28 -37.617,-39.8l-64.84,28.92l0,10.88c0,10.92 0,10.92 -10.92,10.92c0,0 -10.92,0.84 -10.92,-5.48l0,-87.16c0,-32.68 10.92,-32.68 10.92,-32.68c10.92,0 10.92,21.8 10.92,32.68l65.52,-81.72l0,-185.24c0,-5.48 5.179,-43.6 37.937,-109l0,-32.68l-178.857,0c-21.44,2.56 -28.36,16.36 -28.36,38.12l0,174.36c27.32,5.48 52.2,32.96 52.2,65.2c0,32.24 -24.88,60.12 -52.2,65.56l0,163.48c0,21.8 6.92,35.6 28.36,38.12l178.857,0l0,-54.48l-1,0Z"/>
		<path id="right" style="fill:rgba(255,255,255,1);" d="M225.847,491.12c18.36,-9.8 27.817,-20.28 37.617,-39.8l64.84,28.92l0,10.88c0,10.92 0,10.92 10.92,10.92c0,0 10.92,0.84 10.92,-5.48l0,-87.16c0,-32.68 -10.92,-32.68 -10.92,-32.68c-10.92,0 -10.92,21.8 -10.92,32.68l-65.52,-81.72l0,-185.24c0,-5.48 -5.179,-43.6 -37.937,-109l0,-32.68l178.857,0c21.44,2.56 28.36,16.36 28.36,38.12l0,174.36c-27.32,5.48 -52.2,32.96 -52.2,65.2c0,32.24 24.88,60.12 52.2,65.56l0,163.48c0,21.8 -6.92,35.6 -28.36,38.12l-178.857,0l0,-54.48l1,0Z"/>
		<path id="rocket" style="fill:rgba(255,255,255,0);" d="M224.847,0.76l0,32.68c32.758,65.4 37.937,103.52 37.937,109l0,185.24l65.52,81.72c0,-10.88 0,-32.68 10.92,-32.68c0,0 10.92,0 10.92,32.68l0,87.16c0,6.32 -10.92,5.48 -10.92,5.48c-10.92,0 -10.92,0 -10.92,-10.92l0,-10.88l-64.84,-28.92c-9.8,19.52 -19.257,30 -37.617,39.8l-1,0l0,54.48l-16.99,0l0,-54.48l-1,0c-18.36,-9.8 -27.817,-20.28 -37.617,-39.8l-64.84,28.92l0,10.88c0,10.92 0,10.92 -10.92,10.92c0,0 -10.92,0.84 -10.92,-5.48l0,-87.16c0,-32.68 10.92,-32.68 10.92,-32.68c10.92,0 10.92,21.8 10.92,32.68l65.52,-81.72l0,-185.24c0,-5.48 5.179,-43.6 37.937,-109l0,-32.68l16.99,0Z"/>
	</g>
</svg>