<?xml version="1.0" encoding="UTF-8"?>
<svg width="256px" height="256px" viewBox="0 0 256 256" version="1.1" xmlns="http://www.w3.org/2000/svg" xmlns:xlink="http://www.w3.org/1999/xlink">
    <!-- Generator: Sketch 43.2 (39069) - http://www.bohemiancoding.com/sketch -->
    <title>all-platforms</title>
    <desc>Created with Sketch.</desc>
    <defs></defs>
    <g id="Page-1" stroke="none" stroke-width="1" fill="none" fill-rule="evenodd">
        <g id="all-platforms" fill-rule="nonzero">
            <g transform="translate(0.000000, 28.000000)" id="Group">
                <g transform="translate(0.000000, 0.346838)">
                    <g transform="translate(4.701867, 0.000000)" id="Shape">
                        <path d="M5.39146138,0.201304633 C2.56882348,0.201304633 0.257648838,2.72612759 0.257648838,5.81250752 L0.257648838,131.12355 C0.257648838,134.210803 2.56882348,136.73388 5.39146138,136.73388 L89.6374537,136.73388 C96.6726938,140.285787 99.2214468,149.99788 96.6726938,162.934049 L76.9947206,167.300743 C76.6902403,167.450958 76.5559811,167.747893 76.5591779,168.043081 L76.5591779,170.379264 C76.56637,170.780126 76.8332898,171.174875 77.2912093,171.174875 L145.715406,171.174875 C146.174923,171.174875 146.441842,170.778379 146.445838,170.37577 L146.448236,168.049195 C146.453829,167.754879 146.318771,167.452705 146.011893,167.300743 L137.134809,162.934049 C135.312721,149.472401 133.369161,136.73388 133.369161,136.73388 L217.614353,136.73388 C220.43779,136.73388 222.748966,134.210803 222.748966,131.12355 L222.748966,5.81250752 C222.748966,2.72612759 220.43779,0.201304633 217.614353,0.201304633 L5.39146138,0.201304633 Z" fill="#DBDBDB"></path>
                        <polygon fill="#FFFFFF" points="10.5258667 129.157516 212.478293 129.157516 212.478293 10.1656759 10.5258667 10.1656759"></polygon>
                    </g>
                    <g transform="translate(107.040427, 112.500772)" id="Shape">
                        <path d="M135.599396,76.7275658 C135.685705,76.3952967 135.746441,76.0533728 135.746441,75.6953591 L135.746441,4.36450514 C135.746441,2.09091577 133.897981,0.230047983 131.638752,0.230047983 L16.970285,0.230047983 C14.711056,0.230047983 12.8625953,2.09091577 12.8625953,4.36450514 L12.8625953,75.6953591 C12.8625953,76.0533728 12.9225324,76.3952967 13.0096412,76.7275658 L0.629833,76.7275658 L0.629833,78.4516644 L0.629833,81.2071642 C0.629833,81.2449769 3.25108216,84.6537525 9.66595055,84.6537525 L139.052571,84.6537525 C144.602746,84.6537525 147.404606,81.8427396 147.893693,81.3020989 C147.949102,81.2661633 147.977606,80.3160184 147.979203,78.4516644 L147.979203,76.7275658 L135.599396,76.7275658 Z" fill="#525252"></path>
                        <path d="M57.4131827,76.728364 L57.4131827,77.4178422 C57.4131827,78.3655736 58.1835741,79.1403319 59.1249863,79.1403319 L89.484327,79.1403319 C90.4265388,79.1403319 91.1961306,78.3655736 91.1961306,77.4178422 L91.1961306,76.728364 L57.4131827,76.728364 Z" fill="#FFFFFF"></path>
                        <polygon fill="#FFFFFF" points="19.3655467 71.9053906 129.242453 71.9053906 129.242453 6.77654917 19.3655467 6.77654917"></polygon>
                    </g>
                    <g transform="translate(0.126293, 99.694185)" id="Shape">
                        <path d="M54.3997927,0.132251413 C56.2626378,0.132251413 57.789036,1.66728657 57.789036,3.54344028 L57.789036,78.9403665 C57.789036,80.8149113 56.2626378,82.3515556 54.3997927,82.3515556 L3.62108012,82.3515556 C1.75663672,82.3515556 0.23183687,80.8149113 0.23183687,78.9403665 L0.23183687,3.54344028 C0.23183687,1.66728657 1.75663672,0.132251413 3.62108012,0.132251413 L54.3997927,0.132251413 Z" fill="#525252"></path>
                        <polygon fill="#FFFFFF" points="4.27178667 75.5280151 53.7489067 75.5280151 53.7489067 6.95550733 4.27178667 6.95550733"></polygon>
                        <path d="M30.514081,78.7149324 C30.514081,79.5524432 29.8411871,80.2330724 29.0100593,80.2330724 C28.1789315,80.2330724 27.5044393,79.5524432 27.5044393,78.7149324 C27.5044393,77.8790305 28.1789315,77.2016198 29.0100593,77.2016198 C29.8411871,77.2016198 30.514081,77.8790305 30.514081,78.7149324" fill="#FFFFFF"></path>
                    </g>
                    <g transform="translate(43.433813, 141.365020)" id="Shape">
                        <path d="M3.82626171,56.7947335 C1.87624563,56.7947335 0.291470657,55.1982822 0.291470657,53.2341387 L0.291470657,4.29672546 C0.291470657,2.33569702 1.87624563,0.741323001 3.82626171,0.741323001 L23.7133305,0.741323001 C25.6623148,0.741323001 27.2491532,2.33569702 27.2491532,4.29672546 L27.2491532,53.2341387 C27.2491532,55.1982822 25.6623148,56.7947335 23.7133305,56.7947335 L3.82626171,56.7947335 Z" fill="#525252"></path>
                        <polygon fill="#FFFFFF" points="2.07701333 50.0733466 25.4651733 50.0733466 25.4651733 7.45914674 2.07701333 7.45914674"></polygon>
                        <path d="M15.7209636,53.2788608 C15.7209636,54.3642815 14.8470676,55.2450825 13.7699158,55.2450825 C12.6917323,55.2450825 11.8178363,54.3642815 11.8178363,53.2788608 C11.8178363,52.1934402 12.6917323,51.3147163 13.7699158,51.3147163 C14.8470676,51.3147163 15.7209636,52.1934402 15.7209636,53.2788608" fill="#FFFFFF"></path>
                    </g>
                </g>
                <g transform="translate(69.120000, 31.025380)" fill="#F87D00">
                    <path d="M51.8704287,26.2922132 L51.8704287,26.2922132 C49.8008652,28.3368913 46.4242086,28.3368913 44.3805794,26.2922132 C42.295455,24.2526726 42.295455,20.9185116 44.3805794,18.8738338 L63.769123,-0.350249634 L63.8417393,-0.447860058 L64.0544014,-0.617393882 L64.069962,-0.648218244 C64.2722503,-0.812614052 64.4849119,-0.961598531 64.6872002,-1.11058266 L65.0191605,-1.30580284 L65.0865896,-1.34176453 C65.8179392,-1.73734289 66.668587,-1.98393745 67.6177853,-1.98393745 C68.5151149,-1.98393745 69.3657625,-1.73734289 70.1282336,-1.34176453 L70.1801021,-1.30580284 L70.5431835,-1.11058266 C70.7299113,-0.961598531 70.9321992,-0.812614052 71.1448613,-0.648218244 L71.1604219,-0.617393882 L71.3471492,-0.447860058 L71.4457003,-0.350249634 L90.8394304,18.8738338 C92.9193681,20.9185116 92.9193681,24.2526726 90.8394304,26.2922132 C88.7906146,28.3368913 85.4295189,28.3368913 83.3495812,26.2922132 L72.8928388,15.9403884 L72.8928388,46.4102014 C72.8928388,49.307685 70.5431835,51.6708805 67.6177853,51.6708805 C64.6872002,51.6708805 62.3219844,49.307685 62.3219844,46.4102014 L62.3219844,15.9403884 L51.8704287,26.2922132 Z" id="Shape" transform="translate(67.608060, 24.843472) rotate(90.000000) translate(-67.608060, -24.843472) "></path>
                    <path d="M11.2761098,45.1054643 L11.2761098,45.1054643 C9.20654633,47.1501424 5.82988981,47.1501424 3.78626057,45.1054643 C1.70113612,43.0659237 1.70113612,39.7317627 3.78626057,37.6870849 L23.1748041,18.4630015 L23.2474206,18.365391 L23.4600825,18.1958572 L23.4756431,18.1650329 C23.6779315,18.0006371 23.8905931,17.8516526 24.0928814,17.7026684 L24.4248416,17.5074483 L24.4922707,17.4714866 C25.2236203,17.0759082 26.0742682,16.8293136 27.0234664,16.8293136 C27.9207961,16.8293136 28.7714436,17.0759082 29.5339148,17.4714866 L29.5857833,17.5074483 L29.9488647,17.7026684 C30.1355924,17.8516526 30.3378805,18.0006371 30.5505424,18.1650329 L30.566103,18.1958572 L30.7528304,18.365391 L30.8513814,18.4630015 L50.2451116,37.6870849 C52.3250494,39.7317627 52.3250494,43.0659237 50.2451116,45.1054643 C48.1962957,47.1501424 44.8351998,47.1501424 42.7552624,45.1054643 L32.29852,34.7536395 L32.29852,65.2234524 C32.29852,68.1209361 29.9488647,70.4841315 27.0234664,70.4841315 C24.0928814,70.4841315 21.7276656,68.1209361 21.7276656,65.2234524 L21.7276656,34.7536395 L11.2761098,45.1054643 Z" id="Shape" transform="translate(27.013741, 43.656723) scale(-1, 1) rotate(90.000000) translate(-27.013741, -43.656723) "></path>
                </g>
            </g>
        </g>
    </g>
</svg>