<?xml version="1.0" encoding="UTF-8"?>
<svg width="256px" height="256px" viewBox="0 0 256 256" version="1.1" xmlns="http://www.w3.org/2000/svg" xmlns:xlink="http://www.w3.org/1999/xlink">
    <!-- Generator: Sketch 43.2 (39069) - http://www.bohemiancoding.com/sketch -->
    <title>new-legacy</title>
    <desc>Created with Sketch.</desc>
    <defs>
        <polygon id="path-1" points="240.908316 136.468258 0 136.468258 0 0.0833262712 240.908316 0.0833262712"></polygon>
        <polygon id="path-3" points="0 136.727886 203.317663 136.727886 240.909196 136.727886 240.909196 0.34295339 0 0.34295339"></polygon>
        <polygon id="path-5" points="0 136.727886 203.317663 136.727886 240.909196 136.727886 240.909196 0.34295339 0 0.34295339"></polygon>
        <polygon id="path-7" points="123.089375 173.195847 123.089375 0.513991525 0 0.513991525 0 173.195847"></polygon>
        <polygon id="path-9" points="0 172.737114 123.089375 172.737114 123.089375 0.0552584746 0 0.0552584746"></polygon>
        <polygon id="path-11" points="0 172.737114 123.089375 172.737114 123.089375 0.0552584746 0 0.0552584746"></polygon>
        <polygon id="path-13" points="0 172.737114 123.089375 172.737114 123.089375 0.0552584746 0 0.0552584746"></polygon>
        <polygon id="path-15" points="0 172.737114 123.089375 172.737114 123.089375 0.0552584746 0 0.0552584746"></polygon>
    </defs>
    <g id="Page-1" stroke="none" stroke-width="1" fill="none" fill-rule="evenodd">
        <g id="new-legacy">
            <g transform="translate(1.000000, 24.000000)">
                <g id="Group" transform="translate(14.955326, 69.292373)">
                    <g transform="translate(0.000000, 0.259627)" id="Clipped">
                        <g>
                            <mask id="mask-2" fill="white">
                                <use xlink:href="#path-1"></use>
                            </mask>
                            <g id="new-legacy-a"></g>
                            <path d="M220.668127,123.664175 C220.809239,123.127399 220.908539,122.575028 220.908539,121.996663 L220.908539,6.762848 C220.908539,3.08990177 217.886399,0.0837005441 214.192671,0.0837005441 L26.7154344,0.0837005441 C23.0217072,0.0837005441 19.9995666,3.08990177 19.9995666,6.762848 L19.9995666,121.996663 C19.9995666,122.575028 20.0975609,123.127399 20.2399792,123.664175 L-0.000391976716,123.664175 L-0.000391976716,126.449427 L-0.000391976716,130.900893 C-0.000391976716,130.961978 4.28522012,136.468798 14.7732104,136.468798 L226.313899,136.468798 C235.388158,136.468798 239.96906,131.927654 240.768692,131.054257 C240.904578,130.967177 240.908498,126.449427 240.908498,126.449427 L240.908498,123.664175 L220.668127,123.664175 Z" id="Shape" fill="#525252" fill-rule="nonzero" mask="url(#mask-2)"></path>
                        </g>
                    </g>
                    <path d="M92.8381176,123.92397 L92.8381176,125.037811 C92.8381176,126.568855 94.0976693,127.820464 95.636831,127.820464 L145.272842,127.820464 C146.812005,127.820464 148.071557,126.568855 148.071557,125.037811 L148.071557,123.92397 L92.8381176,123.92397 Z" id="Shape" fill="#FFFFFF" fill-rule="nonzero"></path>
                    <g id="Clipped">
                        <mask id="mask-4" fill="white">
                            <use xlink:href="#path-3"></use>
                        </mask>
                        <g id="new-legacy-c"></g>
                        <polygon id="Shape" fill="#FFFFFF" fill-rule="nonzero" mask="url(#mask-4)" points="30.6320275 116.134017 210.274529 116.134017 210.274529 10.9201271 30.6320275 10.9201271"></polygon>
                    </g>
                    <g id="Clipped">
                        <g>
                            <mask id="mask-6" fill="white">
                                <use xlink:href="#path-5"></use>
                            </mask>
                            <g id="new-legacy-e"></g>
                        </g>
                    </g>
                </g>
                <g id="Group" transform="translate(0.000000, 0.331551)">
                    <g id="Clipped">
                        <mask id="mask-8" fill="white">
                            <use xlink:href="#path-7"></use>
                        </mask>
                        <g id="new-legacy-h"></g>
                        <path d="M115.842681,0.513167572 C119.826542,0.513167572 123.090881,3.73715086 123.090881,7.67757489 L123.090881,166.031253 C123.090881,169.968298 119.826542,173.195661 115.842681,173.195661 L7.2478584,173.195661 C3.2605792,173.195661 -0.00034181562,169.968298 -0.00034181562,166.031253 L-0.00034181562,7.67757489 C-0.00034181562,3.73715086 3.2605792,0.513167572 7.2478584,0.513167572 L115.842681,0.513167572 Z" id="Shape" fill="#DBDBDB" fill-rule="nonzero" mask="url(#mask-8)"></path>
                    </g>
                </g>
                <g id="Group" transform="translate(0.000000, 0.789407)">
                    <g id="Clipped">
                        <mask id="mask-10" fill="white">
                            <use xlink:href="#path-9"></use>
                        </mask>
                        <g id="new-legacy-j"></g>
                        <polygon id="Shape" fill="#FFFFFF" fill-rule="nonzero" mask="url(#mask-10)" points="8.63978007 158.404996 114.450474 158.404996 114.450474 14.3838686 8.63978007 14.3838686"></polygon>
                    </g>
                </g>
                <g id="Group" transform="translate(0.000000, 0.789407)">
                    <g id="Clipped">
                        <mask id="mask-12" fill="white">
                            <use xlink:href="#path-11"></use>
                        </mask>
                        <g id="new-legacy-l"></g>
                        <path d="M60.5562262,7.17637518 C60.5562262,6.6373549 60.9988773,6.19971777 61.5440732,6.19971777 C62.0875601,6.19971777 62.5319204,6.6373549 62.5319204,7.17637518 C62.5319204,7.71370572 62.0875601,8.15134288 61.5440732,8.15134288 C60.9988773,8.15134288 60.5562262,7.71370572 60.5562262,7.17637518" id="Shape" fill="#FFFFFF" fill-rule="nonzero" mask="url(#mask-12)"></path>
                    </g>
                </g>
                <g id="Group" transform="translate(0.000000, 0.789407)">
                    <g id="Clipped">
                        <mask id="mask-14" fill="white">
                            <use xlink:href="#path-13"></use>
                        </mask>
                        <g id="new-legacy-n"></g>
                        <path d="M64.7605581,165.097486 C64.7605581,166.856483 63.3215145,168.285986 61.5440732,168.285986 C59.766632,168.285986 58.3241702,166.856483 58.3241702,165.097486 C58.3241702,163.341869 59.766632,161.919124 61.5440732,161.919124 C63.3215145,161.919124 64.7605581,163.341869 64.7605581,165.097486" id="Shape" fill="#FFFFFF" fill-rule="nonzero" mask="url(#mask-14)"></path>
                    </g>
                </g>
                <g id="Group" transform="translate(0.000000, 0.789407)">
                    <g id="Clipped">
                        <mask id="mask-16" fill="white">
                            <use xlink:href="#path-15"></use>
                        </mask>
                        <g id="new-legacy-p"></g>
                        <rect id="Rectangle-path" fill="#D8D8D8" fill-rule="nonzero" mask="url(#mask-16)" x="58.0046735" y="5.52847881" width="6.35689347" height="4.73907203"></rect>
                    </g>
                    <path d="M89.4666451,88.0215478 L89.4666451,88.0215478 C87.042165,90.4144099 83.7085049,91.9120233 80.0382806,91.9316497 L79.9499515,91.9316497 L43.4487335,91.9316497 C38.6348003,91.9316497 34.2655582,89.9932053 31.1222623,86.8681435 L31.1222623,86.8636144 C27.9652603,83.7279847 26.0098379,79.4057372 26.0098379,74.6426598 C26.0098379,70.0652743 27.8129689,65.8879573 30.7567628,62.7915795 C33.3807447,60.0439406 36.9047692,58.1356901 40.8582556,57.5544588 C42.6766157,54.0323479 45.4041558,51.0371195 48.7180181,48.8722215 C52.3501694,46.4974765 56.7057053,45.1115794 61.3673471,45.1115794 C67.7163782,45.1115794 73.4729955,47.6705069 77.6442587,51.7980042 C81.3632164,55.4892005 83.8166318,60.4379701 84.294827,65.9423062 C86.6462072,66.7348944 88.6899587,68.1509851 90.2478999,69.9867703 C92.2276896,72.3177344 93.4155621,75.317492 93.4155621,78.578426 C93.4155621,82.2650933 91.9154918,85.6075509 89.481874,88.0215478 L89.4666451,88.0170192 L89.4666451,88.0215478 Z M61.9445317,72.2543273 L61.9445317,72.2543273 C61.3368887,72.8551847 60.3454714,72.8551847 59.745443,72.2543273 C59.1332312,71.6549797 59.1332312,70.6751897 59.745443,70.0743325 L65.4380979,64.425066 L65.4594187,64.3963819 L65.5218582,64.346562 L65.526427,64.3375038 C65.5858207,64.2891938 65.6482601,64.2454126 65.7076538,64.2016315 L65.8051204,64.1442633 L65.8249182,64.1336954 C66.0396492,64.0174492 66.2894072,63.944984 66.5681005,63.944984 C66.8315648,63.944984 67.0813227,64.0174492 67.3051913,64.1336954 L67.3204204,64.1442633 L67.4270244,64.2016315 C67.4818494,64.2454126 67.541243,64.2891938 67.6036825,64.3375038 L67.6082513,64.346562 L67.6630761,64.3963819 L67.6920116,64.425066 L73.3861893,70.0743325 C73.9968782,70.6751897 73.9968782,71.6549797 73.3861893,72.2543273 C72.7846382,72.8551847 71.7977895,72.8551847 71.1871007,72.2543273 L68.1169048,69.2122984 L68.1169048,78.1662803 C68.1169048,79.0177464 67.4270244,79.7122046 66.5681005,79.7122046 C65.7076538,79.7122046 65.0132046,79.0177464 65.0132046,78.1662803 L65.0132046,69.2122984 L61.9445317,72.2543273 Z M43.9086537,73.582856 L43.9086537,73.582856 C43.2979649,72.9804891 43.2979649,72.0022088 43.9086537,71.4028612 C44.5147737,70.8004942 45.4970536,70.8004942 46.1077424,71.4028612 L49.1779383,74.44489 L49.1779383,65.4909084 C49.1779383,64.6379325 49.8662957,63.944984 50.7313112,63.944984 C51.591758,63.944984 52.2816383,64.6379325 52.2816383,65.4909084 L52.2816383,74.44489 L55.3503113,71.4028612 C55.9610001,70.8004942 56.9493717,70.8004942 57.5494001,71.4028612 C58.1616118,72.0022088 58.1616118,72.9804891 57.5494001,73.582856 L51.8567452,79.2321226 L51.8278097,79.2608068 L51.7729848,79.3091169 L51.768416,79.3196847 C51.7090225,79.3679948 51.6465829,79.411776 51.5765288,79.455557 L51.4851539,79.5129253 L51.4699249,79.5219834 C51.2445334,79.6382297 51.0054359,79.7122046 50.7313112,79.7122046 C50.4526179,79.7122046 50.2135204,79.6382297 49.9896518,79.5219834 L49.9698538,79.5129253 L49.8662957,79.455557 C49.8129937,79.411776 49.7490312,79.3679948 49.6957292,79.3196847 L49.6865918,79.3091169 L49.6226293,79.2608068 L49.5982627,79.2321226 L43.9086537,73.582856 Z M79.9499515,86.7896395 C82.2769651,86.7760523 84.3252853,85.8596695 85.8162187,84.392249 C87.3071522,82.9006737 88.2391761,80.8444735 88.2391761,78.578426 C88.2391761,76.5524198 87.506654,74.7015377 86.2989827,73.2824275 C85.0684676,71.8331234 83.3369137,70.8110621 81.3632164,70.4759105 C80.102243,70.267573 79.2022005,69.1730465 79.2022005,67.9471769 C79.2022005,63.058795 77.2041364,58.630869 73.9725115,55.4318322 C70.7469783,52.2343051 66.2848384,50.2520798 61.3673471,50.2520798 C57.7260582,50.2520798 54.358894,51.3179222 51.5521623,53.1491783 C48.6555785,55.0393124 46.3483629,57.7582671 44.9640335,60.9648524 C44.5437091,61.9144485 43.6101624,62.4956799 42.6385428,62.5168156 C39.4510824,62.7145853 36.5971404,64.1382245 34.5290223,66.3046322 C32.4624272,68.4755689 31.1907935,71.4119194 31.1907935,74.6426598 C31.1907935,78.006253 32.5644624,81.0437527 34.7726887,83.2343155 C37.0068045,85.4278975 40.06634,86.7896395 43.4487335,86.7896395 L79.9499515,86.7896395 Z" id="Shape" fill="#F87D00" fill-rule="nonzero"></path>
                </g>
                <path d="M145.154639,144.724576 L145.154639,144.724576 L132.838488,144.724576 L132.838488,149.987288 L132.838488,156.127119 L145.154639,156.127119 L145.154639,149.987288 L145.154639,144.724576 Z M215.532646,100.868644 L215.532646,100.868644 L203.216495,100.868644 L203.216495,107.008475 L203.216495,112.271186 L215.532646,112.271186 L215.532646,107.008475 L215.532646,100.868644 Z M200.57732,96.4830508 L200.57732,96.4830508 L201.457045,96.4830508 L218.171821,96.4830508 C218.952576,96.4830508 219.931271,97.4467753 219.931271,98.2372881 L219.931271,99.1144068 L219.931271,106.131356 L219.931271,114.902542 C219.931271,115.684695 218.952576,116.65678 218.171821,116.65678 L217.292096,116.65678 L200.57732,116.65678 C199.794163,116.65678 198.817869,115.684695 198.817869,114.902542 L198.817869,114.025424 L198.817869,106.131356 L198.817869,98.2372881 C198.817869,97.4467753 199.794163,96.4830508 200.57732,96.4830508 L200.57732,96.4830508 Z M174.185567,144.724576 L174.185567,144.724576 L156.591065,144.724576 L156.591065,149.987288 L156.591065,156.127119 L174.185567,156.127119 L192.659794,156.127119 L192.659794,149.987288 L192.659794,144.724576 L174.185567,144.724576 Z M154.831615,140.338983 L174.185567,140.338983 L195.298969,140.338983 C196.063806,140.338983 197.058419,141.318175 197.058419,142.09322 L197.058419,142.970339 L197.058419,150.864407 L197.058419,158.758475 C197.058419,159.546656 196.063806,160.512712 195.298969,160.512712 L194.419244,160.512712 L174.185567,160.512712 L153.95189,160.512712 C153.178624,160.512712 152.19244,159.546656 152.19244,158.758475 L152.19244,157.881356 L152.19244,150.864407 L152.19244,142.09322 C152.19244,141.318175 153.178624,140.338983 153.95189,140.338983 L154.831615,140.338983 Z M174.185567,100.868644 L174.185567,100.868644 L156.591065,100.868644 L156.591065,107.008475 L156.591065,112.271186 L174.185567,112.271186 L192.659794,112.271186 L192.659794,107.008475 L192.659794,100.868644 L174.185567,100.868644 Z M153.95189,96.4830508 L153.95189,96.4830508 L154.831615,96.4830508 L174.185567,96.4830508 L195.298969,96.4830508 C196.063806,96.4830508 197.058419,97.4467753 197.058419,98.2372881 L197.058419,99.1144068 L197.058419,106.131356 L197.058419,114.902542 C197.058419,115.684695 196.063806,116.65678 195.298969,116.65678 L194.419244,116.65678 L174.185567,116.65678 L153.95189,116.65678 C153.178624,116.65678 152.19244,115.684695 152.19244,114.902542 L152.19244,114.025424 L152.19244,106.131356 L152.19244,98.2372881 C152.19244,97.4467753 153.178624,96.4830508 153.95189,96.4830508 L153.95189,96.4830508 Z M197.938144,122.79661 L197.938144,122.79661 L179.463918,122.79661 L179.463918,128.936441 L179.463918,134.199153 L197.938144,134.199153 L215.532646,134.199153 L215.532646,128.936441 L215.532646,122.79661 L197.938144,122.79661 Z M177.704467,118.411017 L177.704467,118.411017 L177.704467,118.411017 L197.938144,118.411017 L218.171821,118.411017 C218.949904,118.411017 219.931271,119.377073 219.931271,120.165254 L219.931271,121.042373 L219.931271,128.936441 L219.931271,136.830508 C219.931271,137.613913 218.949904,138.584746 218.171821,138.584746 L217.292096,138.584746 L197.938144,138.584746 L177.704467,138.584746 C176.044252,138.584746 175.065292,137.613913 175.065292,136.830508 L175.065292,135.95339 L175.065292,128.936441 L175.065292,120.165254 C175.065292,119.377073 176.044252,118.411017 177.704467,118.411017 L177.704467,118.411017 Z M151.312715,122.79661 L151.312715,122.79661 L132.838488,122.79661 L132.838488,128.936441 L132.838488,134.199153 L151.312715,134.199153 L168.907216,134.199153 L168.907216,128.936441 L168.907216,122.79661 L151.312715,122.79661 Z M131.079038,118.411017 L131.079038,118.411017 L131.079038,118.411017 L151.312715,118.411017 L171.546392,118.411017 C172.326882,118.411017 173.305842,119.377073 173.305842,120.165254 L173.305842,121.042373 L173.305842,128.936441 L173.305842,136.830508 C173.305842,137.613913 172.326882,138.584746 171.546392,138.584746 L170.666667,138.584746 L151.312715,138.584746 L131.079038,138.584746 C129.42123,138.584746 128.439863,137.613913 128.439863,136.830508 L128.439863,135.95339 L128.439863,128.936441 L128.439863,120.165254 C128.439863,119.377073 129.42123,118.411017 131.079038,118.411017 L131.079038,118.411017 Z M197.938144,166.652542 L197.938144,166.652542 L179.463918,166.652542 L179.463918,171.915254 L179.463918,178.055085 L197.938144,178.055085 L215.532646,178.055085 L215.532646,171.915254 L215.532646,166.652542 L197.938144,166.652542 Z M177.704467,162.266949 L177.704467,162.266949 L177.704467,162.266949 L197.938144,162.266949 L218.171821,162.266949 C218.949904,162.266949 219.931271,163.239263 219.931271,164.021186 L219.931271,164.898305 L219.931271,171.915254 L219.931271,180.686441 C219.931271,181.467169 218.949904,182.440678 218.171821,182.440678 L217.292096,182.440678 L197.938144,182.440678 L177.704467,182.440678 C176.044252,182.440678 175.065292,181.467169 175.065292,180.686441 L175.065292,179.809322 L175.065292,171.915254 L175.065292,164.021186 C175.065292,163.239263 176.044252,162.266949 177.704467,162.266949 L177.704467,162.266949 Z M151.312715,166.652542 L151.312715,166.652542 L132.838488,166.652542 L132.838488,171.915254 L132.838488,178.055085 L151.312715,178.055085 L168.907216,178.055085 L168.907216,171.915254 L168.907216,166.652542 L151.312715,166.652542 Z M131.079038,162.266949 L131.079038,162.266949 L131.079038,162.266949 L151.312715,162.266949 L171.546392,162.266949 C172.326882,162.266949 173.305842,163.239263 173.305842,164.021186 L173.305842,164.898305 L173.305842,171.915254 L173.305842,180.686441 C173.305842,181.467169 172.326882,182.440678 171.546392,182.440678 L170.666667,182.440678 L151.312715,182.440678 L131.079038,182.440678 C129.42123,182.440678 128.439863,181.467169 128.439863,180.686441 L128.439863,179.809322 L128.439863,171.915254 L128.439863,164.021186 C128.439863,163.239263 129.42123,162.266949 131.079038,162.266949 L131.079038,162.266949 Z M130.199313,140.338983 L131.079038,140.338983 L146.914089,140.338983 C148.56318,140.338983 149.553265,141.318175 149.553265,142.09322 L149.553265,142.970339 L149.553265,150.864407 L149.553265,158.758475 C149.553265,159.546656 148.56318,160.512712 146.914089,160.512712 L146.914089,160.512712 L130.199313,160.512712 C129.417946,160.512712 128.439863,159.546656 128.439863,158.758475 L128.439863,157.881356 L128.439863,150.864407 L128.439863,142.09322 C128.439863,141.318175 129.417946,140.338983 130.199313,140.338983 L130.199313,140.338983 Z" id="Shape" fill="#F87D00" fill-rule="nonzero"></path>
            </g>
        </g>
    </g>
</svg>