<?xml version="1.0" encoding="UTF-8"?>
<svg width="256px" height="256px" viewBox="0 0 256 256" version="1.1" xmlns="http://www.w3.org/2000/svg" xmlns:xlink="http://www.w3.org/1999/xlink">
    <!-- Generator: Sketch 43.2 (39069) - http://www.bohemiancoding.com/sketch -->
    <title>strategic-consulting</title>
    <desc>Created with Sketch.</desc>
    <defs>
        <polygon id="path-1" points="112.623456 38.1527075 112.623456 0 0 0 0 38.1527075 0 76.305415 112.623456 76.305415"></polygon>
        <path d="M0.000859721741,5.64748669 C0.000859721741,8.76471266 2.61699298,11.2915156 5.8443884,11.2915156 C9.07178379,11.2915156 11.6879171,8.76471266 11.6879171,5.64748669 C11.6879171,2.52939631 9.07178379,0.002593366 5.8443884,0.002593366 C2.61699298,0.002593366 0.000859721741,2.52939631 0.000859721741,5.64748669 Z" id="path-3"></path>
        <path d="M0.462530296,5.64748669 C0.462530296,8.76471266 3.07866356,11.2915156 6.30605897,11.2915156 C9.53431414,11.2915156 12.1504473,8.76471266 12.1504473,5.64748669 C12.1504473,2.52939631 9.53431414,0.002593366 6.30605897,0.002593366 C3.07866356,0.002593366 0.462530296,2.52939631 0.462530296,5.64748669 Z" id="path-5"></path>
        <path d="M0.0661985741,5.64748669 C0.0661985741,8.76471266 2.68233184,11.2915156 5.90972725,11.2915156 C9.13626297,11.2915156 11.7523962,8.76471266 11.7523962,5.64748669 C11.7523962,2.52939631 9.13626297,0.002593366 5.90972725,0.002593366 C2.68233184,0.002593366 0.0661985741,2.52939631 0.0661985741,5.64748669 Z" id="path-7"></path>
        <path d="M0.571714958,6.50589083 C0.571714958,9.6231168 3.18784822,12.1507842 6.41438391,12.1507842 C9.64177937,12.1507842 12.2579126,9.6231168 12.2579126,6.50589083 C12.2579126,3.3886649 9.64177937,0.861861967 6.41438391,0.861861967 C3.18784822,0.861861967 0.571714958,3.3886649 0.571714958,6.50589083 Z" id="path-9"></path>
        <path d="M0.173663791,6.50589083 C0.173663791,9.6231168 2.78979705,12.1507842 6.01805219,12.1507842 C9.24458789,12.1507842 11.8607211,9.6231168 11.8607211,6.50589083 C11.8607211,3.3886649 9.24458789,0.861861967 6.01805219,0.861861967 C2.78979705,0.861861967 0.173663791,3.3886649 0.173663791,6.50589083 Z" id="path-11"></path>
        <path d="M0.636194088,6.50589083 C0.636194088,9.6231168 3.25232735,12.1507842 6.47972276,12.1507842 C9.70711815,12.1507842 12.3232515,9.6231168 12.3232515,6.50589083 C12.3232515,3.3886649 9.70711815,0.861861967 6.47972276,0.861861967 C3.25232735,0.861861967 0.636194088,3.3886649 0.636194088,6.50589083 Z" id="path-13"></path>
    </defs>
    <g id="Page-1" stroke="none" stroke-width="1" fill="none" fill-rule="evenodd">
        <g id="strategic-consulting">
            <g transform="translate(0.000000, 26.000000)" id="Group">
                <g transform="translate(0.000000, 0.354395)" fill-rule="nonzero">
                    <rect id="Rectangle-path" fill="#DBDBDB" x="0" y="117.52751" width="27.5835646" height="85.2035918" rx="5"></rect>
                    <rect id="Rectangle-path" fill="#DBDBDB" x="34.7341497" y="101.857524" width="27.5835646" height="100.351129" rx="5"></rect>
                    <rect id="Rectangle-path" fill="#525252" x="69.4674286" y="48.1306122" width="27.5835646" height="154.313143" rx="5"></rect>
                    <rect id="Rectangle-path" fill="#F87D00" x="104.201578" y="0" width="27.5835646" height="202.595265" rx="5"></rect>
                </g>
                <g transform="translate(142.802721, 43.021061)">
                    <path d="M101.150131,6.91564267 L11.3788471,6.91564267 C9.21922612,6.91564267 7.73792554,8.89005862 7.73792554,10.9759894 L7.73792554,51.9494432 C7.73792554,54.033645 9.21922612,55.3251413 11.3788471,55.3251413 L23.2352696,55.3251413 C25.2968823,55.3251413 26.6518039,57.3419155 26.6518039,59.3292984 L26.6518039,65.1937634 L37.9709003,56.3244516 C38.6346055,55.8092363 39.6129688,55.3251413 40.4658127,55.3251413 L101.150131,55.3251413 C103.309753,55.3251413 104.886482,54.033645 104.886482,51.9494432 L104.886482,10.9759894 C104.886482,8.89005862 103.309753,6.91564267 101.150131,6.91564267" id="Shape" fill="#FCFCFC" fill-rule="nonzero"></path>
                    <path d="M102.890252,82.1232567 L46.5036829,82.1232567 C44.3423424,82.1232567 43.0080542,84.0094982 43.0080542,86.0928355 L43.0080542,97.5304438 C43.0080542,99.5195559 40.9129124,101.141274 38.853019,101.141274 L32.7739266,101.141274 L41.9703701,111.903743 C42.5042573,112.543439 43.0080542,113.330959 43.0080542,114.15392 L43.0080542,129.111591 C43.0080542,131.196656 44.3423424,133.12612 46.5036829,133.12612 L102.890252,133.12612 C105.052453,133.12612 106.627463,131.196656 106.627463,129.111591 L106.627463,86.0928355 C106.627463,84.0094982 105.052453,82.1232567 102.890252,82.1232567" id="Shape" fill="#FFFFFF" fill-rule="nonzero"></path>
                    <path d="M104.886053,129.111591 C104.886053,131.196656 103.311042,133.12612 101.148842,133.12612 L44.7614124,133.12612 C42.6009317,133.12612 41.2666436,131.196656 41.2666436,129.111591 L41.2666436,114.15392 C41.2666436,113.330959 40.7628467,112.543439 40.2289594,111.903743 L31.032516,101.141274 L37.1116084,101.141274 C39.1715017,101.141274 41.2666436,99.5195559 41.2666436,97.5304438 L41.2666436,86.0928355 C41.2666436,84.0094982 42.6009317,82.1232567 44.7614124,82.1232567 L101.148842,82.1232567 C103.311042,82.1232567 104.886053,84.0094982 104.886053,86.0928355 L104.886053,129.111591 Z M101.148842,75.207614 L44.7614124,75.207614 C38.4871632,75.207614 33.5291479,80.0381904 33.5291479,86.0928355 L33.5291479,94.2256309 L23.2442967,94.2256309 C21.8094211,94.2256309 20.5000649,94.8739727 19.881925,96.1239754 C19.6360445,96.6201722 19.5148238,97.0766054 19.5148238,97.6039227 C19.5148238,98.4078663 19.8690292,99.1729093 20.413233,99.8221148 L33.5291479,115.422076 L33.5291479,129.111591 C33.5291479,135.166235 38.4871632,140.041764 44.7614124,140.041764 L101.148842,140.041764 C107.423091,140.041764 112.623548,135.166235 112.623548,129.111591 L112.623548,86.0928355 C112.623548,80.0381904 107.423091,75.207614 101.148842,75.207614 L101.148842,75.207614 Z" id="Shape" fill="#525252" fill-rule="nonzero"></path>
                    <g id="Clipped">
                        <mask id="mask-2" fill="white">
                            <use xlink:href="#path-1"></use>
                        </mask>
                        <g id="strategic-consulting-a"></g>
                        <path d="M104.886053,51.9490974 C104.886053,54.0341637 103.310183,55.3247956 101.149702,55.3247956 L40.4662427,55.3247956 C39.6133986,55.3247956 38.6350354,55.8088905 37.9713301,56.324106 L26.651374,65.1934176 L26.651374,59.3298171 C26.651374,57.3415698 25.2964525,55.3247956 23.2348399,55.3247956 L11.3784173,55.3247956 C9.21879623,55.3247956 7.73749568,54.0341637 7.73749568,51.9490974 L7.73749568,10.9765081 C7.73749568,8.89057733 9.21879623,6.91529689 11.3784173,6.91529689 L101.149702,6.91529689 C103.310183,6.91529689 104.886053,8.89057733 104.886053,10.9765081 L104.886053,51.9490974 Z M101.149702,-0.000345782133 L11.3784173,-0.000345782133 C5.10244853,-0.000345782133 0,4.92272734 0,10.9765081 L0,51.9490974 C0,58.0037427 5.10244853,63.1048935 11.3784173,63.1048935 L19.7736,63.1048935 L19.7736,72.7072633 C19.7736,74.0912563 20.4630969,75.3550901 21.7586975,75.9524287 C22.2719514,76.1892895 22.7559748,76.3051265 23.3018981,76.3051265 C24.1358282,76.3051265 24.9327902,76.123591 25.6059523,75.5980021 L41.7798975,63.1048935 L101.149702,63.1048935 C107.424811,63.1048935 112.623548,58.0037427 112.623548,51.9490974 L112.623548,10.9765081 C112.623548,4.92272734 107.424811,-0.000345782133 101.149702,-0.000345782133 L101.149702,-0.000345782133 Z" id="Shape" fill="#DBDBDB" fill-rule="nonzero" mask="url(#mask-2)"></path>
                    </g>
                    <g transform="translate(52.453878, 104.343510)" id="Clipped">
                        <g>
                            <mask id="mask-4" fill="white">
                                <use xlink:href="#path-3"></use>
                            </mask>
                            <g id="strategic-consulting-c"></g>
                            <polygon id="Shape" fill="#525252" fill-rule="nonzero" mask="url(#mask-4)" points="-4.29801361 15.6133878 15.9869388 15.6133878 15.9869388 -4.31978231 -4.29801361 -4.31978231"></polygon>
                        </g>
                    </g>
                    <g transform="translate(67.928816, 104.343510)" id="Clipped">
                        <g>
                            <mask id="mask-6" fill="white">
                                <use xlink:href="#path-5"></use>
                            </mask>
                            <g id="strategic-consulting-e"></g>
                            <polygon id="Shape" fill="#525252" fill-rule="nonzero" mask="url(#mask-6)" points="-3.83564626 15.6133878 16.4493061 15.6133878 16.4493061 -4.31978231 -3.83564626 -4.31978231"></polygon>
                        </g>
                    </g>
                    <g transform="translate(84.264054, 104.343510)" id="Clipped">
                        <g>
                            <mask id="mask-8" fill="white">
                                <use xlink:href="#path-7"></use>
                            </mask>
                            <g id="strategic-consulting-g"></g>
                            <polygon id="Shape" fill="#525252" fill-rule="nonzero" mask="url(#mask-8)" points="-4.23357823 15.6133878 16.0513741 15.6133878 16.0513741 -4.31978231 -4.23357823 -4.31978231"></polygon>
                        </g>
                    </g>
                    <g transform="translate(36.118639, 24.107537)" id="Clipped">
                        <g>
                            <mask id="mask-10" fill="white">
                                <use xlink:href="#path-9"></use>
                            </mask>
                            <g id="strategic-consulting-i"></g>
                            <polygon id="Shape" fill="#F87D00" fill-rule="nonzero" mask="url(#mask-10)" points="-3.72767347 16.4728163 16.5564082 16.4728163 16.5564082 -3.46035374 -3.72767347 -3.46035374"></polygon>
                        </g>
                    </g>
                    <g transform="translate(52.453878, 24.107537)" id="Clipped">
                        <g>
                            <mask id="mask-12" fill="white">
                                <use xlink:href="#path-11"></use>
                            </mask>
                            <g id="strategic-consulting-k"></g>
                            <polygon id="Shape" fill="#F87D00" fill-rule="nonzero" mask="url(#mask-12)" points="-4.12473469 16.4728163 16.1593469 16.4728163 16.1593469 -3.46035374 -4.12473469 -3.46035374"></polygon>
                        </g>
                    </g>
                    <g transform="translate(67.928816, 24.107537)" id="Clipped">
                        <g>
                            <mask id="mask-14" fill="white">
                                <use xlink:href="#path-13"></use>
                            </mask>
                            <g id="strategic-consulting-m"></g>
                            <polygon id="Shape" fill="#F87D00" fill-rule="nonzero" mask="url(#mask-14)" points="-3.66236735 16.4728163 16.6217143 16.4728163 16.6217143 -3.46035374 -3.66236735 -3.46035374"></polygon>
                        </g>
                    </g>
                </g>
            </g>
        </g>
    </g>
</svg>