<?xml version="1.0" encoding="UTF-8"?>
<svg width="256px" height="256px" viewBox="0 0 256 256" version="1.1" xmlns="http://www.w3.org/2000/svg" xmlns:xlink="http://www.w3.org/1999/xlink">
    <!-- Generator: Sketch 43.2 (39069) - http://www.bohemiancoding.com/sketch -->
    <title>ux-design-systems</title>
    <desc>Created with Sketch.</desc>
    <defs></defs>
    <g id="Page-1" stroke="none" stroke-width="1" fill="none" fill-rule="evenodd">
        <g id="ux-design-systems" fill-rule="nonzero">
            <g id="Group">
                <g transform="translate(127.625402, 127.999573) rotate(45.000000) translate(-127.625402, -127.999573) translate(37.380798, 37.754968)">
                    <path d="M131.641211,93.5563327 L97.6959954,93.5563327 C95.4097239,93.5563327 93.5563345,95.409722 93.5563345,97.6959936 L93.5563345,121.208305 C96.0403559,119.938485 98.8543604,119.22223 101.835656,119.22223 C111.895251,119.22223 120.050164,127.377142 120.050164,137.436736 C120.050164,147.496331 111.895251,155.651244 101.835656,155.651244 C98.8543604,155.651244 96.0403541,154.934988 93.5563327,153.665168 L93.5563345,176.349548 C93.5563345,178.635819 95.4097239,180.489209 97.6959954,180.489209 L176.34955,180.489209 C178.635821,180.489209 180.48921,178.635819 180.48921,176.349548 L180.48921,153.665176 C178.005191,154.934988 175.191185,155.651244 172.209889,155.651244 C162.150294,155.651244 153.995382,147.496331 153.995382,137.436736 C153.995382,127.377142 162.150294,119.22223 172.209889,119.22223 C175.191185,119.22223 178.005189,119.938485 180.48921,121.208305 L180.48921,97.6959936 C180.48921,95.409722 178.635821,93.5563327 176.34955,93.5563327 L144.060194,93.5563327 L144.060194,91.0756805 C148.494412,88.70642 151.511583,84.0323362 151.511583,78.6535542 C151.511583,70.8802311 145.21006,64.5787077 137.436736,64.5787077 C129.663413,64.5787077 123.361891,70.8802311 123.361891,78.6535542 C123.361891,84.3608372 126.758854,89.2747167 131.641211,91.4836222 L131.641211,93.5563327 Z" id="Shape" fill="#525252"></path>
                    <path d="M93.5563327,48.8480006 L93.5563327,82.7932168 C93.5563327,85.0794884 95.409722,86.9328776 97.6959936,86.9328776 L121.208305,86.9328776 C119.938485,84.4488566 119.22223,81.6348516 119.22223,78.6535561 C119.22223,68.5939615 127.377142,60.4390488 137.436736,60.4390488 C147.496331,60.4390488 155.651244,68.5939615 155.651244,78.6535561 C155.651244,81.6348524 154.934988,84.448858 153.665168,86.9328795 L176.349548,86.9328776 C178.635819,86.9328776 180.489209,85.0794884 180.489209,82.7932168 L180.489209,4.13966261 C180.489209,1.85339112 178.635819,1.86848944e-06 176.349548,1.86848944e-06 L153.665176,1.86848944e-06 C154.934988,2.48402147 155.651244,5.29802707 155.651244,8.27932337 C155.651244,18.3389179 147.496331,26.4938306 137.436736,26.4938306 C127.377142,26.4938306 119.22223,18.3389179 119.22223,8.27932337 C119.22223,5.29802781 119.938485,2.48402288 121.208305,1.86848944e-06 L97.6959936,1.86848944e-06 C95.409722,1.86848944e-06 93.5563327,1.85339112 93.5563327,4.13966261 L93.5563327,36.4290183 L91.0756805,36.4290183 C88.70642,31.9948004 84.0323362,28.977629 78.6535542,28.977629 C70.8802311,28.977629 64.5787077,35.2791524 64.5787077,43.0524755 C64.5787077,50.8257986 70.8802311,57.1273221 78.6535542,57.1273221 C84.3608372,57.1273221 89.2747167,53.7303582 91.4836222,48.8480011 L93.5563327,48.8480006 Z" id="Shape" fill="#F87D00"></path>
                    <path d="M48.8480006,86.9328757 L82.7932168,86.9328757 C85.0794884,86.9328757 86.9328776,85.0794864 86.9328776,82.793215 L86.9328776,59.2809036 C84.4488566,60.5507229 81.6348516,61.2669791 78.6535561,61.2669791 C68.5939615,61.2669791 60.4390488,53.1120664 60.4390488,43.0524718 C60.4390488,32.9928772 68.5939615,24.8379645 78.6535561,24.8379645 C81.6348524,24.8379645 84.448858,25.5542211 86.9328795,26.8240409 L86.9328776,4.13966074 C86.9328776,1.85338925 85.0794884,0 82.7932168,0 L4.13966261,0 C1.85339112,0 1.86848944e-06,1.85338925 1.86848944e-06,4.13966074 L1.86848944e-06,26.8240326 C2.48402147,25.5542211 5.29802707,24.8379645 8.27932337,24.8379645 C18.3389179,24.8379645 26.4938306,32.9928772 26.4938306,43.0524718 C26.4938306,53.1120664 18.3389179,61.2669791 8.27932337,61.2669791 C5.29802781,61.2669791 2.48402288,60.5507229 1.86848944e-06,59.2809036 L1.86848944e-06,82.793215 C1.86848944e-06,85.0794864 1.85339112,86.9328757 4.13966261,86.9328757 L36.4290183,86.9328757 L36.4290183,89.4135281 C31.9948004,91.7827886 28.977629,96.4568725 28.977629,101.835654 C28.977629,109.608977 35.2791524,115.910501 43.0524755,115.910501 C50.8257986,115.910501 57.1273221,109.608977 57.1273221,101.835654 C57.1273221,96.1283711 53.7303582,91.2144919 48.8480011,89.0055864 L48.8480006,86.9328757 Z" id="Shape" fill="#D8D8D8"></path>
                    <path d="M86.9328757,131.641211 L86.9328757,97.6959954 C86.9328757,95.4097239 85.0794864,93.5563345 82.793215,93.5563345 L59.2809036,93.5563345 C60.5507229,96.0403559 61.2669791,98.8543604 61.2669791,101.835656 C61.2669791,111.895251 53.1120664,120.050164 43.0524718,120.050164 C32.9928772,120.050164 24.8379645,111.895251 24.8379645,101.835656 C24.8379645,98.8543604 25.5542211,96.0403541 26.8240409,93.5563327 L4.13966074,93.5563345 C1.85338925,93.5563345 0,95.4097239 0,97.6959954 L0,176.34955 C0,178.635821 1.85338925,180.48921 4.13966074,180.48921 L26.8240326,180.48921 C25.5542211,178.005191 24.8379645,175.191185 24.8379645,172.209889 C24.8379645,162.150294 32.9928772,153.995382 43.0524718,153.995382 C53.1120664,153.995382 61.2669791,162.150294 61.2669791,172.209889 C61.2669791,175.191185 60.5507229,178.005189 59.2809036,180.48921 L82.793215,180.48921 C85.0794864,180.48921 86.9328757,178.635821 86.9328757,176.34955 L86.9328757,144.060194 L89.4135281,144.060194 C91.7827886,148.494412 96.4568725,151.511583 101.835654,151.511583 C109.608977,151.511583 115.910501,145.21006 115.910501,137.436736 C115.910501,129.663413 109.608977,123.361891 101.835654,123.361891 C96.1283711,123.361891 91.2144919,126.758854 89.0055864,131.641211 L86.9328757,131.641211 Z" id="Shape" fill="#525252"></path>
                </g>
            </g>
        </g>
    </g>
</svg>