<svg xmlns="http://www.w3.org/2000/svg" viewBox="0 0 382 93">
  <defs>
    <linearGradient id="a" x1="-.165%" x2="100.02%" y1="50%" y2="50%">
      <stop stop-color="#762123" offset="0%"/>
      <stop stop-color="#762123" stop-opacity="0" offset="100%"/>
    </linearGradient>
  </defs>
  <g fill="none" fill-rule="evenodd">
    <path fill="#231F20" fill-rule="nonzero" d="M108 39.5H93.9v-3.3H108"/>
    <path fill="#666" fill-rule="nonzero" d="M37.5 76.8c0 .1 0 .1 0 0 0 2.9 8.4.7 8.4 3.3v-6.5c-3.9.3-7.4 1-8.4 3.2z"/>
    <path fill="#C41230" fill-rule="nonzero" d="M37.5 21V4.3c1.7-3.2 8.9-3.2 15.4-3.2h37.8v16.7H52.9c-5.5 0-13.8-.4-15.4 3.2zm0 39.2v16.7c1.6-3.6 9.9-3.2 15.4-3.2h37.8V56.9H52.9c-6.5 0-13.7 0-15.4 3.3zm0-28v16.7c1.6-3.6 9.9-3.2 15.4-3.2h31.6V29H52.9c-6.5 0-13.7 0-15.4 3.2z"/>
    <path fill="url(#a)" fill-rule="nonzero" d="M61.2 1.1h-8.3c-6.5 0-13.7 0-15.4 3.2v72.6c1.6-3.6 9.9-3.2 15.4-3.2h8.3V1.1z"/>
    <g fill-rule="nonzero">
      <path fill="#FFF" d="M.5 53.2h37V75H.5z"/>
      <path fill="#C1D2E1" d="M37.5 10.8c-2.4.1-4.9.1-7 .1H.5v44.8h30c2.4 0 4.8 0 7-.2V10.8z"/>
      <path fill="#FFF" d="M7.4 15.3l.8 2.5h2.7l-2.2 1.6.8 2.5-2.1-1.6-2.1 1.6.8-2.5-2.2-1.6h2.7l.8-2.5zm11 2.5h-2.7l2.2 1.6-.8 2.5 2.1-1.6 2.1 1.6-.8-2.5 2.2-1.6H20l-.8-2.5-.8 2.5zm11.7 0h-2.7l2.2 1.6-.8 2.5 2.1-1.6 2.1 1.6-.8-2.5 2.2-1.6h-2.7l-.8-2.5-.8 2.5zm-23.5 10H3.9l2.2 1.6-.8 2.5 2.1-1.6 2.1 1.6-.8-2.5 2.2-1.6H8.2l-.8-2.5-.8 2.5zm11.8 0h-2.7l2.2 1.6-.8 2.5 2.1-1.6 2.1 1.6-.8-2.5 2.2-1.6H20l-.8-2.5-.8 2.5zm11.7 0h-2.7l2.2 1.6-.8 2.5 2.1-1.6 2.1 1.6-.8-2.5 2.2-1.6h-2.7l-.8-2.5-.8 2.5zM6.6 37.7H3.9l2.2 1.6-.8 2.5 2.1-1.6 2.1 1.6-.8-2.5 2.2-1.6H8.2l-.8-2.5-.8 2.5zm11.8 0h-2.7l2.2 1.6-.8 2.5 2.1-1.6 2.1 1.6-.8-2.5 2.2-1.6H20l-.8-2.5-.8 2.5zm11.7 0h-2.7l2.2 1.6-.8 2.5 2.1-1.6 2.1 1.6-.8-2.5 2.2-1.6h-2.7l-.8-2.5-.8 2.5zM6.6 47.6H3.9l2.2 1.6-.8 2.5 2.1-1.6 2.1 1.6-.8-2.5 2.2-1.6H8.2l-.8-2.5-.8 2.5zm11.8 0h-2.7l2.2 1.6-.8 2.5 2.1-1.6 2.1 1.6-.8-2.5 2.2-1.6H20l-.8-2.5-.8 2.5zm11.7 0h-2.7l2.2 1.6-.8 2.5 2.1-1.6 2.1 1.6-.8-2.5 2.2-1.6h-2.7l-.8-2.5-.8 2.5z"/>
      <path fill="#E5D3D5" d="M37.5 76.9V66.6c-2.4.1-4.9.1-7 .1H.5v16.7h30c6.5 0 13.7 0 15.4-3.2 0-2.7-8.4-.5-8.4-3.3z"/>
    </g>
    <g fill="#005288" fill-rule="nonzero">
      <path d="M224.7 55.5c-3.3 13.1-14.9 19.1-27.7 19.1-7.9 0-15.7-1.7-21.8-7.1-5.8-5.2-8.9-12.6-8.8-20.3-.1-7.3 2.8-15.2 7.8-20.4 5.5-5.7 13.8-8.4 21.5-8.4 18 0 29 11.6 29 29.4v2.9h-36.3c0 5.8 1.9 10 8.3 10 4.8 0 7.4-1.9 8.3-6.6l19.7 1.4zm-21.1-15.3c0-5.3-1.7-9.3-7.6-9.3-5.5 0-7.5 4.3-7.5 9.3h15.1zm42.6-9.5c1.8-7.5 5.7-12.8 14.1-12.2l2.9.2v18.9c-1.3-.3-2.6-.5-4-.5-3.4 0-6.9.6-8.6 3.7-1.5 2.6-1.5 6.1-1.5 9.3v23.5h-20.9v-54H246v11.1h.2zM268 5h20.9v9.4H268zm0 14.6h20.9v54.1H268zm27.1 1c0-5.3.3-10.3 3.9-14.7C303.2.8 309.7 0 316 0c5.2 0 10.4.7 15.6 1.4L325.7 14c-1.9-.2-3.6-.2-5-.2-3.8 0-5.4 2.5-4.9 7.6h8.4l4.9 13.3H316v38.9h-20.9v-53zm-142.7 53h-22.7L106.3 1.1h21.1l14.7 47.3 13.4-47.3H175"/>
      <path d="M365.5 21.4l-8.8 27.8-10.3-27.8h-19.5l18.2 47.1c.5 1.5 1.4 3.3 1.4 4.9 0 4.2-6.3 4.1-9.2 4.1-2.5 0-5.1-.3-7.6-.6v15c4.2.4 7.5.5 10.7.5 12.1 0 17.5-4.2 21.5-15.4L382 21.4h-16.5z"/>
    </g>
    <path d="M374.1 64.7h11.1v11.1h-11.1z"/>
    <path fill="#005287" fill-rule="nonzero" d="M381 68.1c0 .9-.3 1.6-.9 2.3-.6.6-1.4.9-2.3.9-.9 0-1.6-.3-2.3-.9-.6-.6-.9-1.4-.9-2.3 0-.9.3-1.6.9-2.3.6-.6 1.4-.9 2.3-.9.9 0 1.6.3 2.3.9.6.6.9 1.4.9 2.3zm-.3 0c0-.8-.3-1.5-.8-2-.6-.6-1.2-.8-2-.8s-1.5.3-2 .8c-.6.6-.8 1.2-.8 2s.3 1.5.8 2c.6.6 1.2.8 2 .8s1.5-.3 2-.8c.5-.6.8-1.3.8-2zm-4.1-1.9h1.3c.5 0 .8.1 1 .3.2.2.3.4.3.7 0 .3-.1.5-.3.7-.2.1-.4.2-.7.3.1.1.2.1.3.2.1.1.1.2.3.3.1.2.2.3.3.4l.4.6h-.6l-.3-.6c-.3-.4-.5-.7-.6-.8-.1-.1-.4-.1-.7-.1h-.3v1.5h-.4v-3.5zm.5.4v1.2h.4c.5 0 .8 0 1-.1.1 0 .2-.1.3-.2.1-.1.1-.2.1-.3 0-.2-.1-.3-.2-.4-.1-.1-.4-.2-.9-.2h-.7z"/>
  </g>
</svg>