
<svg width="201px" height="201px" viewBox="0 0 201 201" version="1.1" xmlns="http://www.w3.org/2000/svg" xmlns:xlink="http://www.w3.org/1999/xlink">
    <!-- Generator: Sketch 43.2 (39069) - http://www.bohemiancoding.com/sketch -->
    <desc>Created with Sketch.</desc>
    <defs></defs>
    <g id="Page-1" stroke="none" stroke-width="1" fill="none" fill-rule="evenodd">
        <g id="facebook-3" fill-rule="nonzero" fill="#FFFFFF">
            <path d="M169.943846,0.242938805 L33.6974933,0.242938805 C15.9916923,0.242938805 0.394558444,13.0953733 0.394558444,30.7852053 L0.394558444,166.908676 C0.394558444,184.598508 15.9916923,200.424514 33.6974933,200.424514 L118.056823,200.424514 C117.89877,174.187123 118.094269,144.969359 117.966855,119.580796 C112.586252,119.526378 107.200786,119.248456 101.820183,119.165857 C101.840122,110.193155 101.828451,101.034362 101.831855,92.0631176 C107.209053,91.9965524 112.589656,91.9839196 117.966855,91.9329024 C118.131229,83.2079982 117.80248,74.4291616 118.139011,65.7120314 C118.675417,58.8101399 121.309306,51.8339092 126.474471,47.0655064 C132.728011,41.1188503 141.61933,39.0985712 150.005854,38.8483442 C158.872857,38.7691462 167.740834,38.8114175 176.612214,38.8153046 C176.647229,48.1635898 176.647229,57.5128467 176.608324,66.8611319 C170.875142,66.8514144 165.138555,66.8723071 159.405374,66.848985 C155.773564,66.6220801 152.040114,69.3745768 151.379211,72.9754158 C151.293133,79.23109 151.348086,85.4901653 151.351491,91.7438961 C159.757466,91.7793651 168.166847,91.7341785 176.572822,91.7652747 C175.958119,100.816689 174.831324,109.824374 173.516325,118.798047 C166.089304,118.864612 158.657419,119.533666 151.234288,119.576423 C151.171554,144.956726 151.253741,174.186637 151.189061,200.424028 L169.94336,200.424028 C187.649161,200.424028 200.756356,184.598022 200.756356,166.90819 L200.756356,30.7852053 C200.756842,13.0953733 187.649647,0.242938805 169.943846,0.242938805 Z" id="Shape"></path>
        </g>
    </g>
</svg>