
<svg width="201px" height="201px" viewBox="0 0 201 201" version="1.1" xmlns="http://www.w3.org/2000/svg" xmlns:xlink="http://www.w3.org/1999/xlink">
    <!-- Generator: Sketch 43.2 (39069) - http://www.bohemiancoding.com/sketch -->
    <desc>Created with Sketch.</desc>
    <defs></defs>
    <g id="Page-1" stroke="none" stroke-width="1" fill="none" fill-rule="evenodd">
        <g id="img_264468" fill-rule="nonzero" fill="#FFFFFF">
            <path d="M186.109592,0 L14.8288776,0 C6.64530612,0 0,6.48122449 0,14.4802041 L0,186.499286 C0,194.498265 6.64530612,201 14.8288776,201 L186.109592,201 C194.313673,201 201,194.498265 201,186.499286 L201,14.4802041 C201,6.48122449 194.313673,0 186.109592,0 Z M59.6231633,171.280714 L29.7808163,171.280714 L29.7808163,75.3544898 L59.6026531,75.3544898 L59.6026531,171.280714 L59.6231633,171.280714 Z M44.6917347,62.2484694 C35.1339796,62.2484694 27.4016327,54.4956122 27.4016327,44.9583673 C27.4016327,35.4211224 35.1339796,27.6887755 44.6917347,27.6887755 C54.2289796,27.6887755 61.9613265,35.4416327 61.9613265,44.9583673 C61.9818367,54.4956122 54.2289796,62.2484694 44.6917347,62.2484694 Z M171.260204,171.280714 L141.499898,171.280714 L141.499898,124.64051 C141.499898,113.503469 141.274286,99.2078571 125.994184,99.2078571 C110.467959,99.2078571 108.109286,111.329388 108.109286,123.840612 L108.109286,171.301224 L78.3079592,171.301224 L78.3079592,75.3544898 L106.899184,75.3544898 L106.899184,88.4605102 L107.309388,88.4605102 C111.288367,80.9127551 121.010204,72.9753061 135.531429,72.9753061 C165.701939,72.9753061 171.260204,92.8291837 171.260204,118.672041 L171.260204,171.280714 L171.260204,171.280714 Z" id="Shape"></path>
        </g>
    </g>
</svg>