
<svg width="201px" height="170px" viewBox="0 0 201 170" version="1.1" xmlns="http://www.w3.org/2000/svg" xmlns:xlink="http://www.w3.org/1999/xlink">
    <!-- Generator: Sketch 43.2 (39069) - http://www.bohemiancoding.com/sketch -->
    <desc>Created with Sketch.</desc>
    <defs></defs>
    <g id="Page-1" stroke="none" stroke-width="1" fill="none" fill-rule="evenodd">
        <g id="img_2976" fill-rule="nonzero" fill="#FFFFFF">
            <path d="M66.9658163,31.7879518 L66.9658163,163.179518 C66.9658163,165.043373 66.4940816,166.640964 65.5711224,167.931325 C64.6481633,169.221687 63.2739796,169.89759 61.4690816,169.89759 C60.197449,169.89759 58.9668367,169.590361 57.7772449,168.996386 L5.59928571,142.90241 C4.02,142.16506 2.70734694,140.895181 1.62030612,139.154217 C0.533265306,137.413253 0,135.672289 0,133.951807 L0,6.24698795 C0,4.75180723 0.369183673,3.48192771 1.12806122,2.4373494 C1.86642857,1.39277108 2.95346939,0.860240964 4.38918367,0.860240964 C5.43520408,0.860240964 7.07602041,1.41325301 9.33214286,2.53975904 L66.6581633,31.2144578 C66.8427551,31.460241 66.9658163,31.6445783 66.9658163,31.7879518 L66.9658163,31.7879518 Z M74.1443878,43.1144578 L134.034184,140.116867 L74.1443878,110.315663 L74.1443878,43.1144578 Z M201,45.1216867 L201,163.179518 C201,165.043373 200.466735,166.559036 199.420714,167.706024 C198.374694,168.873494 196.95949,169.446988 195.154592,169.446988 C193.349694,169.446988 191.606327,168.955422 189.883469,167.992771 L140.433367,143.353012 L201,45.1216867 Z M200.671837,31.6855422 C200.671837,31.9108434 191.073061,47.5795181 171.89602,78.6710843 C152.71898,109.783133 141.479388,127.971084 138.197755,133.275904 L94.4494898,62.2650602 L130.793571,3.23614458 C132.065204,1.14698795 134.013673,0.102409639 136.618469,0.102409639 C137.66449,0.102409639 138.628469,0.327710843 139.530918,0.778313253 L200.220612,31.0301205 C200.507755,31.153012 200.671837,31.3783133 200.671837,31.6855422 L200.671837,31.6855422 Z" id="Shape"></path>
        </g>
    </g>
</svg>