
<svg width="208px" height="168px" viewBox="0 0 208 168" version="1.1" xmlns="http://www.w3.org/2000/svg" xmlns:xlink="http://www.w3.org/1999/xlink">
    <!-- Generator: Sketch 43.2 (39069) - http://www.bohemiancoding.com/sketch -->
    <desc>Created with Sketch.</desc>
    <defs></defs>
    <g id="Page-1" stroke="none" stroke-width="1" fill="none" fill-rule="evenodd">
        <g id="twitter" fill-rule="nonzero" fill="#FFFFFF">
            <path d="M186.501996,47.2672905 C186.501996,103.175728 143.665723,167.595145 65.3744,167.595145 C41.2544237,167.595145 18.8478243,160.655641 6.17210683e-05,148.609918 C3.42681543,149.00294 6.72210326,149.133539 10.2809401,149.133539 C30.1828985,149.133539 48.5035632,142.455845 63.1339252,131.064955 C44.4176285,130.672546 28.7330706,118.494999 23.3293911,101.735466 C25.9654979,102.128488 28.6016047,102.390298 31.3691774,102.390298 C35.1915632,102.390298 39.013949,101.866677 42.5727858,100.950035 C23.0658421,97.0222686 8.43548012,80.0009255 8.43548012,59.4442248 L8.43548012,58.9206044 C14.1033258,62.0629401 20.6932843,64.0268234 27.6788748,64.2886336 C16.2117175,56.6942978 8.69902908,43.7319328 8.69902908,29.0674949 C8.69902908,21.2113489 10.808038,14.010035 14.4983407,7.7253635 C35.4551122,33.3882832 66.9556938,50.1478161 102.279278,51.9804876 C101.620097,48.8381518 101.225082,45.5652175 101.225082,42.2916701 C101.225082,18.9856555 120.204928,-0.000183941606 143.797189,-0.000183941606 C156.055611,-0.000183941606 167.126519,5.10664818 174.903373,13.3552029 C184.525071,11.5219182 193.751136,7.98717372 201.922388,3.14215182 C198.759183,12.9627942 192.037759,21.2113489 183.206709,26.4487796 C191.77421,25.5321372 200.077545,23.1752321 207.722317,19.9016847 C201.922388,28.2814511 194.673249,35.7451883 186.369913,41.7680496 C186.501996,43.6007212 186.501996,45.4340058 186.501996,47.2672905 Z" id="Shape"></path>
        </g>
    </g>
</svg>