<svg xmlns="http://www.w3.org/2000/svg" width="512" height="512" viewBox="0 0 512 512">
	<path fill="#004A65" d="M461.16 269.16c0-3.047 2.365-5.55 5.255-5.55 2.89 0 5.227 2.503 5.227 5.55 0 3.092-2.337 5.58-5.227 5.58s-5.255-2.488-5.255-5.58zm9.724 0c0-2.6-1.945-4.79-4.47-4.79-2.543 0-4.487 2.19-4.487 4.79 0 2.72 1.944 4.816 4.488 4.816 2.524 0 4.47-2.097 4.47-4.815zm-1.88 3.12h-.97l-1.75-2.817h-1.233v2.818h-.82v-6.22h2.68c.52 0 1.04.03 1.5.32.46.26.69.82.69 1.34 0 1.23-.85 1.73-1.94 1.76l1.86 2.82zm-2.878-3.464c1.504 0 2.112-.143 2.112-1.12 0-.88-.822-.996-1.505-.996h-1.682v2.116h1.08zm-235.908-6.442c-9.51 0-16.682 7.014-16.682 16.313 0 9.548 7.393 16.476 17.582 16.476 6.036 0 11.092-2.197 14.627-6.36l.208-.243-3.423-3.71-.265.265c-3.514 3.512-6.456 4.82-10.86 4.82-6.147 0-12.76-3.495-12.76-11.167 0-6.49 4.97-11.202 11.817-11.202 3.826 0 7.207 1.402 10.965 4.548l.232.195 3.85-3.29-.29-.28c-4.31-4.17-9.5-6.38-15.02-6.38zm44.127 0c-9.51 0-16.683 7.014-16.683 16.313 0 9.548 7.395 16.476 17.583 16.476 6.037 0 11.092-2.197 14.627-6.36l.206-.243-3.42-3.71-.268.265c-3.51 3.512-6.455 4.82-10.857 4.82-6.147 0-12.76-3.495-12.76-11.167 0-6.49 4.97-11.202 11.816-11.202 3.82 0 7.2 1.402 10.96 4.548l.23.195 3.85-3.29-.29-.28c-4.303-4.17-9.494-6.38-15.01-6.38zm29.735.7v19.383c0 2.602.135 4.95 1.786 7.382 3.18 4.69 9.325 5.2 11.82 5.2 3.14 0 8.864-.6 11.888-4.57 2.09-2.7 2.25-5.02 2.25-8.02v-19.38h-5.108v19.38c0 5.32-2.337 7.39-8.33 7.39-3.628 0-6.093-.706-7.54-2.15-1.5-1.506-1.616-3.124-1.616-5.248v-19.38h-5.15zm66.464 31.352h5.852l-6.413-12.958.13-.037c4.358-1.25 6.762-4.42 6.762-8.93 0-5.7-3.928-9.38-9.998-9.38h-18.484v31.31h5.19v-12.68h10.807l6.154 12.68zm-3.667-17.86h-13.295v-8.304h13.295c2.208 0 4.845.69 4.845 3.985 0 3.757-3.04 4.32-4.845 4.32zm47.56 17.86h5.787l-14.017-31.395h-5.386l-14.23 31.4h5.64l4.56-10.09h13.26l4.4 10.09zm-6.725-15.32h-8.555l4.272-9.43 4.28 9.43zm-209.974 15.32h5.794l-14.017-31.395h-5.387l-14.228 31.4h5.63l4.553-10.09h13.268l4.39 10.09zm-6.72-15.32h-8.56l4.28-9.43 4.28 9.43zm245.765 15.32h5.152l-.028-13.418 12.998-17.895h-6.425l-9.04 12.7-9.164-12.7h-6.256l12.735 17.752.028 13.56z"/>
	<path fill="#007D68" d="M65.868 217.065H40l102.306 59.873-76.438-59.873z"/>
	<path fill="#621A4C" d="M92.373 217.065h-17.62l67.552 59.873-49.932-59.873z"/>
	<path fill="#004A65" d="M169.158 238.654c-.872-7.55-13.267-11.88-34.007-11.88-7.71 0-15.95.623-24.49 1.853-.58.083-1.16.173-1.73.263l-1.62.252 3.63 4.462c7.633-.662 14.82-1.003 21.37-1.003 23.73 0 25.803 2.94 26.023 4.31.56 4.68-16.983 14.64-45.75 19.62-9.17 1.59-18.204 2.43-26.133 2.43-17.985 0-22.498-4-22.69-5.55-.27-2.12 1.94-4.84 3.92-6.6l1.186-1.06-4.26-2.552c-2.81 2.11-8.645 7.076-8.192 11.67.75 7.57 13.27 11.886 34.007 11.886h.005c7.715 0 15.96-.626 24.5-1.856 2.98-.43 6.04-.955 9.1-1.554 1.77-.35 3.548-.727 5.276-1.124 20.06-4.58 41.07-13.17 39.87-23.55z"/>
</svg>
