<svg xmlns="http://www.w3.org/2000/svg" viewBox="0 0 512 512">
  <path fill-rule="evenodd" d="M324.01 263.818c.35 37.832 33.19 50.422 33.552 50.583-.278.89-5.247 17.95-17.3 35.56-10.42 15.23-21.235 30.41-38.27 30.72-16.74.31-22.123-9.92-41.262-9.92-19.132 0-25.112 9.614-40.958 10.236-16.445.623-28.967-16.47-39.473-31.642-21.47-31.036-37.88-87.704-15.85-125.956 10.94-18.997 30.5-31.025 51.73-31.334 16.14-.31 31.39 10.863 41.26 10.863 9.86 0 28.38-13.437 47.86-11.46 8.15.335 31.03 3.29 45.72 24.794-1.19.734-27.3 15.938-27.02 47.57m-31.46-92.903c8.73-10.565 14.602-25.28 13-39.914-12.58.507-27.8 8.387-36.828 18.948-8.09 9.354-15.174 24.325-13.263 38.67 14.026 1.087 28.354-7.125 37.086-17.7"/>
</svg>