<svg xmlns="http://www.w3.org/2000/svg" viewBox="0 0 512 512">
  <g fill="none" fill-rule="evenodd">
    <path fill="#231F20" d="M40.073 280.87v-50.748h53.52s4.95 0 7.07 2.403c2.12 2.404 2.708 4.907 2.85 8.16.14 3.254-1.156 6.578-3.016 8.49 0 0-1.578 1.558-3.98 2.426 0 0 3.838 1.49 5.558 3.54 1.05 1.26 3.156 2.91 3.416 10.19.26 7.29-3.55 11.23-4.24 12.03-.68.81-3.98 3.52-9.56 3.52H40.08zm39.105-36.198h-17.21v4.28H79.53c.255 0 .685-.036 1.203-.5.605-.533.625-1.306.625-1.588 0-.28-.06-1.05-.66-1.664-.6-.61-1.52-.528-1.52-.528zm3.274 18.143H61.97v4.174h20.894c.19 0 .684-.07 1.05-.41.637-.6.67-1.45.67-1.66 0-.2.106-.93-.518-1.56-.625-.63-1.614-.56-1.614-.56zm34.05 18.055v-50.766h48.77c6.267.276 8.93 1.994 11.05 3.905 2.12 1.91 4.1 6.32 3.936 10.73-.165 4.41-1.248 8.28-4.217 11.34-2.96 3.06-7.65 3.58-7.65 3.58l12.91 21.2h-23.75l-11.59-19.3h-7.91v19.29h-21.54zm21.54-31.92h17.575s.872-.07 1.306-.52c.427-.435.568-1.062.568-1.554 0-.5-.04-.956-.56-1.56-.51-.597-1.47-.586-1.47-.586h-17.41v4.22zm52.04-18.846h21.767v30.888s.02 2.826 1.51 3.957c1.48 1.13 3.01 2.22 7.58 2.22s6.61-1.75 6.9-2.15c.28-.4 1.34-.94 1.48-3.45.14-2.5 0-31.48 0-31.48h20.49v32.44s.02 7.38-4.62 11.62c0 0-3.42 3.56-9.41 5.18 0 0-7.48 2.3-15.31 2.17-6.58-.11-11.19-.51-18.1-2.904-5.464-1.894-7.847-4.415-8.198-4.79-.354-.376-4.195-3.583-4.125-12.265V230.1m73.305 50.837h20.37v-14.69l6.925-5.522 13.268 20.213h25.63L307.2 248.18l20.284-18.08h-27.446l-16.28 16.458V230.1h-20.37m72.543 50.7v-50.69h59.05v13.958h-37.4v3.646h28.62v13.853h-28.62v3.634h37.41v15.6m11.87.07v-50.76h48.77c6.27.28 8.93 2 11.05 3.91 2.12 1.91 4.1 6.33 3.94 10.73-.16 4.41-1.24 8.28-4.21 11.35-2.97 3.07-7.65 3.59-7.65 3.59l12.91 21.21H447.9l-11.59-19.29h-7.917v19.29h-21.54zm21.54-31.92h17.57s.87-.07 1.31-.52c.43-.43.57-1.06.57-1.55 0-.5-.04-.95-.56-1.56-.52-.59-1.47-.58-1.47-.58H428.4v4.22z"/>
    <path fill="#0071BC" d="M131.17 226.54s-38.302-51.687-16.748-73.335c17.187-16.913 64.723-10.324 109.52 11.226 57.818 28.58 79.666 51.03 96.56 62.11.368.16-10.628 0-10.628 0-58.84-48.11-158.82-98.76-190.354-67.79-17.477 17.79 23.302 63.28 25.012 67.8H131.17"/>
    <path fill="#0071BC" d="M196.712 226.54c84.76-70.275 135.15-80.552 174.184-80.552 36.844 0 38.01 24.862 38.155 28.865.66 17.94-12.08 37.694-21.26 51.687h-8.45c7.14-9.18 34.52-45.197 18.79-63.13-13.42-15.306-59.27-7.433-93.35 7.434-32.91 11.958-75 41.85-89.24 55.696 0 0-18.94.094-18.82 0m-22.8-73.06c0-7.216 5.85-13.067 13.05-13.067 7.21 0 13.06 5.85 13.06 13.067 0 7.216-5.84 13.067-13.05 13.067-7.21 0-13.05-5.85-13.05-13.067m-42.75 131.306s-38.3 51.687-16.75 73.336c17.19 16.918 64.73 10.323 109.52-11.226 57.82-28.572 79.67-51.03 96.56-62.11.37-.158-10.62 0-10.62 0-58.84 48.117-158.82 98.772-190.35 67.796-17.48-17.785 23.3-63.276 25.01-67.796h-13.36"/>
    <path fill="#0071BC" d="M196.712 284.786c84.76 70.276 135.15 80.558 174.184 80.558 36.844 0 38.01-24.86 38.155-28.87.66-17.933-12.08-37.688-21.26-51.688h-8.45c7.14 9.186 34.52 45.198 18.79 63.13-13.42 15.306-59.27 7.44-93.35-7.433-32.91-11.96-75-41.844-89.24-55.697 0 0-18.94-.093-18.82 0m-22.8 73.066c0-7.216 5.85-13.067 13.05-13.067 7.21 0 13.06 5.85 13.06 13.067 0 7.216-5.84 13.067-13.05 13.067-7.21 0-13.05-5.86-13.05-13.07"/>
  </g>
</svg>
