<?xml version="1.0" encoding="UTF-8" standalone="no"?>
<svg width="512px" height="512px" viewBox="0 0 512 512" version="1.1" xmlns="http://www.w3.org/2000/svg" xmlns:xlink="http://www.w3.org/1999/xlink">
    <!-- Generator: Sketch 3.6 (26304) - http://www.bohemiancoding.com/sketch -->
    <title>catbird</title>
    <desc>Created with Sketch.</desc>
    <defs></defs>
    <g id="Client-Section" stroke="none" stroke-width="1" fill="none" fill-rule="evenodd">
        <g id="catbird">
            <g id="Catbird" transform="translate(67.000000, 131.000000)">
                <g id="Logo" transform="translate(36.332180, 0.000000)" fill="#6A0B29">
                    <path d="M285.465622,1.23702422 C262.724272,26.0388312 231.760645,30.6359093 200.168181,36.9775087 C181.214599,40.1472511 167.961627,50.3817762 156.905898,66.236832 C156.069555,65.3994617 155.041507,64.5642061 153.91234,63.7585544 L156.863765,78.3935025 C156.863765,78.3935025 145.52153,93.7199154 143.452794,101.499423 C141.040673,93.7199154 129.668945,78.3935025 129.668945,78.3935025 L132.60141,63.8262207 C131.508055,64.6128412 130.51582,65.422722 129.704758,66.236832 C118.649028,50.3817762 105.396056,40.1472511 86.4403674,36.9775087 C54.8510635,30.6359093 23.8874364,26.0388312 1.14608691,1.23702422 C-3.2252239,-3.52921953 17.7022949,11.2114571 49.3526918,9.69319493 C73.0715296,8.55555556 84.8835487,4.12552864 108.55604,5.99692426 C122.14397,7.07112649 127.92042,9.55151865 136.740988,12.3913879 C138.33994,10.674356 140.524542,9.16666667 143.286368,9.16666667 C146.05662,9.16666667 148.241222,10.6785852 149.842281,12.3998462 C158.677595,9.55786236 164.451939,7.07324106 178.054615,5.99692426 C201.727107,4.12552864 213.540179,8.55555556 237.259017,9.69319493 C268.909414,11.2114571 289.836933,-3.52921953 285.465622,1.23702422 Z M153.068624,17.3532295 C153.068624,17.3532295 145.069652,29.0298923 143.304274,34.5912149 C140.904793,28.9135909 133.542031,17.3532295 133.542031,17.3532295 L143.304274,28.2094387 L153.068624,17.3532295 Z" id="Path"></path>
                </g>
                <g id="Logotype" transform="translate(0.000000, 132.352941)">
                    <path d="M15.4685074,35.6092198 C15.4685074,38.7605235 15.657268,41.3242959 16.0383506,43.3076587 C16.4158718,45.2910216 17.1317373,46.8506498 18.1823857,47.9865434 C19.2294726,49.1259978 20.6612036,49.8986904 22.4668942,50.304621 C24.2761464,50.7141124 26.5804498,50.9170777 29.3798045,50.9170777 L35.7228717,50.9170777 C36.9765267,50.9170777 38.4225038,50.9063953 40.05368,50.8743482 C41.6884177,50.8458618 43.5831463,50.8031323 45.7414274,50.7425988 L43.3801397,62.9027138 C39.7616353,63.0202201 36.8768041,63.0771928 34.718523,63.0771928 L28.5927086,63.0771928 C23.4000125,63.0771928 19.0122198,62.5964855 15.4257692,61.6350708 C11.835757,60.6736562 8.93311824,59.1140279 6.7178528,56.9526253 C4.50258736,54.7983443 2.91414944,51.9532691 1.94897752,48.4245212 C0.987367125,44.8993341 0.506561925,40.5373602 0.506561925,35.345721 L0.506561925,28.0852599 C0.506561925,22.9541543 1.01585928,18.6384707 2.03801552,15.1382091 C3.05661024,11.6415084 4.67710184,8.79643317 6.89236728,6.61010501 C9.11119424,4.42377686 12.013833,2.84634465 15.6002837,1.88492999 C19.1867343,0.92351533 23.5175426,0.442807999 28.5927086,0.442807999 L35.0248137,0.442807999 C36.3354531,0.442807999 39.2024767,0.457051179 40.8657065,0.485537539 C42.5289364,0.517584695 44.4379111,0.560314235 46.5961922,0.617286956 L44.2349045,12.777402 C42.0766233,12.7204293 39.8150581,12.674139 37.4537704,12.6456526 C35.0924826,12.6171663 31.4205555,12.6029231 29.2052901,12.6029231 C26.3453895,12.6029231 24.02684,12.8094492 22.2496415,13.2153798 C20.4688815,13.6248712 19.0692042,14.3833206 18.0506094,15.4907279 C17.0284532,16.5981351 16.3446414,18.1435202 15.9920509,20.126883 C15.6430219,22.1102458 15.4685074,24.7060654 15.4685074,27.910781 L15.4685074,35.6092198 Z" id="Fill-1" fill="#3F4D57"></path>
                    <path d="M71.9039972,36.5713467 L87.3040096,36.5713467 L79.5149654,13.3905709 L71.9039972,36.5713467 Z M90.8049838,47.8555062 L68.403023,47.8555062 L63.505933,62.903426 L48.9784929,62.903426 L71.4659302,0.617999115 L88.4401345,0.617999115 L111.01661,62.903426 L95.8801498,62.903426 L90.8049838,47.8555062 Z" id="Fill-3" fill="#3F4D57"></path>
                    <path d="M159.751381,0.617286956 L157.390093,12.777402 L138.663621,12.777402 L138.663621,62.9027138 L124.228781,62.9027138 L124.228781,12.777402 L103.404573,12.777402 L105.680384,0.617286956 L159.751381,0.617286956 Z" id="Fill-4" fill="#3F4D57"></path>
                    <path d="M179.525652,51.8802728 L192.73533,51.8802728 C195.826729,51.8802728 197.999257,51.3710791 199.256473,50.3491309 C200.510128,49.3307435 201.136956,47.447083 201.136956,44.7052708 L201.136956,43.5693772 C201.136956,40.7705923 200.481636,38.8335198 199.167435,37.7545989 C197.856796,36.6721172 195.595231,36.1344371 192.386301,36.1344371 L179.525652,36.1344371 L179.525652,51.8802728 Z M179.525652,11.639728 L179.525652,25.1992355 L191.688243,25.1992355 C194.544582,25.1992355 196.556841,24.6722379 197.725019,23.6253641 C198.889637,22.5749296 199.473726,20.9120383 199.473726,18.6366903 L199.473726,17.5898165 C199.473726,15.4889475 198.935936,13.9720488 197.856796,13.0391205 C196.777655,12.1061922 194.925665,11.639728 192.300825,11.639728 L179.525652,11.639728 Z M165.963384,0.619067353 L194.573074,0.619067353 C201.108463,0.619067353 205.877339,1.90095357 208.8797,4.46828679 C211.885623,7.03205923 213.388584,10.9133258 213.388584,16.1014042 L213.388584,17.0628189 C213.388584,23.4793715 210.820729,27.7665688 205.688578,29.9244106 C208.662447,30.9143116 210.980997,32.5772029 212.644227,34.9095236 C214.307457,37.2418444 215.137291,40.3326145 215.137291,44.1818339 L215.137291,45.7557053 C215.137291,51.7627666 213.313793,56.1211797 209.666796,58.8345055 C206.023361,61.5478313 200.727381,62.9044942 193.78954,62.9044942 L165.963384,62.9044942 L165.963384,0.619067353 Z" id="Fill-5" fill="#3F4D57"></path>
                    <path d="M222.658509,62.9037821 L237.096911,62.9037821 L237.096911,0.618355194 L222.658509,0.618355194 L222.658509,62.9037821 Z" id="Fill-6" fill="#3F4D57"></path>
                    <path d="M281.808589,20.5630804 C281.808589,18.9322363 281.634074,17.5755733 281.281484,16.4966525 C280.932455,15.4141708 280.376858,14.5702623 279.621816,13.9578056 C278.863212,13.3453488 277.855302,12.9216142 276.601647,12.6901625 C275.347992,12.4587109 273.788046,12.3412046 271.921809,12.3412046 L261.33341,12.3412046 L261.33341,29.6609117 L271.921809,29.6609117 C273.788046,29.6609117 275.347992,29.5434055 276.601647,29.3119538 C277.855302,29.0805021 278.863212,28.6425243 279.621816,27.9980204 C280.376858,27.3570773 280.932455,26.4989257 281.281484,25.416444 C281.634074,24.3410839 281.808589,22.9559347 281.808589,21.2609962 L281.808589,20.5630804 Z M295.983439,22.0514927 C295.983439,26.598628 295.032513,30.2306389 293.137784,32.940404 C291.243055,35.6537298 288.486439,37.6513358 284.871496,38.933222 L298.957308,62.9044942 L283.119228,62.9044942 L271.22019,41.0340911 L261.33341,41.0340911 L261.33341,62.9044942 L247.247599,62.9044942 L247.247599,0.619067353 L272.356315,0.619067353 C276.558908,0.619067353 280.145359,0.968025268 283.119228,1.6659411 C286.096659,2.36741772 288.529177,3.47482498 290.427467,4.99172367 C292.322196,6.50862235 293.721873,8.47774201 294.626499,10.8955218 C295.531126,13.3168625 295.983439,16.2473968 295.983439,19.6871248 L295.983439,22.0514927 Z" id="Fill-7" fill="#3F4D57"></path>
                    <path d="M318.907162,50.8305504 L329.317485,50.8305504 C331.885341,50.8305504 334.043622,50.6133419 335.792328,50.1753641 C337.544596,49.7373863 338.95852,48.9504506 340.03766,47.8109962 C341.116801,46.6751026 341.889651,45.1012312 342.35621,43.089382 C342.822769,41.0775328 343.054268,38.4959564 343.054268,35.3482136 L343.054268,28.0877525 C343.054268,24.9364489 342.822769,22.3691156 342.35621,20.3857528 C341.889651,18.4059508 341.116801,16.8463225 340.03766,15.7068681 C338.95852,14.5709745 337.544596,13.7840388 335.792328,13.346061 C334.043622,12.9080832 331.885341,12.6908747 329.317485,12.6908747 L318.907162,12.6908747 L318.907162,50.8305504 Z M304.732312,0.616218717 L330.457171,0.616218717 C335.824382,0.616218717 340.286967,1.18594592 343.844925,2.32183954 C347.399322,3.46129396 350.23073,5.16691478 352.332027,7.44226281 C354.429762,9.71405005 355.904232,12.5591253 356.7476,15.9703669 C357.595241,19.3816086 358.019062,23.3910638 358.019062,27.9987326 L358.019062,35.4336726 C358.019062,39.927396 357.595241,43.8763177 356.7476,47.2875593 C355.904232,50.698801 354.429762,53.5723626 352.332027,55.9046834 C350.23073,58.2370041 347.431376,59.9853545 343.930402,61.1532952 C340.432989,62.321236 336.027389,62.9016456 330.717162,62.9016456 L304.732312,62.9016456 L304.732312,0.616218717 Z" id="Fill-8" fill="#3F4D57"></path>
                    <path d="M232.087277,114.69697 C232.087277,115.9931 208.435222,117.043534 179.262812,117.043534 C150.08684,117.043534 126.438348,115.9931 126.438348,114.69697 C126.438348,113.400841 150.08684,112.350406 179.262812,112.350406 C208.435222,112.350406 232.087277,113.400841 232.087277,114.69697" id="Fill-9" fill="#6A0B29"></path>
                    <path d="M368.091041,7.61852217 L368.863891,7.61852217 C369.764955,7.61852217 370.498628,7.31941539 370.498628,6.58589161 C370.498628,5.9449485 370.024946,5.5140923 368.992105,5.5140923 C368.564723,5.5140923 368.261994,5.55682184 368.091041,5.60311218 L368.091041,7.61852217 Z M368.048303,11.6137342 L366.417126,11.6137342 L366.417126,4.57048161 C367.061762,4.4387322 367.962826,4.35327311 369.123882,4.35327311 C370.45589,4.35327311 371.054226,4.57048161 371.570646,4.8695884 C371.958852,5.17225597 372.258019,5.72774 372.258019,6.41497344 C372.258019,7.18766597 371.656122,7.78944033 370.797796,8.04937837 L370.797796,8.13483745 C371.485169,8.39121469 371.873375,8.90752998 372.087066,9.85114066 C372.300758,10.9265008 372.428972,11.3537962 372.599925,11.6137342 L370.840534,11.6137342 C370.623282,11.3537962 370.498628,10.7092923 370.281376,9.8938702 C370.153161,9.12117768 369.722217,8.77934135 368.821152,8.77934135 L368.048303,8.77934135 L368.048303,11.6137342 Z M363.710371,7.92118975 C363.710371,11.0546894 366.028921,13.5472459 369.209358,13.5472459 C372.300758,13.5472459 374.576569,11.0546894 374.576569,7.96035849 C374.576569,4.82685886 372.300758,2.29157279 369.16662,2.29157279 C366.028921,2.29157279 363.710371,4.82685886 363.710371,7.92118975 L363.710371,7.92118975 Z M376.382259,7.92118975 C376.382259,11.912841 373.24456,15.0463406 369.16662,15.0463406 C365.127856,15.0463406 361.904681,11.912841 361.904681,7.92118975 C361.904681,4.01143679 365.127856,0.877937153 369.16662,0.877937153 C373.24456,0.877937153 376.382259,4.01143679 376.382259,7.92118975 L376.382259,7.92118975 Z" id="Fill-10" fill="#3F4D57"></path>
                </g>
            </g>
        </g>
    </g>
</svg>