<svg xmlns="http://www.w3.org/2000/svg" viewBox="0 0 512 512" xmlns:xlink="http://www.w3.org/1999/xlink">
  <defs>
    <path id="a" d="M.033.52h459.964v70.883H.033V.52z"/>
  </defs>
  <g fill="none" fill-rule="evenodd">
    <path fill="#4E4F4F" d="M245.896 254.113c0 2.07.124 3.76.373 5.063.24 1.304.71 2.33 1.4 3.078.69.748 1.62 1.256 2.81 1.524 1.18.27 2.69.404 4.53.404h4.16c.82 0 1.76-.01 2.83-.03 1.07-.018 2.31-.047 3.73-.086l-1.55 7.998c-2.37.076-4.27.115-5.68.115h-4.02c-3.41 0-6.28-.32-8.63-.95-2.36-.64-4.26-1.66-5.71-3.08-1.45-1.42-2.5-3.29-3.13-5.61-.63-2.32-.95-5.19-.95-8.6v-4.78c0-3.38.33-6.22 1-8.52.67-2.3 1.73-4.17 3.18-5.61 1.45-1.44 3.35-2.48 5.7-3.11 2.35-.64 5.19-.95 8.51-.95h4.21c.86 0 2.74.01 3.83.03 1.09.02 2.34.05 3.755.08l-1.55 7.99c-1.42-.04-2.9-.07-4.45-.09-1.55-.02-3.95-.03-5.404-.03-1.87 0-3.392.13-4.56.4-1.164.27-2.082.76-2.75 1.49-.67.73-1.117 1.74-1.35 3.05-.227 1.3-.34 3.01-.34 5.12v5.06m37 .65h10.23l-5.17-15.34-5.056 15.33zm12.55 7.46h-14.87l-3.253 9.95h-9.64l14.93-41.19h11.272l14.99 41.19H298.8l-3.373-9.96zm46.374-31.24l-1.554 8.04H327.9v33.15h-9.5V239h-13.7l1.497-8.042h35.58M355 264.864h8.85c2.076 0 3.53-.337 4.37-1.01.84-.67 1.26-1.917 1.26-3.73v-.75c0-1.855-.44-3.136-1.32-3.85-.88-.713-2.39-1.07-4.54-1.07H355v10.415zm0-26.613v8.97h8.15c1.913 0 3.26-.35 4.045-1.04.78-.69 1.17-1.79 1.17-3.29v-.69c0-1.39-.37-2.39-1.09-3.01-.728-.61-1.97-.92-3.728-.92H355zm-9.09-7.29h19.18c4.38 0 7.575.85 9.59 2.55 2.01 1.7 3.02 4.27 3.02 7.7v.64c0 4.25-1.72 7.08-5.16 8.51 1.99.66 3.547 1.76 4.66 3.3 1.114 1.55 1.67 3.59 1.67 6.14v1.04c0 3.97-1.22 6.86-3.663 8.65-2.44 1.8-5.99 2.69-10.64 2.69h-18.65v-41.19zm37.073 0h9.612v41.2H383v-41.19zm39.42 13.19c0-1.08-.115-1.97-.35-2.69-.23-.71-.6-1.27-1.1-1.68-.505-.4-1.173-.68-2.005-.83-.837-.15-1.87-.23-3.11-.23h-7.03v11.46h7.03c1.236 0 2.27-.08 3.105-.23.83-.15 1.5-.44 2.004-.87.5-.42.87-.99 1.1-1.7.234-.71.35-1.63.35-2.74v-.463zm9.41.99c0 3.01-.63 5.41-1.887 7.21-1.26 1.8-3.09 3.12-5.49 3.97l9.356 15.85h-10.5l-7.9-14.46h-6.564v14.47h-9.35v-41.19h16.67c2.787 0 5.168.23 7.143.69 1.98.47 3.59 1.2 4.85 2.2 1.26 1.01 2.19 2.31 2.79 3.91.6 1.6.9 3.54.9 5.816v1.56z"/>
    <g transform="translate(26 220)">
      <mask id="b" fill="#fff">
        <use xlink:href="#a"/>
      </mask>
      <path fill="#4E4F4F" d="M421.745 43.978h6.93c1.71 0 3.145-.145 4.31-.437 1.164-.29 2.105-.81 2.824-1.57.71-.75 1.23-1.8 1.54-3.14.31-1.34.46-3.06.46-5.15v-4.84c0-2.1-.16-3.8-.47-5.13-.31-1.32-.83-2.36-1.55-3.11-.72-.76-1.66-1.28-2.83-1.57-1.17-.29-2.6-.43-4.31-.43h-6.93V44zm-9.433-33.446h17.12c3.572 0 6.542.38 8.91 1.137 2.368.75 4.25 1.89 5.65 3.4 1.396 1.51 2.376 3.41 2.94 5.68.562 2.27.843 4.94.843 8.01v4.95c0 2.99-.28 5.62-.843 7.89-.564 2.27-1.544 4.18-2.94 5.74-1.4 1.55-3.263 2.72-5.592 3.49-2.33.78-5.26 1.16-8.793 1.16h-17.295V10.53z" mask="url(#b)"/>
      <path fill="#66232A" d="M166.276 7.11c-16.662-.796-24.96-3.898-41.59-2.587-9.557.753-13.613 2.493-19.82 4.484-1.124-1.206-2.66-2.264-4.606-2.264-1.94 0-3.475 1.054-4.598 2.258-6.197-1.98-10.255-3.72-19.8-4.47-16.63-1.31-24.93 1.79-41.59 2.59C12.035 8.18-2.668-2.15.404 1.19c15.976 17.368 37.728 20.586 59.92 25.028 13.317 2.22 22.627 9.387 30.394 20.49.57-.57 1.266-1.137 2.033-1.687l-2.06 10.2s7.99 10.74 9.44 16.19h.25c1.45-5.45 9.42-16.18 9.42-16.18l-2.07-10.25c.8.57 1.52 1.15 2.11 1.74 7.77-11.1 17.08-18.27 30.39-20.49 22.2-4.44 43.95-7.66 59.92-25.03 3.07-3.34-11.63 6.99-33.86 5.92" mask="url(#b)"/>
    </g>
    <path fill="#FFF" d="M133.104 232.358l-6.865 7.783-6.87-7.78s5.18 8.29 6.86 12.36c1.24-3.98 6.86-12.36 6.86-12.36"/>
    <path fill="#4E4F4F" d="M480.495 235.558h.514c.59 0 1.08-.204 1.08-.7 0-.436-.32-.728-1-.728-.29 0-.49.03-.6.06v1.368zm-.03 2.708h-1.082v-4.776c.428-.088 1.026-.146 1.797-.146.884 0 1.283.146 1.626.35.256.203.456.582.456 1.048 0 .524-.4.932-.97 1.107v.05c.457.17.713.52.855 1.16.143.73.23 1.02.343 1.19h-1.17c-.142-.18-.228-.61-.37-1.17-.086-.52-.37-.76-.97-.76h-.514v1.92zm-2.88-2.504c0 2.126 1.54 3.816 3.652 3.816 2.053 0 3.565-1.69 3.565-3.788 0-2.126-1.512-3.844-3.594-3.844s-3.622 1.718-3.622 3.816zm8.415 0c0 2.708-2.082 4.835-4.792 4.835-2.68 0-4.82-2.127-4.82-4.835 0-2.65 2.14-4.777 4.82-4.777 2.71 0 4.792 2.127 4.792 4.777z"/>
  </g>
</svg>