<svg xmlns="http://www.w3.org/2000/svg" width="512" height="512" viewBox="0 0 512 512" xmlns:xlink="http://www.w3.org/1999/xlink">
  <defs>
    <path id="a" d="M2.548 3.294h426.47V246.26H2.547V3.294z"/>
  </defs>
  <g fill="none" fill-rule="evenodd">
    <path fill="#C4122E" d="M181.683 351.193h-17.448v-69.147h17.448v69.147z"/>
    <g transform="matrix(1 0 0 -1 40.527 380.342)">
      <mask id="b" fill="#fff">
        <use xlink:href="#a"/>
      </mask>
      <g mask="url(#b)">
        <path fill="#C4122E" d="M281.847 78.482c-.713.365-6.334 3.692-14.68 3.692-11.28 0-19.106-7.854-19.106-18.443 0-10.274 7.49-18.46 19.107-18.46 8.202 0 13.91 3.256 14.68 3.67V30.383c-2.19-.614-8.152-2.46-15.9-2.46-19.627 0-36.854 13.53-36.854 35.81 0 20.647 15.586 35.79 36.853 35.79 8.18 0 14.248-1.994 15.9-2.48V78.48zM99.72 78.482c-.703.365-6.313 3.692-14.658 3.692-11.303 0-19.123-7.854-19.123-18.443 0-10.274 7.493-18.46 19.122-18.46 8.202 0 13.905 3.256 14.657 3.67V30.383c-2.168-.614-8.12-2.46-15.913-2.46-19.615 0-36.82 13.53-36.82 35.81 0 20.647 15.586 35.79 36.82 35.79 8.213 0 14.27-1.994 15.912-2.48V78.48zM336.737 81.915c-10.352 0-18.04-8.147-18.04-18.184 0-10.058 7.688-18.2 18.04-18.2 10.34 0 18.05 8.142 18.05 18.2 0 10.038-7.71 18.185-18.05 18.185m36.538-18.184c0-19.78-15.27-35.807-36.538-35.807-21.267 0-36.516 16.028-36.516 35.808 0 19.75 15.25 35.793 36.517 35.793 21.268 0 36.538-16.044 36.538-35.792M207.326 82.578c-.26.083-7.605 2.112-13.64 2.112-6.992 0-10.794-2.344-10.794-5.665 0-4.212 5.128-5.682 7.997-6.588l4.813-1.53c11.324-3.605 16.486-11.36 16.486-19.782 0-17.37-15.277-23.207-28.63-23.207-9.28 0-17.973 1.708-18.83 1.89V45.72c1.537-.387 8.854-2.57 16.476-2.57 8.683 0 12.673 2.537 12.673 6.455 0 3.504-3.455 5.527-7.783 6.887-1.056.353-2.642.85-3.725 1.205-9.716 3.072-17.82 8.782-17.82 20.228 0 12.933 9.684 21.615 25.768 21.615 8.494 0 16.486-2.06 17.006-2.2V82.58z"/>
        <path fill="#15495D" d="M28.485 172.606c0 4.764-3.89 8.627-8.66 8.627s-8.666-3.863-8.666-8.627v-18.15c0-4.792 3.895-8.66 8.665-8.66s8.66 3.868 8.66 8.66v18.15zM76.068 196.43c0 4.764-3.89 8.638-8.66 8.638-4.776 0-8.667-3.874-8.667-8.638v-41.977c0-4.792 3.892-8.655 8.667-8.655 4.77 0 8.66 3.863 8.66 8.655v41.977zM123.65 229.024c0 4.764-3.89 8.633-8.66 8.633-4.775 0-8.666-3.87-8.666-8.633v-91.817c0-4.792 3.89-8.66 8.666-8.66 4.77 0 8.66 3.868 8.66 8.66v91.817zM171.234 196.43c0 4.764-3.89 8.638-8.66 8.638-4.776 0-8.667-3.874-8.667-8.638v-41.977c0-4.792 3.89-8.655 8.666-8.655 4.77 0 8.66 3.863 8.66 8.655v41.977zM218.763 172.606c0 4.764-3.864 8.627-8.61 8.627-4.77 0-8.662-3.863-8.662-8.627v-18.15c0-4.792 3.892-8.66 8.662-8.66 4.747 0 8.61 3.868 8.61 8.66v18.15zM266.367 196.43c0 4.764-3.863 8.638-8.633 8.638-4.764 0-8.638-3.874-8.638-8.638v-41.977c0-4.792 3.874-8.655 8.638-8.655 4.77 0 8.633 3.863 8.633 8.655v41.977zM313.982 229.024c0 4.764-3.863 8.633-8.633 8.633-4.776 0-8.64-3.87-8.64-8.633v-91.817c0-4.792 3.864-8.66 8.64-8.66 4.77 0 8.632 3.868 8.632 8.66v91.817zM361.587 196.43c0 4.764-3.864 8.638-8.744 8.638-4.77 0-8.633-3.874-8.633-8.638v-41.977c0-4.792 3.863-8.655 8.633-8.655 4.88 0 8.744 3.863 8.744 8.655v41.977zM409.094 172.606c0 4.764-3.875 8.627-8.64 8.627-4.768 0-8.643-3.863-8.643-8.627v-18.15c0-4.792 3.876-8.66 8.645-8.66 4.764 0 8.64 3.868 8.64 8.66v18.15z"/>
        <path fill="#C4122E" d="M399.11 38.256v-1.083h-3.085v-8.02h-1.266v8.02h-3.1v1.083h7.45zM399.756 38.256h1.984l2.725-7.467h.044l2.636 7.466h1.945v-9.103h-1.298v7.46h-.044l-2.763-7.46h-1.2l-2.697 7.46h-.06v-7.46h-1.272v9.103z"/>
      </g>
    </g>
  </g>
</svg>
