<?xml version="1.0" encoding="UTF-8" standalone="no"?>
<svg width="512px" height="512px" viewBox="0 0 512 512" version="1.1" xmlns="http://www.w3.org/2000/svg" xmlns:xlink="http://www.w3.org/1999/xlink">
    <!-- Generator: Sketch 3.6 (26304) - http://www.bohemiancoding.com/sketch -->
    <title>dun-bradstreet</title>
    <desc>Created with Sketch.</desc>
    <defs>
        <path id="path-1" d="M-0.000381679389,250.000763 L183.642748,250.000763 L183.642748,0.136259542 L-0.000381679389,0.136259542"></path>
    </defs>
    <g id="Client-Section" stroke="none" stroke-width="1" fill="none" fill-rule="evenodd">
        <g id="dun-bradstreet">
            <g id="Dun-&amp;-Bradstreet" transform="translate(163.000000, 131.000000)">
                <mask id="mask-2" fill="white">
                    <use xlink:href="#path-1"></use>
                </mask>
                <g id="Clip-2"></g>
                <path d="M26.5290076,15.4541985 L14.2064885,27.2557252 L31.4698473,45.129771 L43.790458,33.3301527 C55.5977099,21.9274809 74.4583969,22.230916 85.8305344,34.009542 C97.2045802,45.7881679 96.8496183,64.6480916 85.0442748,76.048855 L72.8114504,87.7645038 L90.0729008,105.63855 L102.305725,93.9248092 C123.967939,73.001145 124.59771,38.3835878 103.706489,16.7480916 C82.8133588,-4.88549618 48.1931298,-5.46564885 26.5290076,15.4541985 M165.599618,86.6003817 C177.544275,98.9687023 183.948855,115.25687 183.632061,132.461069 C183.317176,149.657634 176.324809,165.712977 163.94313,177.669084 L161.75229,179.68626 L144.364885,161.934351 L146.681679,159.795038 C154.296183,152.441985 158.593893,142.573664 158.78855,132.004962 C158.981298,121.443893 155.053817,111.449618 147.725573,103.859924 C143.532824,99.520229 138.964122,96.270229 133.460305,94.2435115 L133.460305,68.5240458 C145.628244,71.2339695 156.742748,77.4267176 165.599618,86.6003817" id="Fill-1" fill="#3F96B4" mask="url(#mask-2)"></path>
                <path d="M10.3219466,40.3320611 L180.352481,216.813359 L162.478435,234.072901 L135.63874,206.279008 L109.11584,231.891603 C96.7341603,243.84771 80.4459924,250.277099 63.2494275,249.99084 L63.1883588,249.99084 C46.0051527,249.69313 29.9765267,242.725573 18.045229,230.368702 C6.10057252,217.998473 -0.302099237,201.710305 0.0108778626,184.506107 C0.327671756,167.309542 7.32003817,151.256107 19.6998092,139.298092 L37.4669847,122.246565 L54.7513359,140.101527 L36.9631679,157.172137 C29.3486641,164.523282 25.0490458,174.39542 24.8562977,184.962214 C24.6616412,195.523282 28.5910305,205.519466 35.9192748,213.107252 C43.2379771,220.687405 53.0757634,224.962214 63.6234733,225.14542 L63.6597328,225.147328 C74.2284351,225.322901 84.2417939,221.368702 91.8543893,214.017557 L118.362023,188.387786 L10.304771,76.3667939 L10.3219466,40.3320611 Z" id="Fill-3" fill="#004D71" mask="url(#mask-2)"></path>
            </g>
        </g>
    </g>
</svg>