<svg xmlns="http://www.w3.org/2000/svg" width="512" height="512" viewBox="0 0 512 512">
  <g fill="none" fill-rule="evenodd">
    <path fill="#DD1731" d="M171.487 224.813h42.023v6.99h-33.97v16.034h32.375v6.993H179.54v24.24h-8.053v-54.257zM221.792 239.25h7.6v39.822h-7.6v-39.82zm0-14.894h7.6v8.36h-7.6v-8.36zM242.314 239.252h7.6v7.295h.15c3.572-6.31 8.664-8.664 13.68-8.664 1.9 0 2.888.077 4.332.456v8.207c-1.9-.456-3.345-.76-5.396-.76-7.523 0-12.767 4.408-12.767 13.072v20.213h-7.6v-39.82zM307.13 255.514c-1.14-7.22-6.763-11.247-13.908-11.247-6.99 0-13.298 4.104-14.437 11.247h28.345zm-28.574 5.928c.61 8.206 7.904 12.614 14.666 12.614 4.333 0 10.26-1.444 12.845-7.07h8.054c-3.797 9.578-12.69 13.453-20.517 13.453-15.503 0-23.1-9.804-23.1-21.278 0-11.476 7.597-21.28 23.1-21.28 10.488 0 21.58 6.08 21.58 22.572v.988h-36.627z"/>
    <path fill="#090E14" d="M324.53 224.813h43.622v6.99h-35.565v15.732h34.5v6.992h-34.5v17.553h36.324v6.99h-44.38v-54.257zM408.572 239.252h8.512L396.26 285.91c-3.8 8.435-6.762 9.878-13.828 9.878-1.9 0-3.8-.152-5.776-.304v-6.38c1.368.074 2.583.302 4.41.302 4.71 0 5.85-.99 8.282-6.08l1.748-3.648-18.392-40.426h8.74l13.68 31.46 13.448-31.46zM455.226 255.514c-1.14-7.22-6.765-11.247-13.906-11.247-6.993 0-13.3 4.104-14.44 11.247h28.346zm-28.574 5.928c.61 8.206 7.904 12.614 14.668 12.614 4.33 0 10.257-1.444 12.843-7.07h8.054c-3.8 9.578-12.69 13.453-20.518 13.453-15.502 0-23.105-9.804-23.105-21.278 0-11.476 7.603-21.28 23.104-21.28 10.487 0 21.58 6.08 21.58 22.572v.988h-36.628z"/>
    <path fill="#DD1731" d="M109.338 171.938c2.722 9.733 12.09 14.428 7.863 25.953-2.255 6.155-10.063 12.133-4.716 20.45-1.49.763-3.213-2.605-3.54-4.326-1.398-7.368 4.754-16.615 4.718-24.38-.032-7.225-5.216-10.516-4.324-17.696"/>
    <path fill="#090E14" d="M126.246 238.388c-5.563-4.397-17.834-4.68-23.2 0-12.256 10.69-1.33 33.008 19.66 28.313-17.068 10.162-41.133-4.543-34.21-27.527-12.003 3.467-23.352 7.584-33.425 12.977 12.25 15.28 30.983 24.07 56.234 26.348-32.56 2.41-49.082-14.622-69.208-25.954 17.096-8.726 38.285-26.397 64.88-24.38 7.726.586 16.62 3.57 19.27 10.224"/>
    <path fill="#DD1731" d="M122.18 212.963c-1.622 2.05-3.234 4.108-5.9 5.11 3.406-4.066.527-17.82 7.47-19.66-1.145 13.836 10.006 18.54 17.696 26.74 6.25 6.662 12.954 14.337 11.405 28.705-1.635 15.177-17.197 21.304-30.27 24.053 10.573-4.818 23.415-8.63 25.16-21.298 3.026-21.99-17.55-31.23-25.56-43.65"/>
    <path fill="#DD1731" d="M133.257 234.368c6.34 6.367 9.628 18.998 0 25.865-6.314 4.5-14.355 2.53-17.954-.97-2.316-2.247-2.748-5.478-2.297-7.608.907-4.288 6.27-8.878 9.86-5.274-3.264-2.69-9.935 5.692-4.13 8.93.682.38 2.405.603 2.412.603 8.606.207 16.136-9.072 9.876-19.295-.873-1.424-1.854-2.92-3.116-4.4 0 0-2.507-3.104-1.108-2.444.982.46 1.844.91 2.338 1.262.397.287 3.084 2.293 4.12 3.332"/>
    <path fill="#090E14" d="M459.927 234.26v-.627h4.484v.628h-1.868v4.984h-.746v-4.983h-1.87zM466.072 233.633l1.768 4.715 1.775-4.715h1.023v5.61h-.706v-4.667h-.02l-1.75 4.668h-.636l-1.752-4.668h-.017v4.668h-.707v-5.61h1.022z"/>
  </g>
</svg>
