<svg xmlns="http://www.w3.org/2000/svg" viewBox="0 0 512 512">
  <path fill="#EC1D24" fill-rule="evenodd" d="M233.7 211.406c0-4.246-3.285-8.892-7.53-8.892h31.482c-4.246 0-7.53 4.646-7.53 8.892v78.03c0 4.325 3.284 8.892 7.53 8.892H226.17c4.245 0 7.53-4.567 7.53-8.893v-78.03M64.995 251.542h21.95c4.245 0 8.25 3.285 8.25 7.53l-.08-17.223h-30.12V212.2h29.24c4.325 0 8.25 3.285 8.25 7.61v-17.3H41.043c4.326 0 7.53 4.647 7.53 8.893v78.03c0 4.325-3.204 8.892-7.53 8.892h31.562c-4.326 0-7.61-4.567-7.61-8.893V251.54m63.045 21.072c0 9.934 8.09 18.586 18.023 18.586s18.104-8.813 18.104-18.747v-61.04c0-4.24-3.284-8.89-7.61-8.89h31.562c-4.33 0-7.61 4.65-7.61 8.89v59.37c0 18.99-15.31 30.12-34.37 30.12-19.07 0-34.53-11.13-34.53-30.12v-59.37c0-4.24-3.29-8.89-7.53-8.89h31.48c-4.33 0-7.53 4.65-7.53 8.89v61.21m87.23-61.2c0-4.244 3.28-8.89 7.61-8.89h-31.56c4.322 0 7.61 4.646 7.61 8.89v97.498s-.32 17.385-13.94 27.238c0 0 30.36-4.324 30.36-33.004l-.08-91.73m196.26 61.2c0 9.935 8.09 18.587 18.103 18.587 9.93 0 18.022-8.817 18.022-18.75v-61.04c0-4.25-3.286-8.896-7.53-8.896h31.48c-4.246 0-7.53 4.648-7.53 8.894v59.36c0 18.98-15.38 30.12-34.366 30.12-19.066 0-34.606-11.14-34.606-30.12l.08-59.37c0-4.25-3.285-8.894-7.61-8.894h31.562c-4.328 0-7.61 4.646-7.61 8.892v61.205m-31.4-54.395c-5.126-8.812-17.222-7.69-17.222-7.69-19.226 0-18.345 15.06-18.345 15.06s-1.28 7.53 8.33 12.738l19.31 10.498c18.586 10.25 16.423 24.75 16.423 24.75s.8 27.24-38.05 27.24c0 0-11.295.324-17.703-2.08l-5.61-17.945c5.77 9.053 23.475 10.415 23.475 10.415 21.79-1.045 21.95-16.266 21.95-16.266s1.04-6.57-7.53-11.376l-19.23-10.496c-20.03-10.975-17.706-25.715-17.706-25.715s-.48-26.76 33.96-26.76c0 0 15.46.402 17.943 2.885v14.74m-116.874-15.7l-5.208 17.625c4.164-7.85 10.813-7.93 10.813-7.93h16.662v77.227c0 4.326-3.288 8.893-7.53 8.893h31.48c-4.247 0-7.53-4.567-7.53-8.893v-77.228h13.94c4.323 0 7.77 3.445 7.77 7.77l5.124-17.463h-65.52m-33.563-33.33c3.443 3.44 8.17 5.53 13.376 5.53 10.493 0 18.984-8.49 18.984-18.91 0-10.5-8.49-18.99-18.984-18.99 0 0-14.58-1.36-21.15 17.3V140.1c4.886-6.407 12.497-11.054 21.148-11.054 14.82 0 26.757 11.937 26.757 26.76 0 14.74-11.936 26.675-26.756 26.675-7.37 0-14.02-2.96-18.903-7.77l-9.212-10.33c-2.483-2.56-5.927-4.08-9.772-4.08-7.69 0-13.86 6.17-13.86 13.86 0 7.69 6.17 13.86 13.86 13.86 0 0 10.253 1.36 16.742-11.29v11.213c-4.005 4.806-10.013 7.85-16.742 7.85-11.936 0-21.63-9.693-21.63-21.63 0-11.936 9.694-21.63 21.63-21.63 6.008 0 11.375 2.403 15.3 6.33l9.212 10.333"/>
</svg>
