<?xml version="1.0" encoding="UTF-8" standalone="no"?>
<svg width="512px" height="512px" viewBox="0 0 512 512" version="1.1" xmlns="http://www.w3.org/2000/svg" xmlns:xlink="http://www.w3.org/1999/xlink">
    <g id="harris" fill="#000000">
        <g id="Harris">
            <path stroke="#C23C40" stroke-width=".121" d="M105.796 262.142l17.23-15.757"/>
			<path stroke="#000" stroke-width=".041" d="M61.23 204.463l23.77.002-23.77-.002z"/>
			<path fill="#000" d="M136.992 204.463l-13.967 41.922-17.23 15.757H93.912l8.32-24.678-28.52-.002-8.026 24.684-23.768-.004 19.314-57.68 23.77.003-7.432 21.998 28.228.002 7.426-22.002h23.77zm267.68 0l-20.2 57.68H361.3l17.527-57.68h25.846zm-162.212 11l-15.747 46.68-23.767-.004 19.31-57.68h40.11c10.1-.01 21.394 1.18 25.253 6.53 3.56 4.757.29 11.3-2.68 14.273-6.83 6.84-18.42 8.624-18.42 8.624s3.86 8.324 6.83 13.68c2.97 5.643 8.32 14.564 8.32 14.564h-24.66l-14.26-33.894s13.365.595 18.714-3.27c3.27-2.677 3.27-5.947 2.08-7.433-1.19-1.485-3.866-1.782-7.428-2.08-2.08-.003-8.616 0-13.667-.003zm78.73 0l-15.744 46.68h-23.77l19.608-57.68h40.11c10.1 0 21.095 1.19 24.953 6.54 3.865 4.76.3 11.3-2.675 14.27-6.535 6.84-18.42 8.625-18.42 8.625s4.162 8.324 6.836 13.678c3.268 5.645 9.21 14.566 9.21 14.566h-25.55l-13.962-33.894s13.073.595 18.42-3.27c3.564-2.677 3.267-5.947 2.077-7.433-1.186-1.485-3.86-1.782-7.427-2.08-1.78-.003-8.316-.003-13.665-.003z"/>
			<path fill="#C23C40" d="M48.454 314.472c1.78-2.08 3.268-3.567 4.458-4.756L177.1 197.326l25.846 64.816H179.18l-17.235-18.73h10.1l-5.346-14.57-112.6 82.063c-1.79 1.19-3.87 2.672-5.65 3.567z"/>
			<path stroke="#C23C40" stroke-width=".097" d="M105.796 261.845l17.23-15.46"/>
			<path fill="#000" d="M397.844 247.872l-6.24 12.784s14.56 2.973 30.01 2.38c5.942-.297 15.152-.593 23.472-3.27 5.943-1.787 10.398-4.165 13.962-7.73 2.97-3.27 4.752-6.84 5.05-9.814.596-4.162-.594-6.243-2.972-8.623-5.05-5.36-21.982-6.54-29.115-9.22-.88-.3-3.26-1.49-2.67-3.87.6-2.085 3.87-5.056 14.86-5.056 14.858-.294 21.69 2.677 21.69 2.677l5.945-12.19s-3.865-.892-10.4-1.485c-3.57-.593-8.024-.89-12.185-.593-3.564 0-8.02 0-12.478.594-4.454.593-8.91 1.19-13.37 2.38-4.16 1.19-8.017 2.97-11.58 5.053-6.837 4.457-10.7 13.08-6.837 18.73.59 1.19 3.266 3.27 4.75 3.87 1.484.89 3.57 1.485 5.645 2.08 7.723 2.38 16.933 3.27 20.798 5.65 3.268 1.78 2.972 5.352-1.484 7.43-5.057 2.677-15.45 2.677-24.66 1.19-4.46-.603-12.186-2.98-12.186-2.98z"/>
        </g>
    </g>
</svg>