<?xml version="1.0" encoding="UTF-8" standalone="no"?>
<svg width="512px" height="512px" viewBox="0 0 512 512" version="1.1" xmlns="http://www.w3.org/2000/svg" xmlns:xlink="http://www.w3.org/1999/xlink">
    <!-- Generator: Sketch 3.6 (26304) - http://www.bohemiancoding.com/sketch -->
    <title>hp</title>
    <desc>Created with Sketch.</desc>
    <defs></defs>
    <g id="Client-Section" stroke="none" stroke-width="1" fill="none" fill-rule="evenodd">
        <g id="hp" fill="#0096D6">
            <g id="HP" transform="translate(131.000000, 131.000000)">
                <path d="M125,250 C123.757523,250 122.520255,249.978009 121.284722,249.94213 L146.831019,179.734954 L181.987269,179.734954 C188.157986,179.734954 194.931713,174.991319 197.042245,169.195602 L224.756366,93.0694444 C229.291088,80.6059028 222.152199,70.4091435 208.890046,70.4091435 L160.116898,70.4091435 L119.195602,182.860532 L119.179977,182.860532 L95.9797454,246.606481 C40.9398148,233.521991 0,184.043981 0,125 C0,67.6591435 38.6111111,19.3402778 91.2517361,4.61458333 L67.3136574,70.4091435 L67.306713,70.4091435 L27.5115741,179.734954 L54.0028935,179.737269 L87.8454861,86.837963 L107.755787,86.837963 L73.9131944,179.737269 L100.394676,179.741898 L131.93287,93.0694444 C136.469907,80.6059028 129.33044,70.4091435 116.08044,70.4091435 L93.8119213,70.4091435 L119.380787,0.131365741 C121.244213,0.0486111111 123.115741,0 124.998843,0 C194.034722,0 249.998843,55.9641204 249.998843,125 C249.998843,194.035301 194.034722,250 124.998843,250 L125,250 Z M200.631944,86.7708333 L180.727431,86.7708333 L152.853009,163.251157 L172.758102,163.251157 L200.631944,86.7708333 L200.631944,86.7708333 Z" id="Shape"></path>
            </g>
        </g>
    </g>
</svg>