<?xml version="1.0" encoding="UTF-8" standalone="no"?>
<svg width="512px" height="512px" viewBox="0 0 512 512" version="1.1" xmlns="http://www.w3.org/2000/svg" xmlns:xlink="http://www.w3.org/1999/xlink">
    <!-- Generator: Sketch 3.6 (26304) - http://www.bohemiancoding.com/sketch -->
    <title>intel</title>
    <desc>Created with Sketch.</desc>
    <defs></defs>
    <g id="Client-Section" stroke="none" stroke-width="1" fill="none" fill-rule="evenodd">
        <g id="intel" fill="#0071C5">
            <g id="Intel" transform="translate(67.000000, 131.000000)">
                <path d="M325.44547,58.1490278 C326.649408,58.1490278 327.767351,58.4328133 328.799299,59.0003843 C329.831246,59.5765549 330.648204,60.3892133 331.250173,61.4383598 C331.852143,62.4961057 332.153127,63.6011493 332.153127,64.7534904 C332.153127,65.8886324 331.852143,66.9807766 331.250173,68.029923 C330.7342,69.087669 329.917242,69.9046273 328.799299,70.4807978 C327.767351,71.0569684 326.649408,71.3450537 325.44547,71.3450537 C324.241531,71.3450537 323.123589,71.0569684 322.091641,70.4807978 C321.059694,69.9046273 320.242736,69.087669 319.640766,68.029923 C319.038797,66.9807766 318.737813,65.8886324 318.737813,64.7534904 C318.737813,63.6011493 319.038797,62.4961057 319.640766,61.4383598 C320.242736,60.3892133 321.059694,59.5765549 322.091641,59.0003843 C323.209584,58.4328133 324.327527,58.1490278 325.44547,58.1490278 L325.44547,58.1490278 Z M325.44547,59.2454718 C324.499518,59.2454718 323.553567,59.4862595 322.607615,59.9678349 C321.747659,60.4322111 321.059694,61.1115764 320.54372,62.0059308 C320.027747,62.8830859 319.76976,63.7989392 319.76976,64.7534904 C319.76976,65.6994421 320.027747,66.6109955 320.54372,67.4881507 C321.059694,68.3567063 321.747659,69.0403714 322.607615,69.5391459 C323.467571,70.0121218 324.413523,70.2486097 325.44547,70.2486097 C326.477417,70.2486097 327.423369,70.0121218 328.283325,69.5391459 C329.143281,69.0403714 329.831246,68.3567063 330.34722,67.4881507 C330.863193,66.6109955 331.12118,65.6994421 331.12118,64.7534904 C331.12118,63.7989392 330.863193,62.8830859 330.34722,62.0059308 C329.831246,61.1115764 329.143281,60.4322111 328.283325,59.9678349 C327.337373,59.4862595 326.391422,59.2454718 325.44547,59.2454718 L325.44547,59.2454718 Z M322.478622,68.4040039 L322.478622,61.3093663 L324.929496,61.3093663 C325.875448,61.3093663 326.520415,61.3695633 326.864397,61.4899571 C327.294376,61.6275501 327.59536,61.8597382 327.767351,62.1865215 C328.025338,62.5047053 328.154332,62.8529875 328.154332,63.2313682 C328.154332,63.7387422 327.939343,64.1902192 327.509365,64.585799 C327.165382,64.9641796 326.649408,65.1748689 325.961444,65.2178667 C326.305426,65.329661 326.563413,65.4586544 326.735404,65.6048469 C326.993391,65.8886324 327.337373,66.3573085 327.767351,67.0108751 L328.670305,68.4040039 L327.251378,68.4040039 L326.606411,67.2817612 C326.004441,66.4046061 325.531466,65.8542342 325.187483,65.6306456 C325.015492,65.4672539 324.714507,65.3855581 324.284529,65.3855581 L323.639562,65.3855581 L323.639562,68.4040039 L322.478622,68.4040039 L322.478622,68.4040039 Z M323.639562,64.4052082 L325.05849,64.4052082 C325.746455,64.4052082 326.21943,64.3063132 326.477417,64.1085233 C326.735404,63.9021339 326.864397,63.6398473 326.864397,63.3216635 C326.864397,63.1066745 326.8214,62.9174842 326.735404,62.7540925 C326.649408,62.5907009 326.434419,62.470307 326.090437,62.392911 C325.918446,62.3069154 325.531466,62.2639176 324.929496,62.2639176 L323.639562,62.2639176 L323.639562,64.4052082 L323.639562,64.4052082 Z M127.298692,106.108778 C132.987301,106.108778 135.309183,108.907935 135.309183,113.487201 L135.309183,167.34195 L154.787188,167.34195 L154.787188,113.409805 C154.787188,102.458264 148.982484,90.3715817 131.955354,90.3715817 L91.8900009,90.3715817 L91.8900009,167.34195 L111.239012,167.34195 L111.239012,106.108778 L127.298692,106.108778 Z M243.276667,105.154227 C236.56901,105.154227 231.538267,108.585451 229.345379,113.229214 C228.055445,116.028371 227.668465,118.156762 227.410478,121.600886 L257.465943,121.600886 C256.949969,113.190516 253.080167,105.154227 243.276667,105.154227 L243.276667,105.154227 Z M227.410478,134.83561 C227.410478,144.768103 233.731155,152.120727 244.695595,152.120727 C253.20916,152.120727 257.594936,149.669853 262.496686,144.768103 L274.493073,156.37751 C266.753468,163.859128 258.755877,168.50289 244.566602,168.50289 C225.99155,168.50289 208.19046,158.441404 208.19046,128.669725 C208.19046,103.374118 223.669669,89.0558489 244.179621,89.0558489 C264.689574,89.0558489 276.556967,105.824992 276.556967,127.779671 L276.556967,134.83561 L227.410478,134.83561 L227.410478,134.83561 Z M191.808297,167.212956 C175.942107,167.212956 169.23445,156.119523 169.23445,145.284077 L169.23445,69.3585552 L188.583461,69.3585552 L188.583461,90.3715817 L203.28871,90.3715817 L203.28871,106.108778 L188.583461,106.108778 L188.583461,144.123136 C188.583461,148.637905 190.776349,150.959787 195.291119,150.959787 L203.28871,150.959787 L203.28871,167.212956 L191.808297,167.212956 L191.808297,167.212956 Z M55.0494828,61.0642789 L74.6048839,61.0642789 L74.6048839,79.6651287 L55.0494828,79.6651287 L55.0494828,61.0642789 Z M74.6048839,90.3715817 L55.0494828,90.3715817 L55.0494828,147.605958 C55.0494828,157.796437 59.9512324,166.696983 74.6048839,168.11591 L74.6048839,90.3715817 Z M307.644379,58.4070146 L288.037381,58.4070146 L288.037381,145.929044 C288.037381,156.119523 292.939131,165.020068 307.644379,166.438996 L307.644379,58.4070146 Z M376.010887,70.9193754 C358.080803,-15.7254984 190.389369,-21.2077184 82.3573879,44.7982098 L82.3573879,52.0992368 C190.260376,-3.61301717 343.504547,-3.25957523 357.435836,76.5563875 C362.208592,103.000037 347.37435,130.449834 320.801707,146.316024 L320.801707,167.083963 C352.792073,155.345563 385.298412,117.395701 376.010887,70.9193754 L376.010887,70.9193754 Z M179.295936,222.551129 C104.763543,229.516774 27.0321141,218.681327 16.1579696,160.247312 C10.7428262,131.352788 23.8975742,100.768451 41.2600873,81.7935199 L41.2600873,71.6417385 C9.9598362,99.1818317 -7.0376255,134.06165 2.77619317,175.081554 C15.2937137,227.968853 81.9962063,257.766331 183.810705,247.833838 C224.185643,243.964036 276.943948,230.935701 313.449083,210.683736 L313.449083,182.047199 C280.297776,201.912184 225.21759,218.42334 179.295936,222.551129 L179.295936,222.551129 Z" id="Shape"></path>
            </g>
        </g>
    </g>
</svg>