<?xml version="1.0" encoding="UTF-8" standalone="no"?>
<svg width="512px" height="512px" viewBox="0 0 512 512" version="1.1" xmlns="http://www.w3.org/2000/svg" xmlns:xlink="http://www.w3.org/1999/xlink">
    <!-- Generator: Sketch 3.6 (26304) - http://www.bohemiancoding.com/sketch -->
    <title>intuit</title>
    <desc>Created with Sketch.</desc>
    <defs></defs>
    <g id="Client-Section" stroke="none" stroke-width="1" fill="none" fill-rule="evenodd">
        <g id="intuit" fill="#365EBF">
            <g id="Intuit" transform="translate(56.000000, 197.000000)">
                <path d="M394.633242,104.636094 C397.550747,104.636094 399.991169,106.936492 399.991169,109.952013 C399.991169,113.022544 397.550747,115.326943 394.633242,115.326943 C391.702735,115.326943 389.24531,113.021544 389.24531,109.952013 C389.24531,106.935492 391.703736,104.636094 394.633242,104.636094 L394.633242,104.636094 Z M394.633242,114.542807 C397.10867,114.542807 399.022001,112.572467 399.022001,109.952013 C399.022001,107.395571 397.10867,105.42123 394.633242,105.42123 C392.130809,105.42123 390.214478,107.396572 390.214478,109.952013 C390.214478,112.572467 392.130809,114.542807 394.633242,114.542807 L394.633242,114.542807 Z M392.546881,106.851477 L394.957298,106.851477 C396.447556,106.851477 397.147677,107.436579 397.147677,108.639787 C397.147677,109.763981 396.437554,110.243064 395.503393,110.340081 L397.293702,113.100558 L396.246521,113.100558 L394.546227,110.410093 L393.516049,110.410093 L393.516049,113.100558 L392.543881,113.100558 L392.543881,106.851477 L392.546881,106.851477 Z M393.517049,109.621956 L394.533225,109.621956 C395.391373,109.621956 396.175509,109.58195 396.175509,108.596779 C396.175509,107.766636 395.465386,107.639614 394.805272,107.639614 L393.517049,107.639614 L393.517049,109.623957 L393.517049,109.621956 Z M389.402338,34.6289882 C391.377679,34.6289882 392.532879,35.2851017 392.532879,37.4334732 L392.532879,49.0554829 C392.532879,51.0358254 391.216651,52.1920253 389.230308,52.1920253 L370.104,52.1920253 L370.104,110.68214 C370.104,113.652653 368.787773,114.807853 365.813258,114.807853 L354.326272,114.807853 C351.353758,114.807853 350.03753,113.653654 350.03753,110.68214 L350.03353,52.1920253 L330.910223,52.1920253 C328.92588,52.1920253 327.604651,51.0358254 327.604651,49.0564831 L327.604651,37.4344734 C327.604651,35.2841015 328.764852,34.6279881 330.738193,34.6279881 L389.404338,34.6279881 L389.402338,34.6289882 Z M372.177359,12.1070936 C372.178359,5.42093742 366.757422,0 360.072266,0 C353.38811,0 347.967172,5.42093742 347.967172,12.1070936 C347.967172,18.7932498 353.38811,24.2091864 360.071265,24.2091864 C366.756422,24.2091864 372.177359,18.7932498 372.177359,12.1070936 L372.177359,12.1070936 Z M184.58792,34.6279881 C186.568262,34.6279881 187.723462,35.2851017 187.723462,37.4334732 L187.723462,49.0554829 C187.723462,51.0358254 186.406234,52.1920253 184.422891,52.1920253 L165.293583,52.1920253 L165.293583,110.68214 C165.293583,113.652653 163.973355,114.807853 161.000841,114.807853 L149.515855,114.807853 C146.543341,114.807853 145.225113,113.653654 145.225113,110.68214 L145.225113,52.1920253 L126.091804,52.1920253 C124.113462,52.1920253 122.793234,51.0358254 122.793234,49.0564831 L122.793234,37.4344734 C122.793234,35.2841015 123.947434,34.6279881 125.929776,34.6279881 L184.58792,34.6279881 L184.58792,34.6279881 Z M167.361941,12.1070936 C167.361941,5.42093742 161.946005,0 155.259848,0 C148.575693,0 143.151755,5.42093742 143.151755,12.1070936 C143.151755,18.7932498 148.576693,24.2091864 155.258848,24.2091864 C161.946005,24.2091864 167.360941,18.7932498 167.360941,12.1070936 L167.361941,12.1070936 Z M108.538769,114.809854 L96.6567144,114.809854 C93.6862007,114.809854 92.6980298,113.325597 92.6980298,110.516111 L92.6980298,65.6213476 C92.6980298,56.5497789 90.2276026,50.1086651 80.1528605,50.1086651 C73.7117466,50.1086651 65.7943775,53.5822657 60.679493,58.0320352 L60.679493,110.68114 C60.679493,113.495626 59.5222929,114.807853 56.7218086,114.807853 L44.6697245,114.807853 C42.1922961,114.807853 40.7050389,113.495626 40.7050389,110.847168 L40.7050389,38.7767055 C40.7050389,36.1332484 41.8672399,34.6499919 44.8337529,34.6499919 L55.555607,34.6499919 C57.8660065,34.6499919 59.3602649,35.3071055 59.5202926,37.7825336 L59.6833208,42.1882954 C67.2816347,36.0852401 76.8542901,32.6216411 86.4279456,32.6216411 C104.913142,32.6216411 112.502455,44.1736387 112.502455,62.1627495 L112.502455,110.518111 C112.502455,113.328597 111.515284,114.810854 108.536769,114.810854 L108.538769,114.809854 Z M293.544761,37.9245581 C293.544761,35.9492165 294.541934,34.6279881 296.517275,34.6279881 L310.47969,34.6279881 C312.462033,34.6279881 313.617232,35.784188 313.617232,37.9245581 L313.617232,110.68314 C313.617232,113.653654 312.295004,114.808853 309.486518,114.808853 L297.837504,114.808853 C294.874991,114.808853 293.544761,113.653654 293.544761,110.68214 L293.544761,37.9245581 L293.544761,37.9245581 Z M0,37.9245581 C0,35.9492165 0.992171572,34.6279881 2.97051368,34.6279881 L16.9329281,34.6279881 C18.9112702,34.6279881 20.06647,35.784188 20.06647,37.9245581 L20.06647,110.68314 C20.06647,113.653654 18.7402407,114.808853 15.9407566,114.808853 L4.29274232,114.808853 C1.33223038,114.808853 0,113.653654 0,110.68214 L0,37.9245581 L0,37.9245581 Z M268.599448,114.807853 L258.034621,114.807853 C255.88825,114.807853 254.243965,113.654654 254.081937,111.512283 L253.913908,107.381569 C246.316594,113.496626 237.239025,116.793197 227.665369,116.793197 C209.182173,116.793197 201.593861,105.081171 201.593861,87.2480874 L201.593861,38.4296455 C201.593861,35.6231602 203.242146,34.6319888 205.874601,34.6319888 L217.4336,34.6319888 C220.077057,34.6319888 221.564314,35.4521306 221.564314,38.4306456 L221.564314,83.7784874 C221.564314,92.8600579 223.874714,99.1291419 233.780427,99.1291419 C240.04351,99.1291419 247.972881,95.6685435 252.923737,91.2107727 L252.923737,38.4316458 C252.923737,35.6231602 254.411994,34.6309886 257.04445,34.6309886 L268.763476,34.6309886 C271.407933,34.6309886 272.896191,35.4531307 272.896191,38.4316458 L272.896191,110.191055 C272.89319,113.654654 271.896018,114.808853 268.598448,114.808853 L268.599448,114.807853 Z" id="Shape"></path>
            </g>
        </g>
    </g>
</svg>