<?xml version="1.0" encoding="UTF-8" standalone="no"?>
<svg width="512px" height="512px" viewBox="0 0 512 512" version="1.1" xmlns="http://www.w3.org/2000/svg" xmlns:xlink="http://www.w3.org/1999/xlink">
    <!-- Generator: Sketch 3.6 (26304) - http://www.bohemiancoding.com/sketch -->
    <title>jeppesen</title>
    <desc>Created with Sketch.</desc>
    <defs></defs>
    <g id="Client-Section" stroke="none" stroke-width="1" fill="none" fill-rule="evenodd">
        <g id="jeppesen">
            <g id="Jeppesen" transform="translate(0.000000, 225.000000)">
                <g id="layer1" transform="translate(15.661176, 0.000000)">
                    <g id="g6730">
                        <g id="g6719" transform="translate(118.061174, 0.000000)" fill="#000000">
                            <path d="M26.5706646,28.6448323 L6.73599866,28.6448323 L0,35.9376622 L0,36.1411757 L24.3106126,36.1411757 C27.9997561,36.1411757 30.1112789,35.7623791 31.6407279,34.8413055 C34.2500242,33.2104868 34.9364698,31.0932136 34.9364698,24.6297487 L34.9364698,0 L26.6108076,0.0191391928 L26.5706646,28.6441944 L26.5706646,28.6448323 Z" id="path3543"></path>
                            <path d="M44.5741167,36.1411757 L81.9199982,36.1411757 L81.9199982,28.5471859 L52.5785434,28.5471859 L52.5785434,21.3237319 L73.5627928,21.3237319 L80.2088188,14.1600417 L52.5785434,14.1600417 L52.5785434,7.27524934 L81.9199982,7.27524934 L81.9199982,0 L44.5741167,0 L44.5741167,36.1411757 L44.5741167,36.1411757 Z" id="path3547"></path>
                            <path d="M120.470586,14.4564703 L98.7858801,14.4564703 L98.7858801,7.22823513 L120.470586,7.22823513 L120.470586,14.4564703 L120.470586,14.4564703 Z M116.027442,-3.62376795e-13 L90.3529392,-3.62376795e-13 L90.3529392,36.1411757 L98.9247324,36.1411757 L98.9247324,21.6520381 L117.678851,21.6520381 C122.49001,21.6520381 124.145507,21.4369121 125.49443,20.6760033 C127.80395,19.2617487 128.903527,16.0069713 128.903527,10.3658883 C128.903527,7.97958277 128.404834,5.70084021 127.448325,3.6890133 C126.148453,0.980018652 123.090894,-3.62376795e-13 116.027442,-3.62376795e-13 L116.027442,-3.62376795e-13 Z" id="path3549"></path>
                            <path d="M166.249408,14.4564703 L144.564703,14.4564703 L144.564703,7.22823513 L166.249408,7.22823513 L166.249408,14.4564703 L166.249408,14.4564703 Z M161.803543,-3.62376795e-13 L136.131762,-3.62376795e-13 L136.131762,36.1411757 L144.702646,36.1411757 L144.702646,21.6520381 L163.458864,21.6520381 C168.265426,21.6520381 169.920747,21.4369121 171.273614,20.6760033 C173.578802,19.2617487 174.682349,16.0069713 174.682349,10.3658883 C174.682349,7.97958277 174.175535,5.70084021 173.227301,3.6890133 C171.923481,0.980018652 168.870333,-3.62376795e-13 161.803543,-3.62376795e-13 L161.803543,-3.62376795e-13 Z" id="path3551"></path>
                            <path d="M255.502498,14.3273804 L234.518958,14.3273804 L234.518958,7.59797398 L264.139426,7.59797398 L264.139426,0 L239.613157,0 C229.229297,0 226.484701,2.28297802 226.484701,10.9088898 C226.484701,16.0645155 227.628961,19.152313 230.027429,20.7858575 C231.228699,21.5986455 233.32176,21.9253544 236.966291,21.9253544 L257.049897,21.9253544 L257.049897,28.9774855 L227.034435,28.9774855 L227.034435,36.1411757 L252.0575,36.1411757 C258.898631,36.1411757 259.994026,36.0334414 261.84276,34.9498835 C264.338959,33.535473 265.035288,31.2604635 265.035288,24.6386319 C265.035288,21.4392753 264.738188,19.4272266 264.037623,18.07258 C262.79156,15.6302317 259.794493,14.3273804 255.502498,14.3273804" id="path3555"></path>
                            <path d="M354.077028,0 L354.077028,28.2164928 L331.685456,0 L319.247052,0 L319.247052,36.1411757 L327.737597,36.1411757 L327.737597,8.5223211 L349.530267,36.1411757 L362.616462,36.1411757 L362.616462,0 L354.077028,0 L354.077028,0 Z" id="path3559"></path>
                            <path d="M181.910584,36.1411757 L219.256466,36.1411757 L219.256466,28.5471859 L189.915011,28.5471859 L189.915011,21.3237319 L210.89926,21.3237319 L217.541231,14.1600417 L189.915011,14.1600417 L189.915011,7.27524934 L219.256466,7.27524934 L219.256466,0 L181.910584,0 L181.910584,36.1411757 L181.910584,36.1411757 Z" id="path3563"></path>
                            <path d="M273.468229,36.1411757 L310.814111,36.1411757 L310.814111,28.5471859 L281.472656,28.5471859 L281.472656,21.3237319 L302.456905,21.3237319 L309.102931,14.1600417 L281.472656,14.1600417 L281.472656,7.27524934 L310.814111,7.27524934 L310.814111,0 L273.468229,0 L273.468229,36.1411757 L273.468229,36.1411757 Z" id="path3567"></path>
                        </g>
                        <g id="g6694" transform="translate(349.364698, 44.574117)" fill="#005DAA">
                            <path d="M8.30902786,10.1916342 L6.63897646,4.09335577 L6.61027868,4.09335577 L4.94022728,10.1916342 L8.3082307,10.1916342 L8.30902786,10.1916342 Z M6.01719121,3.33605323 L7.23286109,3.33605323 L10.429475,14.1654796 L9.40113784,14.1654796 L8.52027541,11.0087237 L4.72977689,11.0087237 L3.84891445,14.1654796 L2.82057731,14.1654796 L6.01719121,3.33605323 L6.01719121,3.33605323 Z" id="path3571"></path>
                            <path d="M17.9993118,13.3467957 L19.8048805,13.3467957 C21.4868893,13.3467957 22.3079647,12.5894932 22.3079647,11.1306893 C22.3079647,9.67587126 21.4868893,8.91856872 19.8048805,8.91856872 L17.9993118,8.91856872 L17.9993118,13.3467957 L17.9993118,13.3467957 Z M17.9993118,8.09749333 L19.5298601,8.09749333 C21.1999115,8.09749333 21.957214,7.38802042 21.957214,6.12850671 C21.957214,4.68564608 21.2158547,4.1555343 19.6972638,4.1555343 L17.9993118,4.1555343 L17.9993118,8.09749333 L17.9993118,8.09749333 Z M17.0307617,3.3344589 L20.0201138,3.3344589 C22.1086745,3.3344589 22.9297499,4.4425121 22.9297499,6.05277646 C22.9297499,7.11300002 22.3518085,8.12937975 21.2596985,8.40041435 L21.2596985,8.43230077 C22.5949425,8.69121852 23.2765148,9.7197151 23.2765148,11.1306893 C23.2765148,13.0279315 22.0488875,14.1638853 20.0001848,14.1638853 L17.0307617,14.1638853 L17.0307617,3.3344589 L17.0307617,3.3344589 Z" id="path3575"></path>
                            <path d="M29.0407829,13.5281657 C30.5872744,13.5281657 31.5279239,12.2527088 31.5279239,8.74918804 C31.5279239,5.24566732 30.5872744,3.97419621 29.0407829,3.97419621 C27.4942914,3.97419621 26.5536419,5.24566732 26.5536419,8.74918804 C26.5536419,12.2527088 27.4942914,13.5281657 29.0407829,13.5281657 M29.0407829,3.15312082 C31.2568893,3.15312082 32.5004598,4.86701605 32.5004598,8.74918804 C32.5004598,12.63136 31.2568893,14.3492411 29.0407829,14.3492411 C26.8246765,14.3492411 25.5850918,12.63136 25.5850918,8.74918804 C25.5850918,4.86701605 26.8246765,3.15312082 29.0407829,3.15312082" id="path3579"></path>
                            <path d="M35.1677591,3.33643586 L40.5366355,3.33643586 L40.5366355,4.15352545 L36.140295,4.15352545 L36.140295,8.09947029 L40.2496577,8.09947029 L40.2496577,8.91655988 L36.140295,8.91655988 L36.140295,13.3487727 L40.6761386,13.3487727 L40.6761386,14.1658622 L35.1677591,14.1658622 L35.1677591,3.33643586 L35.1677591,3.33643586 Z" id="path3583"></path>
                            <path d="M43.0245737,3.33525607 L43.9971096,3.33525607 L43.9971096,14.1646825 L43.0245737,14.1646825 L43.0245737,3.33525607 L43.0245737,3.33525607 Z" id="path3585"></path>
                            <path d="M46.8150722,3.33643586 L48.1184297,3.33643586 L52.2596789,12.7708312 L52.2915653,12.7708312 L52.2915653,3.33643586 L53.2601154,3.33643586 L53.2601154,14.1658622 L51.9567579,14.1658622 L47.8155087,4.73146687 L47.7868109,4.73146687 L47.7868109,14.1658622 L46.814275,14.1658622 L46.814275,3.33643586 L46.8150722,3.33643586 Z" id="path3589"></path>
                            <path d="M59.0857649,9.46382655 L59.0857649,8.64673696 L62.5573992,8.64673696 L62.5573992,14.1630881 L61.8000966,14.1630881 L61.8000966,12.3734626 L61.7682102,12.3734626 C61.4334028,13.5731893 60.4648527,14.3464351 59.3886859,14.3464351 C57.1725795,14.3464351 55.9329948,12.6325398 55.9329948,8.75036784 C55.9329948,4.86819585 57.1725795,3.15430062 59.3886859,3.15430062 C61.4533318,3.15430062 62.3780381,4.50548779 62.4976121,6.37084353 L61.5250762,6.37084353 C61.5250762,5.06350019 60.8156033,3.9713902 59.3886859,3.9713902 C57.8421944,3.9713902 56.9015449,5.24684712 56.9015449,8.75036784 C56.9015449,12.2538886 57.8421944,13.5293455 59.3886859,13.5293455 C60.843504,13.5293455 61.6486361,12.2259879 61.6486361,9.69101732 L61.6486361,9.46398598 L59.0857649,9.46398598 L59.0857649,9.46382655 Z" id="path3593"></path>
                            <path d="M76.5093035,10.4945552 C76.3737862,12.9657529 75.2378324,14.3488265 73.2927606,14.3488265 C71.08064,14.3488265 69.8370695,12.6349313 69.8370695,8.75275932 C69.8370695,4.86660153 71.08064,3.15270629 73.2927606,3.15270629 C75.4929238,3.15270629 76.4056727,4.71514102 76.4056727,6.4928091 L75.4331368,6.4928091 C75.4331368,5.02204784 74.6917774,3.97378168 73.2927606,3.97378168 C71.7502549,3.97378168 70.8096054,5.2492386 70.8096054,8.75275932 C70.8096054,12.25628 71.7502549,13.5277512 73.2927606,13.5277512 C74.659891,13.5277512 75.4331368,12.3599109 75.5407534,10.4945552 L76.5093035,10.4945552 L76.5093035,10.4945552 Z" id="path3597"></path>
                            <path d="M82.2281335,13.5281657 C83.774625,13.5281657 84.7152745,12.2527088 84.7152745,8.74918804 C84.7152745,5.24566732 83.774625,3.97419621 82.2281335,3.97419621 C80.681642,3.97419621 79.7409925,5.24566732 79.7409925,8.74918804 C79.7409925,12.2527088 80.681642,13.5281657 82.2281335,13.5281657 M82.2281335,3.15312082 C84.4402541,3.15312082 85.6878104,4.86701605 85.6878104,8.74918804 C85.6878104,12.63136 84.4402541,14.3492411 82.2281335,14.3492411 C80.0160129,14.3492411 78.7724424,12.63136 78.7724424,8.74918804 C78.7724424,4.86701605 80.0160129,3.15312082 82.2281335,3.15312082" id="path3601"></path>
                            <path d="M88.4467831,3.33643586 L90.1327777,3.33643586 L92.7394928,12.9501924 L92.7713792,12.9501924 L95.3780943,3.33643586 L96.9724154,3.33643586 L96.9724154,14.1658622 L95.9998796,14.1658622 L95.9998796,4.24519892 L95.9679931,4.24519892 L93.1659737,14.1658622 L92.2532249,14.1658622 L89.4512054,4.24519892 L89.419319,4.24519892 L89.419319,14.1658622 L88.4467831,14.1658622 L88.4467831,3.33643586 L88.4467831,3.33643586 Z" id="path3605"></path>
                            <path d="M100.791612,8.64472812 L102.44572,8.64472812 C103.733134,8.64472812 104.749514,8.0667867 104.749514,6.40072111 C104.749514,4.77451354 103.932424,4.15671409 102.44572,4.15671409 L100.791612,4.15671409 L100.791612,8.64472812 L100.791612,8.64472812 Z M99.8230617,3.3356387 L102.748641,3.3356387 C104.841187,3.3356387 105.72205,4.56725179 105.72205,6.40072111 C105.72205,8.0667867 104.885031,9.46181771 102.413834,9.46181771 L100.791612,9.46181771 L100.791612,14.1650651 L99.8230617,14.1650651 L99.8230617,3.3356387 L99.8230617,3.3356387 Z" id="path3609"></path>
                            <path d="M112.229272,10.1916342 L110.563206,4.09335577 L110.53132,4.09335577 L108.861268,10.1916342 L112.229272,10.1916342 L112.229272,10.1916342 Z M109.937435,3.33605323 L111.153105,3.33605323 L114.353705,14.1654796 L113.321382,14.1654796 L112.440519,11.0087237 L108.650021,11.0087237 L107.773144,14.1654796 L106.740821,14.1654796 L109.937435,3.33605323 L109.937435,3.33605323 Z" id="path3613"></path>
                            <path d="M116.249352,3.33643586 L117.55271,3.33643586 L121.693959,12.7708312 L121.725846,12.7708312 L121.725846,3.33643586 L122.694396,3.33643586 L122.694396,14.1658622 L121.391038,14.1658622 L117.249789,4.73146687 L117.221091,4.73146687 L117.221091,14.1658622 L116.248555,14.1658622 L116.248555,3.33643586 L116.249352,3.33643586 Z" id="path3617"></path>
                            <path d="M127.487722,9.82812893 L124.562143,3.33525607 L125.59048,3.33525607 L127.97399,8.73601895 L130.353514,3.33525607 L131.385837,3.33525607 L128.460258,9.82812893 L128.460258,14.1646825 L127.487722,14.1646825 L127.487722,9.82812893 L127.487722,9.82812893 Z" id="path3621"></path>
                        </g>
                        <g id="g6710" transform="translate(0.000000, 19.275294)"></g>
                    </g>
                    <path d="M489.480577,31.2105875 L490.179401,31.2105875 C490.524501,31.2105875 490.801655,31.1210786 491.010871,30.9420581 C491.220088,30.7630376 491.324695,30.5354909 491.324695,30.2594111 C491.324695,29.9358801 491.231951,29.7040196 491.04646,29.5638229 C490.860968,29.4236261 490.567638,29.3535288 490.16646,29.3535288 L489.480577,29.3535288 L489.480577,31.2105875 Z M492.288813,30.2335287 C492.288813,30.5786285 492.197147,30.8838215 492.013813,31.149117 C491.830478,31.4144124 491.572736,31.6117634 491.240577,31.7411758 L492.780577,34.2970581 L491.693518,34.2970581 L490.354107,32.0064699 L489.480577,32.0064699 L489.480577,34.2970581 L488.52293,34.2970581 L488.52293,28.5317641 L490.211754,28.5317641 C490.927836,28.5317641 491.453027,28.6719587 491.787342,28.9523523 C492.121657,29.2327458 492.288813,29.6598004 492.288813,30.2335287 L492.288813,30.2335287 Z M485.449401,31.4111758 C485.449401,30.5484264 485.665085,29.739611 486.09646,28.9847052 C486.527834,28.2297995 487.120966,27.6345114 487.875871,27.1988229 C488.630777,26.7631345 489.443906,26.5452935 490.315283,26.5452935 C491.178033,26.5452935 491.986848,26.7609776 492.741754,27.1923523 C493.496659,27.623727 494.091948,28.2168583 494.527636,28.9717641 C494.963324,29.7266698 495.181165,30.5397989 495.181165,31.4111758 C495.181165,32.2609839 494.971952,33.0590151 494.553518,33.8052934 C494.135085,34.5515716 493.548424,35.1490166 492.793518,35.5976463 C492.038613,36.0462759 491.212543,36.2705874 490.315283,36.2705874 C489.422338,36.2705874 488.598424,36.0473544 487.843519,35.6008816 C487.088613,35.1544087 486.500874,34.5580422 486.080283,33.811764 C485.659693,33.0654857 485.449401,32.2652977 485.449401,31.4111758 L485.449401,31.4111758 Z M486.128813,31.4111758 C486.128813,32.157454 486.316458,32.8551921 486.691754,33.504411 C487.06705,34.1536299 487.5793,34.6648013 488.228518,35.0379404 C488.877737,35.4110795 489.573319,35.5976463 490.315283,35.5976463 C491.065875,35.5976463 491.762535,35.4100011 492.405283,35.0347051 C493.048031,34.6594091 493.558124,34.151473 493.935577,33.5108816 C494.31303,32.8702902 494.501754,32.1703952 494.501754,31.4111758 C494.501754,30.6605838 494.314108,29.9639241 493.938812,29.3211758 C493.563517,28.6784275 493.05558,28.1683346 492.414989,27.7908817 C491.774398,27.4134289 491.074503,27.2247053 490.315283,27.2247053 C489.564691,27.2247053 488.868032,27.4123505 488.225283,27.7876464 C487.582535,28.1629424 487.072442,28.6708785 486.694989,29.3114699 C486.317536,29.9520614 486.128813,30.6519563 486.128813,31.4111758 L486.128813,31.4111758 Z" id="®" fill="#000000"></path>
                </g>
                <path d="M15.6611761,19.3331668 C15.6611761,19.3331668 24.854691,21.0238888 36.7004942,23.3925531 C47.5211798,25.5503939 60.5588857,28.2828321 70.8222653,30.800313 C92.3415988,36.0915701 108.271601,44.5741167 108.271601,44.5741167 L130.108232,19.2752937 L15.6611761,19.3331668 Z" id="path3625" fill="#C7C8CA"></path>
                <path d="M120.470586,10.8423527 L130.108232,-1.84741111e-13 L0,-1.84741111e-13 C0,0.0539152532 26.5956831,1.94342988 39.7552932,4.81882342 C48.3929051,6.35918835 58.6325867,8.53399074 67.4635279,10.8423527 L98.7858801,10.8423527 L67.4635279,10.8423527 C68.7202699,10.9424149 93.1168267,18.3473276 99.990586,21.6847054 C105.225284,23.5951461 108.409648,25.297996 108.423527,25.298823 L112.037645,21.6847054 L120.470586,10.8423527 Z" id="path3641" fill="#005DAA"></path>
                <path d="M8.43294099,10.8423527 C8.43294099,10.8985797 26.568081,12.7466274 38.5505874,15.6611761 C48.2253517,17.1331569 58.6384322,19.3532948 67.4635279,21.6847054 C68.8505938,21.7869298 108.453382,36.1411757 108.423527,36.1411757 L130.108232,10.8423527 L8.43294099,10.8423527 Z" id="path3629" fill-opacity="0.4" fill="#000000"></path>
            </g>
        </g>
    </g>
</svg>