<svg xmlns="http://www.w3.org/2000/svg" viewBox="0 0 512 512">
  <g fill="none" fill-rule="evenodd">
    <path fill="#706D6E" d="M471.893 251.712v-7.595h-9.432v-11.81l-.31.1-8.86 2.71-.17.053v8.946h-13.99v-4.983c0-2.32.52-4.097 1.54-5.282 1.02-1.17 2.47-1.76 4.32-1.76 1.34 0 2.71.32 4.1.94l.35.16v-8l-.16-.06c-1.29-.47-3.05-.7-5.24-.7-2.75 0-5.25.6-7.43 1.78-2.18 1.19-3.9 2.89-5.1 5.04-1.2 2.15-1.81 4.64-1.81 7.4v5.49h-6.56v7.6h6.57v32h9.43v-31.99h13.98v20.33c0 8.377 3.95 12.62 11.74 12.62 1.28 0 2.63-.15 4-.443 1.4-.3 2.36-.6 2.92-.92l.13-.073v-7.67l-.38.254c-.515.34-1.15.62-1.9.824-.75.21-1.38.32-1.862.32-1.824 0-3.174-.49-4.012-1.46-.85-.98-1.28-2.69-1.28-5.087v-18.7h9.446zm-69.817 25.244c-3.423 0-6.12-1.135-8.022-3.37-1.913-2.247-2.883-5.45-2.883-9.52 0-4.198.97-7.484 2.89-9.77 1.91-2.27 4.58-3.424 7.95-3.424 3.27 0 5.87 1.1 7.74 3.272 1.88 2.185 2.83 5.444 2.83 9.688 0 4.3-.89 7.6-2.66 9.81-1.75 2.194-4.38 3.305-7.82 3.305v.01zm.42-33.804c-6.53 0-11.716 1.913-15.413 5.686-3.698 3.772-5.57 8.995-5.57 15.52 0 6.198 1.83 11.185 5.436 14.817 3.6 3.635 8.51 5.474 14.58 5.474 6.33 0 11.41-1.94 15.11-5.77 3.69-3.83 5.56-9 5.56-15.37 0-6.3-1.76-11.32-5.23-14.93-3.47-3.61-8.35-5.44-14.5-5.44zm-36.194-.006c-4.442 0-8.117 1.136-10.922 3.376-2.824 2.25-4.257 5.208-4.257 8.784 0 1.86.31 3.51.918 4.91.62 1.404 1.56 2.64 2.82 3.68 1.25 1.03 3.18 2.108 5.73 3.206 2.15.885 3.75 1.633 4.77 2.222 1 .577 1.7 1.158 2.1 1.723.39.553.59 1.31.59 2.245 0 2.66-1.99 3.955-6.09 3.955-1.52 0-3.25-.318-5.15-.945-1.9-.625-3.67-1.525-5.28-2.676l-.39-.28v9.075l.15.07c1.34.62 3.02 1.14 5 1.55 1.98.41 3.78.62 5.34.62 4.82 0 8.7-1.14 11.53-3.39 2.85-2.27 4.3-5.29 4.3-8.99 0-2.67-.77-4.96-2.31-6.8-1.52-1.83-4.16-3.51-7.84-4.99-2.932-1.18-4.812-2.16-5.59-2.91-.75-.72-1.13-1.75-1.13-3.05 0-1.15.47-2.07 1.43-2.82.97-.75 2.32-1.13 4.01-1.13 1.57 0 3.18.25 4.78.73 1.6.49 3 1.14 4.177 1.94l.386.26v-8.6l-.15-.06c-1.084-.46-2.51-.86-4.24-1.18-1.72-.32-3.29-.48-4.643-.48v-.01zm-39.758 33.81c-3.42 0-6.12-1.137-8.02-3.372-1.915-2.248-2.882-5.448-2.882-9.52 0-4.2.97-7.485 2.883-9.77 1.9-2.273 4.575-3.425 7.943-3.425 3.267 0 5.87 1.1 7.733 3.27 1.88 2.18 2.83 5.44 2.83 9.69 0 4.3-.89 7.6-2.65 9.81-1.75 2.19-4.38 3.3-7.82 3.3zm.42-33.796c-6.53 0-11.716 1.913-15.41 5.686-3.696 3.774-5.57 8.995-5.57 15.523 0 6.2 1.83 11.18 5.435 14.81 3.6 3.63 8.51 5.47 14.58 5.47 6.32 0 11.41-1.94 15.11-5.77 3.69-3.83 5.56-9 5.56-15.37 0-6.3-1.76-11.33-5.23-14.93-3.47-3.61-8.35-5.44-14.5-5.44v.01zm-35.29 7.805v-6.852h-9.313v39.593h9.32v-20.253c0-3.444.78-6.273 2.32-8.41 1.52-2.11 3.55-3.182 6.03-3.182.84 0 1.78.14 2.8.42 1.01.27 1.74.57 2.17.88l.39.29v-9.39l-.15-.06c-.87-.36-2.09-.55-3.64-.55-2.34 0-4.43.75-6.23 2.24-1.57 1.3-2.71 3.08-3.58 5.31h-.1v-.01zm-25.99-7.808c-4.274 0-8.086.916-11.328 2.722-3.248 1.81-5.76 4.39-7.47 7.68-1.7 3.28-2.565 7.11-2.565 11.38 0 3.74.84 7.17 2.5 10.2 1.66 3.03 4 5.4 6.97 7.05 2.97 1.64 6.39 2.47 10.18 2.47 4.43 0 8.21-.89 11.24-2.63l.13-.07v-8.54l-.39.28c-1.37 1-2.9 1.79-4.55 2.37-1.64.57-3.14.86-4.46.86-3.65 0-6.59-1.15-8.72-3.4-2.13-2.26-3.22-5.43-3.22-9.42 0-4.02 1.13-7.27 3.36-9.67 2.22-2.39 5.16-3.6 8.74-3.6 3.06 0 6.05 1.03 8.87 3.08l.397.28v-8.99l-.123-.074c-1.06-.595-2.51-1.086-4.31-1.458-1.79-.37-3.54-.56-5.207-.56l-.01-.008zm-27.77.96h-9.316v39.59h9.315v-39.59zm-4.558-16.87c-1.534 0-2.87.52-3.97 1.555-1.102 1.037-1.662 2.344-1.662 3.883 0 1.517.553 2.8 1.645 3.81 1.08 1.006 2.42 1.515 3.98 1.515s2.9-.51 4-1.515c1.11-1.01 1.66-2.294 1.66-3.81 0-1.487-.55-2.78-1.62-3.842-1.08-1.06-2.44-1.596-4.05-1.596zm-23.238 13.946v42.514h9.505v-55.245h-13.156l-16.72 41.036-16.228-41.036h-13.7v55.247h8.93v-42.52h.31l17.13 42.52h6.74l16.86-42.52h.31-.01z"/>
    <path fill="#F1511B" d="M83.813 253.813H40V210h43.813v43.813z"/>
    <path fill="#80CC28" d="M132.188 253.813H88.376V210h43.812v43.813z"/>
    <path fill="#00ADEF" d="M83.812 302.205H40v-43.813h43.812v43.813z"/>
    <path fill="#FBBC09" d="M132.188 302.205H88.376v-43.813h43.812v43.813z"/>
  </g>
</svg>
