<svg xmlns="http://www.w3.org/2000/svg" width="512" height="512" viewBox="0 0 512 512">
  <path fill="#FF0000" fill-rule="evenodd" d="M461.3 235.206c0-2.607 2.1-4.708 4.674-4.708 2.64 0 4.74 2.1 4.74 4.708 0 2.654-2.1 4.753-4.74 4.753-2.574 0-4.673-2.1-4.673-4.76zm4.674 6.08c3.385 0 6.026-2.695 6.026-6.033 0-3.345-2.64-6.04-6.026-6.04-3.25 0-5.96 2.695-5.96 6.04 0 3.338 2.71 6.033 5.96 6.033zm-.542-9.635c.948 0 1.354.07 1.76.22 1.22.39 1.355 1.46 1.355 1.88 0 .09 0 .3-.136.56 0 .26-.2.77-.81 1.16-.07.07-.13.09-.27.17l1.56 2.78h-1.55l-1.35-2.56h-.95v2.57h-1.28v-6.76h1.695zm.474 3.09c.406-.07.88-.07 1.083-.43.13-.17.2-.34.2-.59 0-.34-.21-.64-.54-.81-.27-.13-.55-.13-1.22-.13h-.41v1.98h.88zm-246.068 29.5h27.49l-14.49-23.42-26.746 42.34h-12.188l32.502-50.86c1.422-2.05 3.792-3.29 6.433-3.29 2.5 0 4.87 1.2 6.22 3.22l32.64 50.94h-12.19l-5.76-9.46h-27.83l-6.1-9.46zm126.284 9.46v-44.18H335.83v48.5c0 1.33.474 2.62 1.49 3.61.947.98 2.302 1.54 3.724 1.54h47.06l6.094-9.46h-48.076zm-170.702-7.93c10.02 0 18.146-8.09 18.146-18.1s-8.126-18.15-18.147-18.15h-45.1v53.64h10.29v-44.18h34.12c4.81 0 8.67 3.9 8.67 8.69s-3.86 8.69-8.67 8.69l-29.05-.07 30.81 26.84h14.96l-20.72-17.38h4.67v.03zm-108.6 17.39c-14.808 0-26.82-11.98-26.82-26.8 0-14.81 12.012-26.84 26.82-26.84h31.183c14.78 0 26.834 12.03 26.834 26.84 0 14.82-12.053 26.8-26.834 26.8H66.82zm30.485-9.46c9.588 0 17.375-7.74 17.375-17.34 0-9.59-7.787-17.37-17.375-17.37H67.512c-9.588 0-17.362 7.79-17.362 17.38 0 9.597 7.774 17.34 17.362 17.34h29.793zm195.934 9.46c-14.83 0-26.89-11.98-26.89-26.8 0-14.81 12.05-26.84 26.88-26.84h36.97l-6.03 9.47h-30.26c-9.62 0-17.4 7.79-17.4 17.38 0 9.597 7.78 17.34 17.4 17.34h37.17l-6.1 9.46h-31.75zm126.14-9.46c-7.92 0-14.63-5.3-16.73-12.62h44.08l6.09-9.46h-50.17c2.1-7.28 8.8-12.63 16.72-12.63h30.27l6.092-9.46H418.7c-14.83 0-26.88 12.03-26.88 26.84 0 14.815 12.053 26.8 26.882 26.8h31.757l6.09-9.46h-37.17z"/>
</svg>