<?xml version="1.0" encoding="UTF-8" standalone="no"?>
<svg width="512px" height="512px" viewBox="0 0 512 512" version="1.1" xmlns="http://www.w3.org/2000/svg" xmlns:xlink="http://www.w3.org/1999/xlink">
    <!-- Generator: Sketch 3.6 (26304) - http://www.bohemiancoding.com/sketch -->
    <title>sap</title>
    <desc>Created with Sketch.</desc>
    <defs>
        <linearGradient x1="50%" y1="0%" x2="50%" y2="100%" id="linearGradient-1">
            <stop stop-color="#1FB9EE" offset="0%"></stop>
            <stop stop-color="#2263BA" offset="100%"></stop>
        </linearGradient>
    </defs>
    <g id="Client-Section" stroke="none" stroke-width="1" fill="none" fill-rule="evenodd">
        <g id="sap" fill="url(#linearGradient-1)">
            <g id="SAP" transform="translate(62.000000, 156.000000)">
                <path d="M0,0 L0,199.17893 L195.793404,199.17893 L387.443946,0 L0,0 Z M52.7774364,35.4791854 L52.8638051,35.4791854 C66.786432,35.52401 83.8053752,39.6030563 96.0913162,46.1116003 L82.8337279,70.0838411 C69.3688548,63.3287613 62.5889155,62.6877683 54.9021053,62.2843462 C43.5014431,61.6478357 37.7147433,65.8792858 37.6283746,70.4424386 C37.5290507,76.0231117 48.4546853,81.0658886 58.7195998,84.4904945 C74.291868,89.6139558 94.1005187,96.4855798 97.1104663,116.33395 L125.594848,37.590428 L158.639495,37.590428 L191.977795,131.780536 L191.977795,37.5859455 L230.139785,37.5859455 L230.139785,37.6307702 C266.630541,37.6307702 283.761763,51.123 283.761763,80.5279924 C283.761763,106.943179 266.116647,122.685607 236.319462,122.685607 L223.9817,122.685607 L223.9817,160.741764 L167.431824,160.741764 L161.830817,142.542942 C155.849788,144.586948 149.09144,145.707565 141.922842,145.707565 C134.581507,145.707565 127.650422,144.506263 121.561432,142.368126 L115.740185,160.737281 L81.0847626,160.737281 L84.9022571,150.086937 L83.4987665,151.359958 C74.8619011,158.567767 64.0442273,162.530269 50.657086,162.799217 L48.670607,162.799217 C33.5216971,162.748392 18.6416382,158.641591 5.46900648,150.875851 L17.2583277,126.562943 C30.0279331,134.398297 38.0472626,136.14646 48.860618,135.922337 C54.4745805,135.787862 58.5252703,134.738965 61.1681511,131.888115 C62.7659712,130.184777 63.5864734,128.033192 63.6728421,125.733686 C63.7592107,119.413406 55.1223454,116.454976 44.5205932,113.057265 C35.9269121,110.255723 26.1931649,106.521826 18.5668128,100.721512 C9.55424379,93.8319585 5.24876641,85.2121719 5.46468805,73.0826125 C5.60719632,64.2162901 8.76397061,56.2554262 14.5981732,49.9620407 C22.9975247,40.9657266 36.5358111,35.4702204 52.773118,35.4702204 L52.7774364,35.4791854 Z M223.735237,63.6689696 L223.735237,95.4967473 L232.036198,95.4967473 C243.112674,95.4967473 251.929514,91.6513007 251.929514,79.3816432 C251.929514,67.4875875 243.112674,63.6644982 232.036198,63.6644982 L223.735237,63.6689696 Z M141.428326,76.3973978 L129.147982,115.985749 C133.119145,117.486904 137.32139,118.248316 141.555379,118.233866 C145.69506,118.236735 149.804458,117.512659 153.704289,116.093229 L141.682432,76.3973978 L141.428326,76.3973978 Z M252.976415,173.713131 C246.028727,173.713131 240.106107,179.088254 240.106107,186.371105 C240.106107,193.711232 246.028727,199.178878 252.976415,199.178878 C256.343229,199.18864 259.572964,197.838423 261.94087,195.431214 C264.308777,193.024005 265.616556,189.761395 265.570742,186.375511 C265.570742,179.097065 259.823348,173.717537 252.972034,173.717537 L252.976415,173.713131 Z M252.973481,175.532116 C258.497578,175.532116 262.843428,180.275916 262.843428,186.443763 C262.843428,192.724989 258.497578,197.359944 252.973481,197.359944 C247.355466,197.359944 242.834586,192.724989 242.834586,186.448298 C242.834586,180.280451 247.351197,175.541187 252.969212,175.541187 L252.973481,175.532116 Z M248.291543,179.170088 L248.291543,193.721973 L250.447591,193.721973 L250.447591,187.405761 L252.862364,187.405761 L256.773435,193.721973 L259.205457,193.721973 L255.022724,187.405761 C257.118403,187.142219 258.80012,185.903574 258.80012,183.290121 C258.80012,180.42191 257.075282,179.170088 253.681662,179.170088 L248.291543,179.170088 Z M250.115053,180.989073 L253.219094,180.989073 C254.74849,180.989073 256.476978,181.209396 256.476978,183.060108 C256.476978,185.333841 254.73039,185.536538 252.798284,185.536538 L250.110529,185.536538 L250.115053,180.989073 Z" id="Shape"></path>
            </g>
        </g>
    </g>
</svg>