<svg xmlns="http://www.w3.org/2000/svg" width="512" height="512" viewBox="0 0 512 512">
  <g fill="none" fill-rule="evenodd">
    <path fill="#FF7900" d="M95.44 254.343s5.952 1.7 4.25 9.78c-2.125 11.055-17.433 22.536-34.867 16.583-17.434-5.952-25.513-22.962-23.813-37.844 1.7-15.733 17.01-33.592 43.373-33.592 22.11 0 38.694 16.158 40.396 24.663 1.7 8.504-2.98 3.827-6.38-.85-3.83-4.253-13.18-11.482-25.52-13.608-10.63-1.7-24.24.426-32.74 10.63-8.51 10.205-5.11 27.64 8.08 32.743 15.31 5.952 27.21-8.505 27.21-8.505m-21.69.424s9.35-12.756 25.09-6.804c13.18 5.103 16.58 22.537 8.08 32.742-8.08 10.206-21.69 12.757-32.74 10.63-11.91-2.126-21.69-8.93-25.52-13.18-3.83-4.253-8.51-8.93-6.38-.427 2.12 8.505 18.71 24.238 40.82 24.238 25.94-.426 41.24-18.285 42.94-34.018 1.7-15.308-6.378-31.89-23.81-37.844-17.86-5.953-30.616 3.827-32.74 14.883-1.278 8.08 4.25 9.78 4.25 9.78"/>
    <path fill="#464749" d="M145.19 276.88c3.402 5.102 9.355 7.653 14.883 7.653 6.378 0 14.032-3.828 14.032-11.907 0-16.158-34.868-6.378-34.868-33.592 0-8.08 6.803-19.56 23.81-19.56 7.655 0 14.884 1.7 20.412 8.08l-7.23 6.803c-2.55-3.827-7.23-6.378-12.76-6.378-10.63 0-13.61 6.37-13.61 10.63 0 17.85 34.87 7.22 34.87 32.74 0 13.6-11.06 21.68-24.66 21.68-8.93 0-17.86-2.98-22.54-9.78l7.65-6.38zm45.498 14.882h8.93v-24.237c0-11.056 5.528-15.734 13.18-15.734 5.53 0 10.63 3.41 10.63 12.34v28.07h8.93v-30.62c0-12.75-8.08-17.86-17.008-17.86-7.23 0-13.18 3.4-15.733 8.51v-35.3h-8.93v74.84zm72.287-48.476c-14.032 0-25.087 11.056-25.087 24.663 0 13.6 11.055 24.66 25.087 24.66s25.088-11.06 25.088-24.67-11.056-24.67-25.088-24.67zm0 41.247c-9.78 0-15.732-6.804-15.732-16.584s5.952-16.59 15.732-16.59 15.733 6.8 15.733 16.58c-.425 9.78-6.38 16.58-15.733 16.58zm30.19 7.23h8.93V267.95c0-10.206 4.677-15.308 13.608-15.308 1.275 0 2.975.425 4.25.85l.427-9.78c-1.276-.426-2.552-.426-3.828-.426-5.953 0-11.906 3.402-14.032 8.504v-7.228h-8.93v47.2h-.425zm153.503 0h8.93v-75.69h-8.93v75.69zm-79.515-20.412v-3.4c0-12.33-6.378-25.09-22.962-25.09-14.03 0-24.66 10.63-24.66 24.67 0 14.03 9.36 24.66 24.24 24.66 8.93 0 16.16-3.4 20.84-9.78l-6.8-5.1c-3.4 4.25-7.65 7.23-12.75 7.23-8.5 0-16.15-5.53-16.15-13.6h38.27v.43zm-37.845-7.22c0-6.38 5.954-13.61 14.883-13.61 8.94 0 13.61 5.96 13.61 13.61h-28.49zm45.924 27.64h9.355v-61.66h22.962v-8.93h-55.28v8.93h22.96v61.66zm65.91-20.41v-3.4c0-12.33-6.38-25.09-22.962-25.09-14.032 0-24.663 10.63-24.663 24.67 0 14.03 9.355 24.66 24.237 24.66 8.93 0 16.158-3.4 20.836-9.78l-6.804-5.1c-3.402 4.26-7.654 7.23-13.182 7.23-8.08 0-16.158-5.52-16.158-13.6h38.695v.427h.01zm-37.845-7.22c0-6.38 5.952-13.61 14.883-13.61 8.93 0 13.607 5.96 13.607 13.61h-28.49zm63.357-48.47c-2.55 0-4.677 2.13-4.677 4.68s2.126 4.678 4.677 4.678c2.55 0 4.678-2.123 4.678-4.675 0-2.55-2.126-4.675-4.678-4.675zm0 .85c2.126 0 3.402 1.7 3.402 3.83s-1.7 3.83-3.402 3.83c-2.126 0-3.4-1.7-3.4-3.825-.428-2.127 1.274-3.83 3.4-3.83zm-.85 4.257h.425c.42 0 .85.425.85.85 0 .85 0 1.276.42 1.276h1.27s0-.426-.43-1.276c0-.85-.43-1.28-.85-1.28.42 0 .85-.425.85-1.275 0-.424 0-.85-.43-1.275-.43-.424-.85-.424-1.71-.424h-1.7v5.1h1.274v-1.7zm0-2.125h.425c.85 0 1.27.428 1.27.85 0 .427-.43.85-1.28.85h-.43v-1.7z"/>
  </g>
</svg>
