<?xml version="1.0" encoding="UTF-8" standalone="no"?>
<svg width="512px" height="512px" viewBox="0 0 512 512" version="1.1" xmlns="http://www.w3.org/2000/svg" xmlns:xlink="http://www.w3.org/1999/xlink">
    <!-- Generator: Sketch 3.6 (26304) - http://www.bohemiancoding.com/sketch -->
    <title>space-command</title>
    <desc>Created with Sketch.</desc>
    <defs>
        <rect id="path-1" x="0.00847682119" y="0.00529801325" width="311.672583" height="319.115232"></rect>
        <rect id="path-3" x="0.00847682119" y="0.00529801325" width="311.672583" height="319.115232"></rect>
        <rect id="path-5" x="0.00847682119" y="0.00529801325" width="311.672583" height="319.115232"></rect>
        <rect id="path-7" x="0.00847682119" y="0.00529801325" width="311.672583" height="319.115232"></rect>
        <rect id="path-9" x="0.00847682119" y="0.00529801325" width="311.672583" height="319.115232"></rect>
        <rect id="path-11" x="0.00847682119" y="0.00529801325" width="311.672583" height="319.115232"></rect>
        <rect id="path-13" x="0.00847682119" y="0.00529801325" width="311.672583" height="319.115232"></rect>
        <rect id="path-15" x="0.00847682119" y="0.00529801325" width="311.672583" height="319.115232"></rect>
        <rect id="path-17" x="0.00847682119" y="0.00529801325" width="311.672583" height="319.115232"></rect>
        <rect id="path-19" x="0.00847682119" y="0.00529801325" width="311.672583" height="319.115232"></rect>
        <rect id="path-21" x="0.00847682119" y="0.00529801325" width="311.672583" height="319.115232"></rect>
        <rect id="path-23" x="0.00847682119" y="0.00529801325" width="311.672583" height="319.115232"></rect>
        <rect id="path-25" x="0.00847682119" y="0.00529801325" width="311.672583" height="319.115232"></rect>
        <rect id="path-27" x="0.00847682119" y="0.00529801325" width="311.672583" height="319.115232"></rect>
        <rect id="path-29" x="0.00847682119" y="0.00529801325" width="311.672583" height="319.115232"></rect>
        <rect id="path-31" x="0.00847682119" y="0.00529801325" width="311.672583" height="319.115232"></rect>
        <rect id="path-33" x="0.00847682119" y="0.00529801325" width="311.672583" height="319.115232"></rect>
        <rect id="path-35" x="0.00847682119" y="0.00529801325" width="311.672583" height="319.115232"></rect>
        <rect id="path-37" x="0.00847682119" y="0.00529801325" width="311.672583" height="319.115232"></rect>
        <rect id="path-39" x="0.00847682119" y="0.00529801325" width="311.672583" height="319.115232"></rect>
        <rect id="path-41" x="0.00847682119" y="0.00529801325" width="311.672583" height="319.115232"></rect>
        <rect id="path-43" x="0.00847682119" y="0.00529801325" width="311.672583" height="319.115232"></rect>
        <rect id="path-45" x="0.00847682119" y="0.00529801325" width="311.672583" height="319.115232"></rect>
        <rect id="path-47" x="0.00847682119" y="0.00529801325" width="311.672583" height="319.115232"></rect>
        <rect id="path-49" x="0.00847682119" y="0.00529801325" width="311.672583" height="319.115232"></rect>
        <rect id="path-51" x="0.00847682119" y="0.00529801325" width="311.672583" height="319.115232"></rect>
        <rect id="path-53" x="0.00847682119" y="0.00529801325" width="311.672583" height="319.115232"></rect>
        <rect id="path-55" x="0.00847682119" y="0.00529801325" width="311.672583" height="319.115232"></rect>
        <rect id="path-57" x="0.00847682119" y="0.00529801325" width="311.672583" height="319.115232"></rect>
        <rect id="path-59" x="0.00847682119" y="0.00529801325" width="311.672583" height="319.115232"></rect>
        <rect id="path-61" x="0.00847682119" y="0.00529801325" width="311.672583" height="319.115232"></rect>
        <rect id="path-63" x="0.00847682119" y="0.00529801325" width="311.672583" height="319.115232"></rect>
        <rect id="path-65" x="0.00847682119" y="0.00529801325" width="311.672583" height="319.115232"></rect>
        <rect id="path-67" x="0.00847682119" y="0.00529801325" width="311.672583" height="319.115232"></rect>
        <rect id="path-69" x="0.00847682119" y="0.00529801325" width="311.672583" height="319.115232"></rect>
        <rect id="path-71" x="0.00847682119" y="0.00529801325" width="311.672583" height="319.115232"></rect>
        <rect id="path-73" x="0.00847682119" y="0.00529801325" width="311.672583" height="319.115232"></rect>
        <rect id="path-75" x="0.00847682119" y="0.00529801325" width="311.672583" height="319.115232"></rect>
        <rect id="path-77" x="0.00847682119" y="0.00529801325" width="311.672583" height="319.115232"></rect>
        <rect id="path-79" x="0.00847682119" y="0.00529801325" width="311.672583" height="319.115232"></rect>
        <rect id="path-81" x="0.00847682119" y="0.00529801325" width="311.672583" height="319.115232"></rect>
        <rect id="path-83" x="0.00847682119" y="0.00529801325" width="311.672583" height="319.115232"></rect>
        <rect id="path-85" x="0.00847682119" y="0.00529801325" width="311.672583" height="319.115232"></rect>
        <rect id="path-87" x="0.00847682119" y="0.00529801325" width="311.672583" height="319.115232"></rect>
        <rect id="path-89" x="0.00847682119" y="0.00529801325" width="311.672583" height="319.115232"></rect>
        <rect id="path-91" x="0.00847682119" y="0.00529801325" width="311.672583" height="319.115232"></rect>
        <rect id="path-93" x="0.00847682119" y="0.00529801325" width="311.672583" height="319.115232"></rect>
        <rect id="path-95" x="0.00847682119" y="0.00529801325" width="311.672583" height="319.115232"></rect>
        <rect id="path-97" x="0.00847682119" y="0.00529801325" width="311.672583" height="319.115232"></rect>
        <rect id="path-99" x="0.00847682119" y="0.00529801325" width="311.672583" height="319.115232"></rect>
        <rect id="path-101" x="0.00847682119" y="0.00529801325" width="311.672583" height="319.115232"></rect>
        <rect id="path-103" x="0.00847682119" y="0.00529801325" width="311.672583" height="319.115232"></rect>
        <rect id="path-105" x="0.00847682119" y="0.00529801325" width="311.672583" height="319.115232"></rect>
        <rect id="path-107" x="0.00847682119" y="0.00529801325" width="311.672583" height="319.115232"></rect>
        <rect id="path-109" x="0.00847682119" y="0.00529801325" width="311.672583" height="319.115232"></rect>
        <rect id="path-111" x="0.00847682119" y="0.00529801325" width="311.672583" height="319.115232"></rect>
        <rect id="path-113" x="0.00847682119" y="0.00529801325" width="311.672583" height="319.115232"></rect>
        <rect id="path-115" x="0.00847682119" y="0.00529801325" width="311.672583" height="319.115232"></rect>
        <rect id="path-117" x="0.00847682119" y="0.00529801325" width="311.672583" height="319.115232"></rect>
        <rect id="path-119" x="0.00847682119" y="0.00529801325" width="311.672583" height="319.115232"></rect>
        <rect id="path-121" x="0.00847682119" y="0.00529801325" width="311.672583" height="319.115232"></rect>
        <rect id="path-123" x="0.00847682119" y="0.00529801325" width="311.672583" height="319.115232"></rect>
        <rect id="path-125" x="0.00847682119" y="0.00529801325" width="311.672583" height="319.115232"></rect>
        <rect id="path-127" x="0.00847682119" y="0.00529801325" width="311.672583" height="319.115232"></rect>
        <rect id="path-129" x="0.00847682119" y="0.00529801325" width="311.672583" height="319.115232"></rect>
        <rect id="path-131" x="0.00847682119" y="0.00529801325" width="311.672583" height="319.115232"></rect>
        <rect id="path-133" x="0.00847682119" y="0.00529801325" width="311.672583" height="319.115232"></rect>
        <rect id="path-135" x="0.00847682119" y="0.00529801325" width="311.672583" height="319.115232"></rect>
        <rect id="path-137" x="0.00847682119" y="0.00529801325" width="311.672583" height="319.115232"></rect>
        <rect id="path-139" x="0.00847682119" y="0.00529801325" width="311.672583" height="319.115232"></rect>
        <rect id="path-141" x="0.00847682119" y="0.00529801325" width="311.672583" height="319.115232"></rect>
        <rect id="path-143" x="0.00847682119" y="0.00529801325" width="311.672583" height="319.115232"></rect>
        <rect id="path-145" x="0.00847682119" y="0.00529801325" width="311.672583" height="319.115232"></rect>
        <rect id="path-147" x="0.00847682119" y="0.00529801325" width="311.672583" height="319.115232"></rect>
        <rect id="path-149" x="0.00847682119" y="0.00529801325" width="311.672583" height="319.115232"></rect>
        <rect id="path-151" x="0.00847682119" y="0.00529801325" width="311.672583" height="319.115232"></rect>
        <rect id="path-153" x="0.00847682119" y="0.00529801325" width="311.672583" height="319.115232"></rect>
        <rect id="path-155" x="0.00847682119" y="0.00529801325" width="311.672583" height="319.115232"></rect>
        <rect id="path-157" x="0.00847682119" y="0.00529801325" width="311.672583" height="319.115232"></rect>
        <rect id="path-159" x="0.00847682119" y="0.00529801325" width="311.672583" height="319.115232"></rect>
        <rect id="path-161" x="0.00847682119" y="0.00529801325" width="311.672583" height="319.115232"></rect>
        <rect id="path-163" x="0.00847682119" y="0.00529801325" width="311.672583" height="319.115232"></rect>
        <rect id="path-165" x="0.00847682119" y="0.00529801325" width="311.672583" height="319.115232"></rect>
        <rect id="path-167" x="0.00847682119" y="0.00529801325" width="311.672583" height="319.115232"></rect>
        <rect id="path-169" x="0.00847682119" y="0.00529801325" width="311.672583" height="319.115232"></rect>
        <rect id="path-171" x="0.00847682119" y="0.00529801325" width="311.672583" height="319.115232"></rect>
        <rect id="path-173" x="0.00847682119" y="0.00529801325" width="311.672583" height="319.115232"></rect>
        <rect id="path-175" x="0.00847682119" y="0.00529801325" width="311.672583" height="319.115232"></rect>
        <rect id="path-177" x="0.00847682119" y="0.00529801325" width="311.672583" height="319.115232"></rect>
        <rect id="path-179" x="0.00847682119" y="0.00529801325" width="311.672583" height="319.115232"></rect>
        <rect id="path-181" x="0.00847682119" y="0.00529801325" width="311.672583" height="319.115232"></rect>
        <rect id="path-183" x="0.00847682119" y="0.00529801325" width="311.672583" height="319.115232"></rect>
        <rect id="path-185" x="0.00847682119" y="0.00529801325" width="311.672583" height="319.115232"></rect>
        <rect id="path-187" x="0.00847682119" y="0.00529801325" width="311.672583" height="319.115232"></rect>
        <rect id="path-189" x="0.00847682119" y="0.00529801325" width="311.672583" height="319.115232"></rect>
        <rect id="path-191" x="0.00847682119" y="0.00529801325" width="311.672583" height="319.115232"></rect>
        <rect id="path-193" x="0.00847682119" y="0.00529801325" width="311.672583" height="319.115232"></rect>
        <rect id="path-195" x="0.00847682119" y="0.00529801325" width="311.672583" height="319.115232"></rect>
        <rect id="path-197" x="0.00847682119" y="0.00529801325" width="311.672583" height="319.115232"></rect>
        <rect id="path-199" x="0.00847682119" y="0.00529801325" width="311.672583" height="319.115232"></rect>
        <rect id="path-201" x="0.00847682119" y="0.00529801325" width="311.672583" height="319.115232"></rect>
        <rect id="path-203" x="0.00847682119" y="0.00529801325" width="311.672583" height="319.115232"></rect>
    </defs>
    <g id="Client-Section" stroke="none" stroke-width="1" fill="none" fill-rule="evenodd">
        <g id="space-command">
            <g id="Space-Command" transform="translate(100.000000, 106.000000)">
                <g id="Group">
                    <g id="Clipped">
                        <mask id="mask-2" fill="white">
                            <use xlink:href="#path-1"></use>
                        </mask>
                        <g id="SVGID_1_"></g>
                        <path d="M74.3512583,0.338013245 L38.9827815,36.1939073 C65.3382781,65.3901987 59.5581457,115.456424 49.76,142.69245 C42.4095364,120.646358 12.0402649,120.646358 9.39443709,133.675232 C7.82728477,145.041589 11.2561589,166.301457 1.16344371,177.958146 C-2.65642384,189.716556 7.82728477,197.454834 12.0402649,199.41404 C16.7406623,252.714172 58.7729801,268.386755 78.5631788,272.897483 C101.782252,278.286623 141.460132,288.766093 155.764768,318.353377 C170.361854,288.765033 210.038675,278.184901 233.164503,272.897483 C253.340397,268.386755 294.690331,252.714172 299.389669,199.41404 C303.994702,197.454834 314.086358,189.716556 310.656424,177.958146 C301.641325,168.354967 302.035497,148.96 302.527152,133.675232 C299.389669,120.646358 269.410331,120.646358 262.063046,142.69245 C251.877086,115.456424 246.098013,65.3901987 272.841325,36.1939073 L237.472848,0.338013245 L74.3512583,0.338013245" id="Shape" fill="#FFD420" mask="url(#mask-2)"></path>
                    </g>
                    <g id="Clipped">
                        <mask id="mask-4" fill="white">
                            <use xlink:href="#path-3"></use>
                        </mask>
                        <g id="SVGID_1_"></g>
                        <path d="M155.464901,318.496424 C141.274702,289.103046 101.698543,278.597086 78.4858278,273.215364 L78.4858278,273.215364 C58.6776159,268.721589 16.5287417,252.979073 11.7223841,199.638675 L11.7223841,199.638675 C7.98834437,197.824636 0.0222516556,191.975629 0,182.954172 L0,182.954172 C0,181.340397 0.258543046,179.642914 0.90807947,177.731391 L0.90807947,177.731391 C10.869404,166.273907 7.50410596,145.089272 9.06172185,133.608477 L9.06172185,133.608477 C10.2781457,127.698013 16.8529801,124.467285 24.3856954,124.473642 L24.3856954,124.473642 C33.9634437,124.467285 45.3022517,129.694305 49.76,141.678411 L49.76,141.678411 C54.1456954,129.141192 57.6550993,111.993642 57.6550993,94.3396026 L57.6550993,94.3396026 C57.6550993,73.4950993 52.7650331,51.9576159 38.730596,36.4121854 L38.730596,36.4121854 L38.5229139,36.1748344 L74.1096689,0.102781457 L74.2135099,0 L237.609536,0 L273.30543,36.1833113 L273.082914,36.4206623 C258.849272,51.9364238 253.860662,73.4304636 253.860662,94.2516556 L253.860662,94.2516556 C253.860662,111.943841 257.476026,129.133775 262.05245,141.696424 L262.05245,141.696424 C266.486887,129.699603 277.710199,124.467285 287.28053,124.473642 L287.28053,124.473642 C294.79947,124.473642 301.415629,127.70543 302.861987,133.681589 L302.861987,133.681589 C302.744371,137.030993 302.642649,140.580662 302.642649,144.181192 L302.642649,144.181192 C302.635232,156.975894 303.977748,170.375629 310.980662,177.862781 L310.980662,177.862781 C311.457483,179.535894 311.68106,181.14755 311.68106,182.673377 L311.68106,182.673377 C311.663046,191.855894 303.793377,197.81298 299.700132,199.639735 L299.700132,199.639735 C294.895894,252.973775 253.431523,268.71947 233.236556,273.214305 L233.236556,273.214305 C210.114967,278.498543 170.543046,289.095629 156.060397,318.495364 L156.060397,318.495364 L155.757351,319.122649 L155.464901,318.496424 L155.464901,318.496424 L155.464901,318.496424 Z M9.72609272,133.718675 C8.14728477,144.98755 11.6429139,166.322649 1.48344371,178.056689 L1.48344371,178.056689 C0.921854305,179.781722 0.670728477,181.41351 0.670728477,182.954172 L0.670728477,182.954172 C0.649536424,191.669404 8.65483444,197.468609 12.1811921,199.107815 L12.1811921,199.107815 L12.3528477,199.180927 L12.3740397,199.380132 C17.0606623,252.476821 58.8884768,268.051921 78.6415894,272.565828 L78.6415894,272.565828 C101.702781,277.930596 141.101987,288.279735 155.770066,317.592583 L155.770066,317.592583 C170.71894,288.279735 210.113907,277.829934 233.086093,272.565828 L233.086093,272.565828 C253.220662,268.050861 294.37245,252.483179 299.056954,199.380132 L299.056954,199.380132 L299.071788,199.180927 L299.256159,199.100397 C303.139603,197.462252 311.031523,191.557086 311.011391,182.674437 L311.011391,182.674437 C311.011391,181.214305 310.805828,179.673642 310.414834,178.181722 L310.414834,178.181722 C303.25404,170.544106 301.985695,157.020397 301.971921,144.182252 L301.971921,144.182252 C301.971921,140.574305 302.069404,137.010861 302.201854,133.756821 L302.201854,133.756821 C300.900662,128.31894 294.643709,125.14543 287.282649,125.14543 L287.282649,125.14543 C277.713377,125.14543 266.474172,130.486887 262.378808,142.794172 L262.378808,142.794172 L262.075762,143.724503 L261.744106,142.810066 C256.992848,130.096954 253.193113,112.448212 253.193113,94.2516556 L253.193113,94.2516556 C253.193113,73.44 258.154172,51.8823841 272.37298,36.2013245 L272.37298,36.2013245 L237.327682,0.670728477 L74.4943046,0.670728477 L39.442649,36.2066225 C53.4686093,51.9099338 58.3258278,73.4982781 58.3258278,94.3406623 L58.3258278,94.3406623 C58.3258278,112.50755 54.6309934,130.111788 50.069404,142.802649 L50.069404,142.802649 L49.7451656,143.731921 L49.4442384,142.794172 C45.3403974,130.494305 33.9698013,125.14543 24.3856954,125.14543 L24.3856954,125.14543 C17.0002649,125.14543 10.802649,128.311523 9.72609272,133.718675 L9.72609272,133.718675 L9.72609272,133.718675 Z M74.3523179,0.670728477 L74.3523179,0.34013245 L74.3523179,0.670728477 L74.3523179,0.670728477 L74.3523179,0.670728477 Z" id="Shape" fill="#000000" mask="url(#mask-4)"></path>
                    </g>
                    <g id="Clipped">
                        <mask id="mask-6" fill="white">
                            <use xlink:href="#path-5"></use>
                        </mask>
                        <g id="SVGID_1_"></g>
                        <path d="M155.568742,309.241854 C138.325828,283.575099 109.033113,276.617748 66.5123179,264.175894 C42.3152318,257.218543 17.5268874,232.725828 15.6630464,196.281854 C17.1337748,188.250066 22.5239735,182.174305 27.421457,175.806093 C31.045298,171.2 34.9647682,164.148344 36.0423841,158.073642 C37.2206623,151.704371 32.3189404,144.360265 26.2484768,141.028874 L21.4463576,155.820927 C16.3517881,153.271523 13.506755,149.060662 12.4333775,144.261722 C10.472053,135.637616 12.0392053,129.563974 20.2680795,128.682384 C36.2384106,124.469404 46.3300662,147.392848 45.9369536,155.917351 C51.4235762,189.621192 56.7131126,201.183576 89.0468874,218.818543 C105.113642,227.435232 146.460397,236.840265 155.568742,260.162119 C164.875232,236.840265 204.845563,227.435232 220.915497,218.818543 C253.445298,201.182517 258.633113,189.620132 264.122914,155.917351 C263.728742,147.392848 273.823576,124.469404 289.789669,128.682384 C297.91894,129.563974 299.584636,135.637616 297.529007,144.261722 C296.548874,149.060662 293.709139,153.271523 288.615629,155.820927 L283.815629,141.028874 C277.744106,144.360265 272.842384,151.704371 274.020662,158.073642 C274.996556,164.148344 279.01245,171.20106 282.637351,175.806093 C287.539073,182.174305 292.928212,188.250066 294.4,196.281854 C292.439735,232.726887 267.65245,257.218543 243.450066,264.175894 C201.028874,276.617748 173.004503,283.575099 155.568742,309.241854" id="Shape" fill="#FFFFFF" mask="url(#mask-6)"></path>
                    </g>
                    <g id="Clipped">
                        <mask id="mask-8" fill="white">
                            <use xlink:href="#path-7"></use>
                        </mask>
                        <g id="SVGID_1_"></g>
                        <path d="M155.373775,250.264371 C138.229404,221.459073 51.8188079,222.439205 54.1690066,159.835762 C55.7361589,139.260397 61.1231788,121.038411 62.6903311,100.074172 C63.0823841,79.0103311 58.3819868,52.5552318 45.1560265,35.8039735 L75.9194702,4.74490066 L235.221192,4.74490066 L265.590464,35.8039735 C251.580397,52.5552318 247.268874,79.0103311 248.446093,100.074172 C248.837086,121.038411 254.713642,139.260397 256.18543,159.835762 C259.420397,222.439205 172.419603,221.459073 155.373775,250.264371" id="Shape" fill="#004B85" mask="url(#mask-8)"></path>
                    </g>
                    <g id="Clipped">
                        <mask id="mask-10" fill="white">
                            <use xlink:href="#path-9"></use>
                        </mask>
                        <g id="SVGID_1_"></g>
                        <path d="M41.5311258,227.929007 L44.96,220.869934 C45.0596026,221.069139 45.1549669,221.264106 45.352053,221.361589 C46.8227815,223.027285 46.7210596,224.206623 45.6445033,226.458278 C44.5647682,228.808477 43.6831788,230.474172 43.5878146,231.844238 C43.2953642,233.116821 43.6842384,234.490066 44.5658278,235.567682 C45.9411921,237.035232 47.2116556,236.940927 48.1928477,235.275232 L48.1928477,233.510993 L48.093245,233.710199 C47.4066225,235.177748 46.9192053,235.568742 46.4296689,235.077086 C46.0376159,234.687152 46.1372185,234.002649 46.626755,233.020397 L47.1162914,232.041325 C47.5083444,231.061192 47.8972185,230.277086 48.1928477,229.590464 L48.1928477,224.595497 C47.9957616,224.208742 47.8007947,223.81457 47.5083444,223.322914 C47.8007947,223.522119 47.9957616,223.615364 48.1928477,223.81457 L48.1928477,221.852185 C47.6037086,222.144636 46.9192053,221.949669 46.1372185,220.973775 L45.3531126,220.091126 L48.0943046,214.112848 C48.0943046,214.015364 48.1939073,214.015364 48.1939073,213.916821 L48.1939073,210.291921 L45.4495364,207.157616 L45.1570861,208.040265 L45.3541722,208.235232 C46.0386755,209.117881 46.0386755,209.70702 45.5491391,210.88106 L38.885298,224.988609 C38.2993377,226.165828 38.002649,226.357616 37.2206623,225.480265 L37.0256954,225.28106 L36.6336424,226.065166 L41.533245,231.551788 L41.9242384,230.670199 L41.7271523,230.571656 C41.0394702,229.78649 41.0394702,229.100927 41.5311258,227.929007 L41.5311258,227.929007 Z M48.1917881,223.81245 L48.1917881,221.850066 C48.7819868,221.459073 49.3668874,220.577483 50.0524503,219.109934 C51.3260927,216.268079 51.4256954,214.996556 50.152053,213.524768 C49.1698013,212.443974 48.877351,212.34649 48.1917881,213.914702 L48.1917881,210.289801 L50.7401325,213.130596 C53.5777483,216.268079 54.3639735,219.303841 52.8921854,222.340662 C51.9152318,224.499073 50.2495364,225.085033 48.1917881,223.81245 L48.1917881,223.81245 Z M48.1917881,229.588344 C48.8762914,227.828344 48.9748344,226.458278 48.1917881,224.593377 L48.1917881,229.588344 L48.1917881,229.588344 Z M48.1917881,235.274172 C48.2882119,235.175629 48.3899338,234.981722 48.4842384,234.782517 L48.7809272,234.099073 L48.1907285,233.508874 L48.1907285,235.274172 L48.1917881,235.274172 Z" id="Shape" fill="#004B85" mask="url(#mask-10)"></path>
                    </g>
                    <g id="Clipped">
                        <mask id="mask-12" fill="white">
                            <use xlink:href="#path-11"></use>
                        </mask>
                        <g id="SVGID_1_"></g>
                        <path d="M258.928742,231.454305 L257.165563,222.049272 L259.51894,225.378543 L259.51894,218.814305 L256.576424,214.79947 L255.308079,216.075232 L258.536689,234.491126 C258.929801,237.234437 258.929801,238.79947 257.852185,239.782781 L257.754702,239.977748 L258.047152,240.758675 L259.51894,239.391788 L259.51894,234.88106 L259.51894,234.490066 L259.22649,233.018278 L259.51894,232.823311 L259.51894,230.863046 L258.928742,231.454305 L258.928742,231.454305 Z M259.51894,239.390728 L259.51894,234.88 C259.616424,235.274172 259.713907,235.566623 259.811391,235.863311 C260.201325,236.839205 260.794702,236.940927 261.477086,236.351788 L261.673113,236.155762 L262.066225,237.034172 L259.51894,239.390728 L259.51894,239.390728 Z M259.51894,225.377483 L261.868079,228.61245 L259.51894,230.864106 L259.51894,232.824371 L262.74649,229.78755 L263.827285,231.259338 C264.023311,231.551788 264.31894,231.94596 264.413245,232.23947 C264.61245,232.922914 264.413245,233.510993 263.827285,234.101192 C263.729801,234.296159 263.632318,234.296159 263.535894,234.393642 L263.827285,235.275232 L269.41245,229.78755 L269.12,229.003444 C268.136689,229.889272 267.454305,229.589404 266.376689,228.024371 L259.52,218.814305 L259.52,225.377483 L259.51894,225.377483 Z" id="Shape" fill="#004B85" mask="url(#mask-12)"></path>
                    </g>
                    <g id="Clipped">
                        <mask id="mask-14" fill="white">
                            <use xlink:href="#path-13"></use>
                        </mask>
                        <g id="SVGID_1_"></g>
                        <path d="M33.202649,211.664106 L33.202649,220.281854 L29.5756291,213.818278 L30.0672848,213.134834 L30.2643709,213.524768 C30.8503311,214.500662 31.2423841,214.406358 31.9268874,213.524768 L33.202649,211.664106 L33.202649,211.664106 Z M30.0672848,196.77245 L33.202649,196.48 L33.202649,195.105695 L28.2045033,195.496689 C26.4423841,195.691656 25.4643709,195.204238 24.9748344,193.44 L24.9748344,193.243974 L24.3856954,193.634967 L25.853245,200.299868 L26.5419868,199.909934 L26.4423841,199.710728 C26.1499338,198.438146 26.3449007,197.650861 27.1268874,197.259868 C27.4225166,197.064901 27.6196026,196.967417 28.0084768,196.967417 L28.9896689,196.967417 L30.3597351,202.845033 L29.0850331,204.218278 C28.8900662,204.510728 28.5976159,204.706755 28.4005298,204.804238 C28.0084768,205.096689 27.6196026,204.706755 27.3229139,203.532715 L27.3229139,203.04106 L26.6362914,203.430993 L28.8900662,213.032053 L29.5745695,212.645298 C29.0850331,210.978543 29.4792053,210.194437 30.6521854,208.821192 L33.2015894,205.78543 L33.2015894,199.713907 L31.2402649,201.863841 L30.0672848,196.77245 L30.0672848,196.77245 Z M33.202649,220.281854 L33.202649,211.664106 L40.4513907,202.063046 C41.135894,201.178278 41.2344371,200.495894 40.6484768,199.515762 L40.4513907,199.121589 L40.9409272,198.53245 L44.96,205.689007 L44.5658278,206.274967 L44.2691391,205.979338 C43.685298,204.901722 43.2911258,204.999205 42.6066225,205.979338 L34.0821192,217.444238 C33.3976159,218.329007 33.2980132,218.911788 33.8871523,219.895099 L34.0821192,220.281854 L33.594702,220.971656 L33.202649,220.281854 L33.202649,220.281854 Z M33.202649,196.48 L36.4354967,196.18755 L33.202649,199.711788 L33.202649,205.783311 L41.1369536,196.673907 L40.5478146,194.516556 L33.202649,195.105695 L33.202649,196.48 L33.202649,196.48 Z" id="Shape" fill="#004B85" mask="url(#mask-14)"></path>
                    </g>
                    <g id="Clipped">
                        <mask id="mask-16" fill="white">
                            <use xlink:href="#path-15"></use>
                        </mask>
                        <g id="SVGID_1_"></g>
                        <path d="M60.6336424,243.016689 L63.6715232,234.984901 C63.7700662,234.984901 63.8696689,234.984901 63.9639735,235.079205 C65.6317881,236.156821 65.925298,238.114967 65.0437086,240.96 L65.5321854,241.25245 L68.9621192,232.238411 L68.3740397,231.94596 C67.2,234.686093 66.0238411,235.371656 64.3581457,234.295099 C64.2606623,234.100132 64.1610596,234.100132 63.9639735,234.002649 L66.317351,227.727682 C66.9075497,226.361854 67.101457,226.162649 68.0815894,226.751788 C70.2378808,228.223576 70.9223841,230.767682 69.9411921,234.588609 L70.5303311,234.98596 L72.7830464,228.809536 L63.184106,222.440265 L62.8874172,223.321854 L63.0834437,223.420397 C63.8696689,224.006358 63.8696689,224.597616 63.375894,225.769536 L57.6974834,241.055364 C57.2047682,242.327947 56.9123179,242.725298 56.1303311,242.13298 L55.834702,242.035497 L55.5422517,242.921325 L61.125298,246.543046 L61.4209272,245.660397 L60.9282119,245.367947 C60.1462252,244.776689 60.1462252,244.288212 60.6336424,243.016689" id="Shape" fill="#004B85" mask="url(#mask-16)"></path>
                    </g>
                    <g id="Clipped">
                        <mask id="mask-18" fill="white">
                            <use xlink:href="#path-17"></use>
                        </mask>
                        <g id="SVGID_1_"></g>
                        <path d="M76.8974834,230.669139 C75.0368212,231.648212 73.1740397,234.099073 71.8039735,238.113907 C69.450596,244.873113 70.3321854,250.754967 73.0776159,252.810596 C74.157351,253.689007 75.5274172,253.689007 76.8964238,253.006623 L76.8964238,248.502252 C75.6217219,251.632318 74.6437086,252.810596 73.3700662,251.832583 C71.5104636,250.462517 72.6855629,247.22649 74.9372185,240.464106 C75.7234437,238.313113 76.3072848,236.644238 76.8974834,235.175629 L76.8974834,230.669139 M80.6198675,230.962649 C79.447947,230.084238 78.1721854,229.985695 76.8974834,230.670199 L76.8974834,235.176689 C78.0715232,232.140927 78.9531126,230.962649 80.3284768,231.847417 C82.090596,233.214305 81.109404,236.351788 78.8566887,242.818543 L78.3671523,244.383576 C77.7780132,246.05351 77.2895364,247.423576 76.8964238,248.504371 L76.8964238,253.008742 C78.7560265,252.028609 80.5234437,249.578808 81.8945695,245.659338 C84.247947,238.899073 83.3621192,233.12 80.6198675,230.962649" id="Shape" fill="#004B85" mask="url(#mask-18)"></path>
                    </g>
                    <g id="Clipped">
                        <mask id="mask-20" fill="white">
                            <use xlink:href="#path-19"></use>
                        </mask>
                        <g id="SVGID_1_"></g>
                        <path d="M85.6190728,254.477351 L87.7711258,246.446623 C87.9692715,246.446623 88.0678146,246.641589 88.2649007,246.641589 C90.0238411,247.422517 90.0238411,248.405828 89.4378808,251.048477 C88.7533775,253.78755 88.2649007,255.65351 88.2649007,256.925033 C88.2649007,258.200795 88.7533775,259.275232 89.9274172,259.669404 C90.1245033,259.766887 90.3194702,259.868609 90.5165563,259.868609 L90.5165563,246.050331 C90.1245033,246.147815 89.6349669,246.147815 89.0458278,245.854305 L88.0678146,245.464371 L89.8309934,238.708344 C90.1234437,237.725033 90.2198675,237.236556 90.5154967,237.038411 L90.5154967,235.766887 L86.1086093,233.901987 L85.8119205,234.786755 L86.2039735,234.982781 C86.9901987,235.275232 87.0855629,235.766887 86.6977483,237.132715 L82.4815894,253.105166 C82.1891391,254.478411 81.8956291,254.770861 81.0108609,254.478411 L80.7184106,254.279205 L80.4259603,255.259338 L86.2050331,257.710199 L86.5006623,256.731126 L86.2050331,256.731126 C85.4219868,256.339073 85.3223841,255.749934 85.6190728,254.477351 L85.6190728,254.477351 Z M90.5165563,259.86755 C91.9883444,260.16 92.9663576,259.180927 93.5544371,257.022517 L93.7504636,256.338013 L93.0659603,255.944901 L92.9663576,256.237351 C92.5743046,257.802384 92.1801325,258.590728 91.6927152,258.297219 C91.2021192,258.198675 91.2021192,257.513113 91.4002649,256.53298 L91.6927152,255.257219 C92.8699338,251.046358 93.2598675,249.481325 90.8100662,247.323974 C93.3584106,247.713907 95.122649,246.340662 95.9035762,243.698013 C96.789404,240.170596 95.514702,237.91894 92.2818543,236.548874 L90.5176159,235.764768 L90.5176159,237.036291 C90.8100662,236.841325 91.1035762,236.935629 91.6927152,237.235497 C93.1623841,237.821457 93.3584106,239.09404 92.4768212,242.228344 C91.8866225,244.483179 91.3992053,245.657219 90.5165563,246.048212 L90.5165563,259.86755 L90.5165563,259.86755 Z" id="Shape" fill="#004B85" mask="url(#mask-20)"></path>
                    </g>
                    <g id="Clipped">
                        <mask id="mask-22" fill="white">
                            <use xlink:href="#path-21"></use>
                        </mask>
                        <g id="SVGID_1_"></g>
                        <path d="M105.211126,256.53404 L104.329536,256.139868 L104.233113,256.436556 C103.154437,261.139073 101.196291,262.899073 99.3324503,261.92 C96.9843709,260.744901 97.373245,257.314967 99.04,250.754967 C100.804238,243.601589 101.782252,240.074172 103.84106,241.153907 C105.503576,242.032318 106.193377,245.169801 105.801325,250.362914 L106.387285,250.655364 L108.34649,243.011391 L107.661987,242.624636 C107.369536,243.501987 107.076026,243.89298 106.88106,243.698013 C106.388344,243.501987 105.99947,241.153907 103.939603,240.073113 C100.901722,238.504901 97.5703311,241.641325 95.7107285,248.793642 C93.9486093,256.044503 95.1215894,261.62543 98.3565563,263.295364 C101.198411,264.759735 103.742517,262.019603 104.919735,257.41457 L105.211126,256.53404" id="Shape" fill="#004B85" mask="url(#mask-22)"></path>
                    </g>
                    <g id="Clipped">
                        <mask id="mask-24" fill="white">
                            <use xlink:href="#path-23"></use>
                        </mask>
                        <g id="SVGID_1_"></g>
                        <path d="M105.701722,265.25245 L116.280795,269.17404 L118.144636,262.313113 L117.556556,262.118146 C116.089007,265.743046 113.932715,267.308079 111.480795,266.329007 C110.502781,266.036556 110.502781,265.645563 110.796291,264.369801 L112.85404,255.846358 L113.052185,255.846358 C114.815364,256.53298 115.401325,258.297219 114.815364,261.134834 L115.401325,261.33404 L117.657219,251.924768 L117.068079,251.632318 C116.281854,254.574834 115.107815,255.553907 113.344636,254.868344 L113.14649,254.868344 L114.713642,248.203444 C115.009272,246.836556 115.302781,246.544106 116.089007,246.836556 C118.729536,247.816689 119.712848,249.772715 119.420397,254.184901 L120.004238,254.283444 L121.474967,247.910993 L110.796291,243.895099 L110.599205,244.779868 L110.894834,244.874172 C111.777483,245.166623 111.872848,245.756821 111.480795,247.130066 L107.660927,263.095099 C107.370596,264.468344 107.077086,264.765033 106.191258,264.468344 L105.898808,264.370861 L105.701722,265.25245" id="Shape" fill="#004B85" mask="url(#mask-24)"></path>
                    </g>
                    <g id="Clipped">
                        <mask id="mask-26" fill="white">
                            <use xlink:href="#path-25"></use>
                        </mask>
                        <g id="SVGID_1_"></g>
                        <path d="M126.472053,274.954172 L127.061192,275.246623 C127.549669,274.071523 127.942781,273.482384 128.331656,273.778013 C128.723709,273.970861 128.823311,274.660662 129.213245,275.344106 C129.704901,276.811656 130.486887,277.794967 131.369536,278.282384 C133.720795,279.753113 136.662252,277.793907 137.736689,273.872318 C138.913907,270.148874 138.032318,267.507285 135.877086,264.369801 C134.013245,261.727152 132.936689,260.256424 133.524768,257.903046 C134.114967,256.138808 135.485033,255.257219 136.758675,256.044503 C138.42649,256.922914 139.404503,260.548874 138.717881,265.056424 L139.404503,265.449536 L141.559735,258.004768 L140.875232,257.708079 C140.482119,258.688212 140.090066,259.082384 139.698013,258.883179 C139.207417,258.492185 138.815364,256.044503 137.052185,255.062252 C134.80053,253.692185 132.252185,255.453245 131.17245,258.980662 C130.487947,261.138013 130.58649,262.996556 131.272053,264.759735 C131.958675,266.332185 132.936689,267.311258 133.818278,268.779868 C135.09298,270.742252 135.584636,272.599735 134.895894,274.55894 C134.309934,276.810596 132.840265,277.888212 131.470199,277.107285 C129.606358,276.029669 128.824371,272.401589 129.70596,266.819603 L128.921854,266.42649 L126.472053,274.954172" id="Shape" fill="#004B85" mask="url(#mask-26)"></path>
                    </g>
                    <g id="Clipped">
                        <mask id="mask-28" fill="white">
                            <use xlink:href="#path-27"></use>
                        </mask>
                        <g id="SVGID_1_"></g>
                        <path d="M142.735894,280.929272 L144.98755,273.579868 L146.458278,274.458278 C147.048477,274.758146 147.535894,275.051656 148.02543,275.246623 L148.02543,273.483444 C147.435232,273.775894 146.850331,273.67947 146.065166,273.190993 L145.283179,272.699338 L147.633377,264.66755 C147.828344,264.274437 147.929007,263.981987 148.02543,263.688477 L148.02543,261.728212 L144.10596,259.274172 L143.909934,260.16 L144.205563,260.354967 C144.98649,260.843444 145.088212,261.533245 144.594437,262.802649 L139.792318,278.970066 C139.304901,280.340132 139.01245,280.632583 138.225166,280.245828 L137.932715,280.046623 L137.640265,280.929272 L143.420397,284.554172 L143.712848,283.575099 L143.222252,283.282649 C142.439205,282.790993 142.343841,282.205033 142.735894,280.929272 L142.735894,280.929272 Z M148.02543,275.247682 C150.572715,276.129272 152.333775,274.955232 153.314967,271.914172 C154.393642,268.190728 153.410331,265.060662 150.180662,263.098278 L148.02543,261.728212 L148.02543,263.688477 C148.222517,263.098278 148.514967,262.998675 149.19947,263.49245 C150.865166,264.468344 151.158675,266.232583 150.08106,269.857483 C149.395497,271.914172 148.807417,273.190993 148.02543,273.483444 L148.02543,275.247682 L148.02543,275.247682 Z" id="Shape" fill="#004B85" mask="url(#mask-28)"></path>
                    </g>
                    <g id="Clipped">
                        <mask id="mask-30" fill="white">
                            <use xlink:href="#path-29"></use>
                        </mask>
                        <g id="SVGID_1_"></g>
                        <path d="M154.198675,284.554172 L156.058278,277.596821 L156.058278,273.975099 L152.628344,286.415894 C151.943841,288.96 151.258278,290.041854 149.984636,289.745166 L149.78755,289.650861 L149.593642,290.431788 L154.099073,292.683444 L154.296159,291.411921 C152.82543,290.821722 153.11894,290.236821 153.11894,288.766093 C153.11894,288.375099 153.218543,287.887682 153.41457,287.396026 L153.70702,286.021722 L156.058278,286.021722 L156.058278,284.554172 L154.198675,284.554172 L154.198675,284.554172 Z M156.058278,277.595762 L156.647417,275.148079 L157.822517,284.455629 L156.058278,284.553113 L156.058278,286.020662 L158.21457,286.020662 L158.803709,290.040795 C158.803709,290.040795 158.900132,291.118411 157.62543,291.508344 L157.823576,292.488477 L163.702252,289.943311 L163.60053,289.25351 C162.332185,288.96106 161.251391,287.78596 161.056424,286.123444 L158.705166,269.857483 L157.233377,269.370066 L156.059338,273.975099 L156.059338,277.595762 L156.058278,277.595762 Z" id="Shape" fill="#004B85" mask="url(#mask-30)"></path>
                    </g>
                    <g id="Clipped">
                        <mask id="mask-32" fill="white">
                            <use xlink:href="#path-31"></use>
                        </mask>
                        <g id="SVGID_1_"></g>
                        <path d="M174.183841,273.09245 L173.399735,273.579868 L173.501457,273.872318 C174.579073,278.481589 173.988874,281.611656 172.029669,282.789934 C169.778013,284.163179 168.599735,281.221722 166.93298,274.758146 C165.168742,267.703311 164.388874,264.077351 166.441325,262.903311 C168.111258,261.923179 170.070464,263.49245 171.932185,267.898278 L172.617748,267.508344 L170.752848,259.86755 L170.069404,260.257483 C170.26543,261.233377 170.166887,261.728212 169.873377,261.923179 C169.476026,262.119205 168.008477,260.842384 166.05351,262.020662 C163.01351,263.784901 161.737748,269.46649 163.501987,276.421722 C165.366887,283.675762 168.696159,286.610861 171.832583,284.749139 C174.671258,283.083444 175.556026,278.481589 174.475232,273.970861 L174.183841,273.09245" id="Shape" fill="#004B85" mask="url(#mask-32)"></path>
                    </g>
                    <g id="Clipped">
                        <mask id="mask-34" fill="white">
                            <use xlink:href="#path-33"></use>
                        </mask>
                        <g id="SVGID_1_"></g>
                        <path d="M178.199735,279.65351 L189.075497,273.775894 L187.803974,266.724238 L187.214834,267.016689 C187.506225,271.231788 186.231523,274.264371 183.788079,275.540132 C182.710464,276.129272 182.515497,275.835762 182.316291,274.556821 L180.553113,265.841589 L180.845563,265.743046 C182.514437,264.759735 183.78702,265.743046 184.474702,268.483179 L185.060662,268.190728 L183.19894,258.590728 L182.608742,258.983841 C183.002914,262.019603 182.409536,263.783841 180.649536,264.759735 L180.450331,264.858278 L179.084503,258.199735 C178.792053,256.82649 178.885298,256.338013 179.767947,255.843179 C182.409536,254.378808 184.07947,255.159735 185.645563,258.983841 L186.231523,258.590728 L184.864636,252.127152 L173.987815,258.00053 L174.086358,258.983841 L174.378808,258.784636 C175.263576,258.297219 175.556026,258.687152 175.849536,260.060397 L178.979603,276.221457 C179.27947,277.594702 179.085563,278.086358 178.296159,278.578013 L178.003709,278.77404 L178.199735,279.65351" id="Shape" fill="#004B85" mask="url(#mask-34)"></path>
                    </g>
                    <g id="Clipped">
                        <mask id="mask-36" fill="white">
                            <use xlink:href="#path-35"></use>
                        </mask>
                        <g id="SVGID_1_"></g>
                        <path d="M207.983046,255.258278 L207.19894,255.65245 L207.19894,256.045563 C208.08053,260.647417 207.299603,263.784901 205.340397,264.663311 C202.98702,265.744106 201.910464,262.606623 200.634702,255.944901 C199.261457,248.69404 198.675497,245.071258 200.931391,244.089007 C202.593907,243.405563 204.45457,245.170861 206.121325,249.771656 L206.710464,249.479205 L205.242914,241.642384 L204.553113,241.934834 C204.654834,242.913907 204.654834,243.405563 204.357086,243.501987 C203.869669,243.698013 202.593907,242.227285 200.537219,243.112053 C197.402914,244.583841 195.837881,249.965563 197.207947,257.216424 C198.578013,264.567947 201.711258,267.995762 204.946225,266.523974 C207.884503,265.255629 208.962119,260.845563 208.178013,256.138808 L207.983046,255.258278" id="Shape" fill="#004B85" mask="url(#mask-36)"></path>
                    </g>
                    <g id="Clipped">
                        <mask id="mask-38" fill="white">
                            <use xlink:href="#path-37"></use>
                        </mask>
                        <g id="SVGID_1_"></g>
                        <path d="M213.372185,236.843444 C210.430728,238.114967 208.572185,243.504106 209.847947,250.85351 C210.922384,256.535099 213.079735,259.966093 215.428874,260.550993 L215.428874,258.494305 C214.644768,256.926093 214.157351,253.886093 213.373245,249.483444 C212.100662,242.131921 211.511523,238.700927 213.568212,237.822517 C214.352318,237.530066 214.942517,237.822517 215.429934,238.896954 L215.429934,236.742781 C214.74543,236.549934 214.058808,236.549934 213.372185,236.843444 L213.372185,236.843444 Z M215.428874,260.550993 C216.115497,260.74596 216.803179,260.74596 217.485563,260.45245 C220.525563,259.180927 222.191258,253.592583 220.915497,246.34596 C219.939603,240.760795 217.781192,237.330861 215.427815,236.742781 L215.427815,238.896954 C216.114437,240.274437 216.703576,243.114172 217.388079,247.326093 L217.68053,248.991788 C218.857748,255.551788 219.151258,258.592848 217.289536,259.474437 C216.509669,259.766887 215.916291,259.380132 215.427815,258.494305 L215.427815,260.550993 L215.428874,260.550993 Z" id="Shape" fill="#004B85" mask="url(#mask-38)"></path>
                    </g>
                    <g id="Clipped">
                        <mask id="mask-40" fill="white">
                            <use xlink:href="#path-39"></use>
                        </mask>
                        <g id="SVGID_1_"></g>
                        <path d="M244.038146,249.970861 L247.269934,248.104901 L247.269934,247.129007 C246.099073,248.104901 246.099073,247.031523 245.115762,244.681325 L241.002384,228.513907 L249.232318,247.127947 L250.407417,246.340662 L247.761589,224.98649 L253.342517,241.836291 C253.541722,242.71894 253.248212,243.795497 252.464106,244.970596 L252.366623,245.754702 L257.853245,242.031258 L257.658278,241.247152 C256.77245,241.933775 256.382517,241.933775 255.796556,239.877086 L251.285828,224.298808 C251.383311,222.633113 251.383311,221.94543 252.170596,221.456954 L252.170596,220.282914 L246.977483,223.221192 L248.545695,237.523709 L243.449007,225.86702 L237.571391,228.414305 L238.063046,229.589404 L239.140662,229.195232 C240.314702,228.805298 240.903841,230.568477 240.903841,230.763444 L244.237351,244.574305 C245.018278,247.028344 244.920795,248.791523 244.038146,249.28 L243.745695,249.182517 L244.038146,249.970861" id="Shape" fill="#004B85" mask="url(#mask-40)"></path>
                    </g>
                    <g id="Clipped">
                        <mask id="mask-42" fill="white">
                            <use xlink:href="#path-41"></use>
                        </mask>
                        <g id="SVGID_1_"></g>
                        <path d="M270.492185,228.416424 L273.235497,223.808212 L272.646358,223.222252 C271.763709,224.69404 271.078146,224.100662 269.801325,222.336424 L263.240265,213.231258 L276.661192,218.125563 L278.13298,215.482914 L269.216424,203.136424 C267.940662,201.372185 267.549669,200.393113 268.333775,198.828079 L267.842119,198.142517 L265.20053,202.74755 L265.687947,203.430993 C266.570596,201.959205 267.354702,202.356556 268.630464,204.117616 L274.409536,212.152583 L262.261192,207.844238 L259.319735,212.940927 L259.712848,213.526887 L259.811391,213.429404 C260.689801,211.957616 261.184636,212.153642 262.16053,213.624371 L269.313907,223.420397 C270.492185,225.086093 270.882119,226.061987 270.00053,227.731921 L270.492185,228.416424" id="Shape" fill="#004B85" mask="url(#mask-42)"></path>
                    </g>
                    <g id="Clipped">
                        <mask id="mask-44" fill="white">
                            <use xlink:href="#path-43"></use>
                        </mask>
                        <g id="SVGID_1_"></g>
                        <path d="M277.345695,185.799205 C274.703046,184.034967 272.548874,184.034967 271.273113,185.603179 C270.394702,186.680795 270.095894,188.245828 269.708079,190.205033 L268.529801,197.259868 L269.11894,197.850066 L269.217483,197.358411 C269.41245,196.183311 269.803444,196.183311 270.688212,196.967417 L277.346755,202.455099 L277.346755,197.163444 L271.472318,192.363444 C270.590728,191.579338 270.295099,190.993377 270.493245,189.816159 C271.079205,186.287682 273.037351,187.661987 277.346755,191.189404 L277.346755,185.799205 L277.345695,185.799205 Z M284.697219,202.259073 C285.677351,196.378278 283.52,190.798411 278.816424,186.875762 C278.230464,186.387285 277.84053,186.091656 277.345695,185.798146 L277.345695,191.187285 C277.446358,191.383311 277.644503,191.479735 277.738808,191.577219 L278.329007,192.065695 C282.539868,195.596291 284.697219,197.454834 284.108079,200.982252 C283.912053,202.355497 283.51894,202.355497 282.636291,201.57245 L277.345695,197.162384 L277.345695,202.45404 L281.856424,206.177483 C282.734834,206.957351 283.027285,207.453245 282.734834,208.721589 L282.734834,209.115762 L283.424636,209.704901 L284.697219,202.259073 L284.697219,202.259073 Z" id="Shape" fill="#004B85" mask="url(#mask-44)"></path>
                    </g>
                    <g id="Clipped">
                        <mask id="mask-46" fill="white">
                            <use xlink:href="#path-45"></use>
                        </mask>
                        <g id="SVGID_1_"></g>
                        <path d="M225.81298,257.022517 L230.812185,255.062252 L230.519735,254.378808 C228.752318,255.062252 227.483974,254.281325 226.598146,250.948874 L222.778278,235.666225 L232.183311,254.473113 L232.77245,252.90702 L230.813245,232.137748 L236.296689,249.770596 C236.296689,250.947815 236.296689,250.947815 235.316556,251.338808 L234.243179,252.90596 L235.316556,252.90596 L241.783311,250.946755 L241.888212,248.98755 L240.511788,249.768477 C239.825166,249.768477 239.825166,249.768477 239.825166,248.299868 L235.223311,232.135629 L235.223311,230.176424 L236.297748,229.49298 L236.395232,228.997086 L230.814305,232.13457 L230.814305,245.165563 L225.620132,233.703841 L220.039205,235.663046 L220.331656,236.737483 C221.405033,235.956556 222.091656,235.956556 222.091656,238.599205 L226.696689,252.904901 C227.090861,254.376689 227.778543,255.059073 226.696689,255.746755 L225.619073,256.335894 L225.81298,257.022517" id="Shape" fill="#004B85" mask="url(#mask-46)"></path>
                    </g>
                    <g id="Clipped">
                        <mask id="mask-48" fill="white">
                            <use xlink:href="#path-47"></use>
                        </mask>
                        <g id="SVGID_1_"></g>
                        <path d="M76.2129801,115.847417 C80.4259603,115.847417 83.855894,112.417483 83.855894,108.304106 C83.855894,104.092185 80.4259603,100.662252 76.2129801,100.662252 C72.0974834,100.662252 68.6707285,104.092185 68.6707285,108.304106 C68.6707285,112.417483 72.0974834,115.847417 76.2129801,115.847417" id="Shape" fill="#FFFFFF" mask="url(#mask-48)"></path>
                    </g>
                    <g id="Clipped">
                        <mask id="mask-50" fill="white">
                            <use xlink:href="#path-49"></use>
                        </mask>
                        <g id="SVGID_1_"></g>
                        <path d="M76.3104636,114.867285 C79.9343046,114.867285 82.8757616,111.925828 82.8757616,108.304106 C82.8757616,104.680265 79.9343046,101.642384 76.3104636,101.642384 C72.6845033,101.642384 69.7462252,104.680265 69.7462252,108.304106 C69.7451656,111.925828 72.6845033,114.867285 76.3104636,114.867285" id="Shape" fill="#C2C4C6" mask="url(#mask-50)"></path>
                    </g>
                    <g id="Clipped">
                        <mask id="mask-52" fill="white">
                            <use xlink:href="#path-51"></use>
                        </mask>
                        <g id="SVGID_1_"></g>
                        <path d="M77.584106,112.909139 C80.7184106,112.909139 83.3642384,110.263311 83.3642384,107.029404 C83.3642384,103.794437 80.7184106,101.150728 77.584106,101.150728 C74.3512583,101.150728 71.8050331,103.794437 71.8050331,107.029404 C71.8050331,110.263311 74.3512583,112.909139 77.584106,112.909139" id="Shape" fill="#FFFFFF" mask="url(#mask-52)"></path>
                    </g>
                    <g id="Clipped">
                        <mask id="mask-54" fill="white">
                            <use xlink:href="#path-53"></use>
                        </mask>
                        <g id="SVGID_1_"></g>
                        <path d="M12.6272848,196.085828 C5.47390728,194.321589 1.45801325,184.327417 3.70966887,179.234967 C10.7666225,168.752318 11.746755,161.010861 12.1388079,152.88053 C16.7438411,159.541192 24.9695364,162.286623 31.4384106,162.087417 C25.9539073,176.881589 15.5666225,180.901722 12.6272848,196.085828" id="Shape" fill="#FFFFFF" mask="url(#mask-54)"></path>
                    </g>
                    <g id="Clipped">
                        <mask id="mask-56" fill="white">
                            <use xlink:href="#path-55"></use>
                        </mask>
                        <g id="SVGID_1_"></g>
                        <path d="M24.8741722,156.994967 L27.912053,147.587815 C31.0463576,149.744106 33.1062252,152.877351 32.8095364,155.720265 C32.4174834,158.758146 28.5986755,158.365033 24.8741722,156.994967" id="Shape" fill="#FFFFFF" mask="url(#mask-56)"></path>
                    </g>
                    <g id="Clipped">
                        <mask id="mask-58" fill="white">
                            <use xlink:href="#path-57"></use>
                        </mask>
                        <g id="SVGID_1_"></g>
                        <path d="M298.020662,196.085828 C305.17404,194.321589 309.188874,184.327417 306.937219,179.234967 C299.885563,168.752318 298.902252,161.010861 298.508079,152.88053 C293.903046,159.541192 285.677351,162.286623 279.207417,162.087417 C284.596556,176.881589 295.078146,180.901722 298.020662,196.085828" id="Shape" fill="#FFFFFF" mask="url(#mask-58)"></path>
                    </g>
                    <g id="Clipped">
                        <mask id="mask-60" fill="white">
                            <use xlink:href="#path-59"></use>
                        </mask>
                        <g id="SVGID_1_"></g>
                        <path d="M285.481325,156.994967 L282.442384,147.587815 C279.308079,149.744106 277.25245,152.877351 277.544901,155.720265 C277.938013,158.758146 281.757881,158.365033 285.481325,156.994967" id="Shape" fill="#FFFFFF" mask="url(#mask-60)"></path>
                    </g>
                    <g id="Clipped">
                        <mask id="mask-62" fill="white">
                            <use xlink:href="#path-61"></use>
                        </mask>
                        <g id="SVGID_1_"></g>
                        <path d="M155.568742,175.219073 C190.448742,175.219073 218.956291,146.803709 218.956291,111.829404 C218.956291,76.7554967 190.448742,48.2447682 155.568742,48.2447682 C120.594437,48.2447682 91.984106,76.7554967 91.984106,111.829404 C91.9851656,146.803709 120.595497,175.219073 155.568742,175.219073" id="Shape" fill="#FFFFFF" mask="url(#mask-62)"></path>
                    </g>
                    <g id="Clipped">
                        <mask id="mask-64" fill="white">
                            <use xlink:href="#path-63"></use>
                        </mask>
                        <g id="SVGID_1_"></g>
                        <path d="M155.568742,172.378278 C188.976954,172.378278 216.211921,145.141192 216.211921,111.73404 C216.211921,78.2262252 188.976954,50.8916556 155.568742,50.8916556 C122.061987,50.8916556 94.7284768,78.2262252 94.7284768,111.73404 C94.7284768,145.141192 122.061987,172.378278 155.568742,172.378278" id="Shape" fill="#009DDD" mask="url(#mask-64)"></path>
                    </g>
                    <g id="Clipped">
                        <mask id="mask-66" fill="white">
                            <use xlink:href="#path-65"></use>
                        </mask>
                        <g id="SVGID_1_"></g>
                        <path d="M93.9507285,111.731921 C93.9507285,77.7917881 121.62649,50.1149669 155.568742,50.1149669 L155.568742,50.1149669 C189.406093,50.1149669 216.98649,77.7917881 216.98649,111.731921 L216.98649,111.731921 C216.98649,145.571391 189.406093,173.151788 155.568742,173.151788 L155.568742,173.151788 L155.568742,172.378278 L155.568742,171.601589 C188.544636,171.541192 215.375894,144.710993 215.435232,111.73298 L215.435232,111.73298 C215.375894,78.6511258 188.538278,51.7245033 155.568742,51.6662252 L155.568742,51.6662252 C122.494305,51.7245033 95.5602649,78.6511258 95.5019868,111.73298 L95.5019868,111.73298 C95.5613245,144.703576 122.487947,171.541192 155.568742,171.601589 L155.568742,171.601589 L155.568742,172.378278 L155.568742,173.151788 C121.634967,173.151788 93.9507285,145.571391 93.9507285,111.731921 L93.9507285,111.731921 L93.9507285,111.731921 Z" id="Shape" fill="#000000" mask="url(#mask-66)"></path>
                    </g>
                    <g id="Clipped">
                        <mask id="mask-68" fill="white">
                            <use xlink:href="#path-67"></use>
                        </mask>
                        <g id="SVGID_1_"></g>
                        <path d="M94.7274172,112.567947 L94.7274172,111.083444 L216.217219,111.083444 L216.217219,112.567947 L94.7274172,112.567947 L94.7274172,112.567947 Z" id="Shape" fill="#000000" mask="url(#mask-68)"></path>
                    </g>
                    <g id="Clipped">
                        <mask id="mask-70" fill="white">
                            <use xlink:href="#path-69"></use>
                        </mask>
                        <g id="SVGID_1_"></g>
                        <path d="M120.18543,62.5038411 L121.19947,61.4166887 C128.736424,68.4916556 141.81404,72.8847682 155.470199,72.877351 L155.470199,72.877351 C169.024636,72.8847682 182.10755,68.490596 189.644503,61.4166887 L189.644503,61.4166887 L189.644503,61.4251656 L190.658543,62.5049007 C182.717881,69.9337748 169.345695,74.3554967 155.470199,74.3618543 L155.470199,74.3618543 C141.496159,74.3544371 128.126093,69.9327152 120.18543,62.5038411 L120.18543,62.5038411 L120.18543,62.5038411 Z M136.471523,54.3872848 L137.632848,53.4686093 C140.608212,57.3033113 147.794437,59.9629139 155.470199,59.9470199 L155.470199,59.9470199 C163.140662,59.9629139 170.332185,57.3033113 173.30543,53.4686093 L173.30543,53.4686093 L174.474172,54.3872848 C170.977483,58.7856954 163.468079,61.4092715 155.470199,61.4315232 L155.470199,61.4315232 C147.469139,61.4092715 139.962914,58.7856954 136.471523,54.3872848 L136.471523,54.3872848 L136.471523,54.3872848 Z" id="Shape" fill="#000000" mask="url(#mask-70)"></path>
                    </g>
                    <g id="Clipped">
                        <mask id="mask-72" fill="white">
                            <use xlink:href="#path-71"></use>
                        </mask>
                        <g id="SVGID_1_"></g>
                        <path d="M106.527152,111.831523 C106.53457,86.8948344 119.160795,63.8230464 137.909404,54.9181457 L137.909404,54.9181457 L138.547285,56.2627815 C120.460927,64.8084768 108.004238,87.3886093 108.011656,111.831523 L108.011656,111.831523 C108.004238,136.474702 120.547815,158.841854 138.739073,167.194702 L138.739073,167.194702 L138.114967,168.542517 C119.256159,159.847417 106.53457,136.950464 106.527152,111.831523 L106.527152,111.831523 L106.527152,111.831523 Z M123.381192,111.831523 C123.397086,88.4513907 130.715762,67.2381457 142.363974,57.6656954 L142.363974,57.6656954 L143.303841,58.8111258 C132.21298,67.8527152 124.842384,88.7597351 124.865695,111.831523 L124.865695,111.831523 C124.843444,134.793113 132.410066,156.00106 143.392848,164.743841 L143.392848,164.743841 L142.466755,165.901987 C130.912848,156.616689 123.397086,135.108874 123.381192,111.831523 L123.381192,111.831523 L123.381192,111.831523 Z" id="Shape" fill="#000000" mask="url(#mask-72)"></path>
                    </g>
                    <g id="Clipped">
                        <mask id="mask-74" fill="white">
                            <use xlink:href="#path-73"></use>
                        </mask>
                        <g id="SVGID_1_"></g>
                        <path d="M139.050596,111.729801 C139.071788,89.0945695 142.931921,68.5086093 148.77457,59.5899338 L148.77457,59.5899338 L148.77457,59.5984106 L150.015364,60.413245 C144.488477,68.7417219 140.518146,89.3011921 140.53298,111.730861 L140.53298,111.730861 C140.518146,134.065166 144.495894,154.621457 150.015364,162.85457 L150.015364,162.85457 L148.77457,163.677881 C142.93298,154.856689 139.071788,134.270728 139.050596,111.729801 L139.050596,111.729801 L139.050596,111.729801 Z" id="Shape" fill="#000000" mask="url(#mask-74)"></path>
                    </g>
                    <g id="Clipped">
                        <mask id="mask-76" fill="white">
                            <use xlink:href="#path-75"></use>
                        </mask>
                        <g id="SVGID_1_"></g>
                        <path d="M172.200265,167.089801 C190.48053,158.642649 202.931921,136.37404 202.931921,111.633377 L202.931921,111.633377 C202.939338,87.189404 190.48053,64.7046358 172.492715,56.1642384 L172.492715,56.1642384 L173.127417,54.8270199 C191.780662,63.7202649 204.406887,86.6945695 204.416424,111.632318 L204.416424,111.632318 C204.405828,136.857219 191.773245,159.649272 172.830728,168.436556 L172.830728,168.436556 L172.200265,167.089801 L172.200265,167.089801 L172.200265,167.089801 Z M154.82596,163.06755 L154.82596,60.9790728 L156.310464,60.9790728 L156.310464,163.06755 L154.82596,163.06755 L154.82596,163.06755 L154.82596,163.06755 Z" id="Shape" fill="#000000" mask="url(#mask-76)"></path>
                    </g>
                    <g id="Clipped">
                        <mask id="mask-78" fill="white">
                            <use xlink:href="#path-77"></use>
                        </mask>
                        <g id="SVGID_1_"></g>
                        <path d="M167.643974,164.541457 C178.617219,155.800795 186.192318,134.689272 186.178543,111.630199 L186.178543,111.630199 C186.192318,88.6611921 178.823841,67.7552318 167.636556,58.6172185 L167.636556,58.6172185 L168.578543,57.4643709 C180.315762,67.138543 187.638675,88.3507285 187.664106,111.630199 L187.664106,111.630199 C187.639735,135.011391 180.123974,156.417483 168.578543,165.709139 L168.578543,165.709139 L167.643974,164.541457 L167.643974,164.541457 L167.643974,164.541457 Z" id="Shape" fill="#000000" mask="url(#mask-78)"></path>
                    </g>
                    <g id="Clipped">
                        <mask id="mask-80" fill="white">
                            <use xlink:href="#path-79"></use>
                        </mask>
                        <g id="SVGID_1_"></g>
                        <path d="M160.919735,162.655364 C166.448742,154.423311 170.419073,133.86702 170.40106,111.540132 L170.40106,111.540132 C170.404238,109.081854 170.355497,106.646887 170.26543,104.244768 L170.26543,104.244768 C165.388079,104.757616 160.39947,105.024636 155.375894,105.024636 L155.375894,105.024636 C133.797086,105.024636 112.543576,100.019073 97.986755,91.8060927 L97.986755,91.8060927 L98.7157616,90.5123179 C112.962119,98.554702 134.032318,103.548609 155.376954,103.548609 L155.376954,103.548609 C160.380397,103.548609 165.346755,103.277351 170.202914,102.760265 L170.202914,102.760265 C169.983576,97.9539073 169.578808,93.3033113 169.024636,88.9207947 L169.024636,88.9207947 C164.615629,89.5184106 160.065695,89.8341722 155.471258,89.8352318 L155.471258,89.8352318 C136.130331,89.8288742 117.682649,84.3369536 106.896954,75.4617219 L106.896954,75.4617219 L107.83894,74.3152318 C118.21245,82.88 136.409007,88.3655629 155.471258,88.3581457 L155.471258,88.3581457 C160.00106,88.3602649 164.486358,88.0476821 168.832848,87.4553642 L168.832848,87.4553642 C167.179868,75.3610596 164.350728,65.4802649 160.919735,60.3104636 L160.919735,60.3104636 L160.927152,60.3104636 L162.16053,59.4945695 C165.78649,65.0225166 168.651656,75.0463576 170.304636,87.2434437 L170.304636,87.2434437 C183.558146,85.2291391 195.388609,80.6007947 203.001854,74.3141722 L203.001854,74.3141722 L203.008212,74.3141722 L203.950199,75.4606623 C196.023311,81.9793377 183.966093,86.6733775 170.496424,88.7088742 L170.496424,88.7088742 C171.053775,93.1083444 171.451126,97.770596 171.677881,102.593907 L171.677881,102.593907 C187.152318,100.779868 201.395497,96.4460927 211.91947,90.3205298 L211.91947,90.3205298 L212.668609,91.5994702 C201.879735,97.8776159 187.424636,102.260132 171.741457,104.08053 L171.741457,104.08053 C171.834702,106.531391 171.887682,109.023576 171.887682,111.538013 L171.887682,111.538013 C171.86649,134.071523 168.008477,154.656424 162.161589,163.477616 L162.161589,163.477616 L160.919735,162.655364 L160.919735,162.655364 L160.919735,162.655364 Z" id="Shape" fill="#000000" mask="url(#mask-80)"></path>
                    </g>
                    <g id="Clipped">
                        <mask id="mask-82" fill="white">
                            <use xlink:href="#path-81"></use>
                        </mask>
                        <g id="SVGID_1_"></g>
                        <path d="M136.466225,169.070199 C139.962914,164.677086 147.46596,162.049272 155.470199,162.028079 L155.470199,162.028079 C163.464901,162.049272 170.977483,164.677086 174.469934,169.070199 L174.469934,169.070199 L174.477351,169.077616 L173.303311,169.986755 C170.329007,166.156291 163.141722,163.495629 155.471258,163.513642 L155.471258,163.513642 C147.796556,163.495629 140.609272,166.156291 137.634967,169.994172 L137.634967,169.994172 L136.466225,169.070199 L136.466225,169.070199 L136.466225,169.070199 Z" id="Shape" fill="#000000" mask="url(#mask-82)"></path>
                    </g>
                    <g id="Clipped">
                        <mask id="mask-84" fill="white">
                            <use xlink:href="#path-83"></use>
                        </mask>
                        <g id="SVGID_1_"></g>
                        <path d="M155.473377,150.583311 C141.817219,150.576954 128.733245,155.064371 121.196291,161.948609 L121.196291,161.948609 L120.188609,160.855099 C128.129272,153.632848 141.49298,149.108344 155.473377,149.100927 L155.473377,149.100927 C169.349934,149.108344 182.713642,153.631788 190.647947,160.855099 L190.647947,160.855099 L190.654305,160.855099 L189.647682,161.948609 C182.110728,155.06543 169.021457,150.576954 155.473377,150.583311 L155.473377,150.583311 L155.473377,150.583311 Z" id="Shape" fill="#000000" mask="url(#mask-84)"></path>
                    </g>
                    <g id="Clipped">
                        <mask id="mask-86" fill="white">
                            <use xlink:href="#path-85"></use>
                        </mask>
                        <g id="SVGID_1_"></g>
                        <path d="M155.46596,135.301722 C136.409007,135.292185 118.203974,140.775629 107.833642,149.242914 L107.833642,149.242914 L106.891656,148.089007 C117.686887,139.313377 136.128212,133.822517 155.46596,133.816159 L155.46596,133.816159 C174.72106,133.822517 193.153907,139.313377 203.942781,148.089007 L203.942781,148.089007 L203.950199,148.089007 L203.001854,149.242914 C192.634702,140.775629 174.42755,135.293245 155.46596,135.301722 L155.46596,135.301722 L155.46596,135.301722 Z" id="Shape" fill="#000000" mask="url(#mask-86)"></path>
                    </g>
                    <g id="Clipped">
                        <mask id="mask-88" fill="white">
                            <use xlink:href="#path-87"></use>
                        </mask>
                        <g id="SVGID_1_"></g>
                        <path d="M155.371656,120.012715 C134.029139,120.012715 112.96,124.998146 98.7189404,133.049007 L98.7189404,133.049007 L97.9899338,131.753113 C112.539338,123.542252 133.802384,118.53457 155.370596,118.528212 L155.370596,118.528212 C177.139073,118.535629 198.203974,123.542252 212.663311,131.959735 L212.663311,131.959735 L212.670728,131.959735 L211.914172,133.238675 C197.775894,124.998146 176.90596,120.012715 155.371656,120.012715 L155.371656,120.012715 L155.371656,120.012715 Z" id="Shape" fill="#000000" mask="url(#mask-88)"></path>
                    </g>
                    <g id="Clipped">
                        <mask id="mask-90" fill="white">
                            <use xlink:href="#path-89"></use>
                        </mask>
                        <g id="SVGID_1_"></g>
                        <path d="M109.521589,65.6847682 C89.5374834,56.6717881 75.133245,52.6527152 72.6834437,55.0060927 C67.8823841,59.6090066 100.704636,87.2381457 147.045298,115.259338 C193.289536,142.494305 237.180397,160.031788 240.512848,155.818808 C242.371391,153.46755 234.140397,143.668344 217.778013,131.032583 L218.371391,129.168742 C238.551523,143.965033 247.76053,155.425695 245.017219,159.541192 C241.587285,164.731126 193.188874,146.901192 144.299868,117.901987 C94.9223841,88.4164238 60.6336424,58.9234437 66.5123179,52.8498013 C69.8437086,49.5184106 87.2837086,53.0458278 110.893775,64.2140397 L109.521589,65.6847682" id="Shape" fill="#FFFFFF" mask="url(#mask-90)"></path>
                    </g>
                    <g id="Clipped">
                        <mask id="mask-92" fill="white">
                            <use xlink:href="#path-91"></use>
                        </mask>
                        <g id="SVGID_1_"></g>
                        <path d="M201.52053,65.6847682 C221.408212,56.6717881 235.905695,52.6527152 238.356556,55.0060927 C243.156556,59.6090066 210.333245,87.2381457 163.994702,115.259338 C117.750464,142.494305 73.8606623,160.031788 70.4328477,155.818808 C68.573245,153.46755 76.898543,143.668344 93.1645033,131.032583 L92.6707285,129.168742 C72.4895364,143.965033 63.2794702,155.425695 66.0249007,159.541192 C69.3552318,164.731126 117.852185,146.901192 166.738013,117.901987 C216.019073,88.4153642 250.308874,58.9223841 244.432318,52.8476821 C241.098808,49.5162914 223.659868,53.0437086 200.147285,64.2119205 L201.52053,65.6847682" id="Shape" fill="#FFFFFF" mask="url(#mask-92)"></path>
                    </g>
                    <g id="Clipped">
                        <mask id="mask-94" fill="white">
                            <use xlink:href="#path-93"></use>
                        </mask>
                        <g id="SVGID_1_"></g>
                        <path d="M155.568742,146.609801 L198.871523,172.573245 L155.568742,37.666755 L112.26702,172.573245 L155.568742,146.609801 Z" id="Shape" fill="#D5D7D8" mask="url(#mask-94)"></path>
                    </g>
                    <g id="Clipped">
                        <mask id="mask-96" fill="white">
                            <use xlink:href="#path-95"></use>
                        </mask>
                        <g id="SVGID_1_"></g>
                        <path d="M155.564503,147.809272 L110.443444,174.85245 L155.564503,34.3184106 L200.69404,174.866225 L155.564503,147.809272 L155.564503,147.809272 L155.564503,147.809272 Z M197.051126,170.286623 L155.564503,41.0288742 L114.08106,170.286623 L155.036821,145.728212 L155.564503,145.405033 L197.051126,170.286623 L197.051126,170.286623 L197.051126,170.286623 Z" id="Shape" fill="#000000" mask="url(#mask-96)"></path>
                    </g>
                    <g id="Clipped">
                        <mask id="mask-98" fill="white">
                            <use xlink:href="#path-97"></use>
                        </mask>
                        <g id="SVGID_1_"></g>
                        <path d="M155.568742,146.609801 L112.26702,172.573245 L155.568742,37.666755 L155.568742,146.609801 Z" id="Shape" fill="#E4E5E6" mask="url(#mask-98)"></path>
                    </g>
                    <g id="Clipped">
                        <mask id="mask-100" fill="white">
                            <use xlink:href="#path-99"></use>
                        </mask>
                        <g id="SVGID_1_"></g>
                        <path d="M155.568742,146.609801 L198.777219,172.573245 L155.568742,37.666755 L155.568742,146.609801 Z" id="Shape" fill="#C2C4C6" mask="url(#mask-100)"></path>
                    </g>
                    <g id="Clipped">
                        <mask id="mask-102" fill="white">
                            <use xlink:href="#path-101"></use>
                        </mask>
                        <g id="SVGID_1_"></g>
                        <path d="M155.568742,146.707285 L112.167417,172.670728 L155.568742,128.288212 L155.568742,146.707285 Z" id="Shape" fill="#77787B" mask="url(#mask-102)"></path>
                    </g>
                    <g id="Clipped">
                        <mask id="mask-104" fill="white">
                            <use xlink:href="#path-103"></use>
                        </mask>
                        <g id="SVGID_1_"></g>
                        <path d="M155.568742,146.805828 L198.871523,172.573245 L155.568742,128.289272 L155.568742,146.805828 Z" id="Shape" fill="#999B9E" mask="url(#mask-104)"></path>
                    </g>
                    <g id="Clipped">
                        <mask id="mask-106" fill="white">
                            <use xlink:href="#path-105"></use>
                        </mask>
                        <g id="SVGID_1_"></g>
                        <path d="M116.380397,90.864106 L124.119735,94.2929801 L116.380397,97.7207947 L112.361325,113.983576 L108.249007,97.7207947 L100.606093,94.2929801 L108.34543,90.7676821 L112.264901,82.5366887 L116.380397,90.864106 Z" id="Shape" fill="#FFF200" mask="url(#mask-106)"></path>
                    </g>
                    <g id="Clipped">
                        <mask id="mask-108" fill="white">
                            <use xlink:href="#path-107"></use>
                        </mask>
                        <g id="SVGID_1_"></g>
                        <path d="M116.48,90.864106 L112.362384,82.5366887 L112.362384,94.2929801 L116.48,90.864106 Z" id="Shape" fill="#C5A901" mask="url(#mask-108)"></path>
                    </g>
                    <g id="Clipped">
                        <mask id="mask-110" fill="white">
                            <use xlink:href="#path-109"></use>
                        </mask>
                        <g id="SVGID_1_"></g>
                        <path d="M100.705695,94.2929801 L108.247947,97.7239735 L112.362384,94.2929801 L100.705695,94.2929801 Z" id="Shape" fill="#C5A901" mask="url(#mask-110)"></path>
                    </g>
                    <g id="Clipped">
                        <mask id="mask-112" fill="white">
                            <use xlink:href="#path-111"></use>
                        </mask>
                        <g id="SVGID_1_"></g>
                        <path d="M124.120795,94.2929801 L116.477881,97.7239735 L112.461987,113.886093 L112.461987,94.2929801 L124.120795,94.2929801 Z" id="Shape" fill="#C5A901" mask="url(#mask-112)"></path>
                    </g>
                    <g id="Clipped">
                        <mask id="mask-114" fill="white">
                            <use xlink:href="#path-113"></use>
                        </mask>
                        <g id="SVGID_1_"></g>
                        <path d="M202.69457,90.864106 L210.433907,94.2929801 L202.69457,97.7207947 L198.675497,113.983576 L194.562119,97.7207947 L187.018808,94.2929801 L194.758146,90.7676821 L198.578013,82.5366887 L202.69457,90.864106 Z" id="Shape" fill="#FFF200" mask="url(#mask-114)"></path>
                    </g>
                    <g id="Clipped">
                        <mask id="mask-116" fill="white">
                            <use xlink:href="#path-115"></use>
                        </mask>
                        <g id="SVGID_1_"></g>
                        <path d="M202.793113,90.864106 L198.578013,82.5366887 L198.578013,94.2929801 L202.793113,90.864106 Z" id="Shape" fill="#C5A901" mask="url(#mask-116)"></path>
                    </g>
                    <g id="Clipped">
                        <mask id="mask-118" fill="white">
                            <use xlink:href="#path-117"></use>
                        </mask>
                        <g id="SVGID_1_"></g>
                        <path d="M187.018808,94.2929801 L194.562119,97.7239735 L198.578013,94.2929801 L187.018808,94.2929801 Z" id="Shape" fill="#C5A901" mask="url(#mask-118)"></path>
                    </g>
                    <g id="Clipped">
                        <mask id="mask-120" fill="white">
                            <use xlink:href="#path-119"></use>
                        </mask>
                        <g id="SVGID_1_"></g>
                        <path d="M210.433907,94.2929801 L202.788874,97.7239735 L198.675497,113.886093 L198.675497,94.2929801 L210.433907,94.2929801 Z" id="Shape" fill="#C5A901" mask="url(#mask-120)"></path>
                    </g>
                    <g id="Clipped">
                        <mask id="mask-122" fill="white">
                            <use xlink:href="#path-121"></use>
                        </mask>
                        <g id="SVGID_1_"></g>
                        <path d="M135.584636,31.9830464 L137.935894,24.8339073 L132.056159,20.5213245 L139.403444,20.5213245 L142.147815,12.6813245 L144.989669,20.5213245 L152.434437,20.5213245 L146.460397,24.8339073 L148.712053,31.9830464 L142.147815,27.8664901 L135.584636,31.9830464 Z" id="Shape" fill="#FFFFFF" mask="url(#mask-122)"></path>
                    </g>
                    <g id="Clipped">
                        <mask id="mask-124" fill="white">
                            <use xlink:href="#path-123"></use>
                        </mask>
                        <g id="SVGID_1_"></g>
                        <path d="M135.584636,31.9830464 L142.047152,27.8664901 L142.047152,23.458543 L135.584636,31.9830464 Z" id="Shape" fill="#B3B5B8" mask="url(#mask-124)"></path>
                    </g>
                    <g id="Clipped">
                        <mask id="mask-126" fill="white">
                            <use xlink:href="#path-125"></use>
                        </mask>
                        <g id="SVGID_1_"></g>
                        <path d="M148.61245,31.9830464 L146.360795,24.8339073 L142.049272,23.458543 L148.61245,31.9830464 Z" id="Shape" fill="#C2C4C6" mask="url(#mask-126)"></path>
                    </g>
                    <g id="Clipped">
                        <mask id="mask-128" fill="white">
                            <use xlink:href="#path-127"></use>
                        </mask>
                        <g id="SVGID_1_"></g>
                        <path d="M146.360795,24.8317881 L152.335894,20.5202649 L142.049272,23.4606623 L146.360795,24.8317881 Z" id="Shape" fill="#999B9E" mask="url(#mask-128)"></path>
                    </g>
                    <g id="Clipped">
                        <mask id="mask-130" fill="white">
                            <use xlink:href="#path-129"></use>
                        </mask>
                        <g id="SVGID_1_"></g>
                        <path d="M144.891126,20.5202649 L142.049272,12.5859603 L142.049272,23.458543 L144.891126,20.5202649 Z" id="Shape" fill="#C2C4C6" mask="url(#mask-130)"></path>
                    </g>
                    <g id="Clipped">
                        <mask id="mask-132" fill="white">
                            <use xlink:href="#path-131"></use>
                        </mask>
                        <g id="SVGID_1_"></g>
                        <path d="M137.933775,24.8317881 L131.958675,20.5202649 L142.051391,23.4606623 L137.933775,24.8317881 Z" id="Shape" fill="#999B9E" mask="url(#mask-132)"></path>
                    </g>
                    <g id="Clipped">
                        <mask id="mask-134" fill="white">
                            <use xlink:href="#path-133"></use>
                        </mask>
                        <g id="SVGID_1_"></g>
                        <path d="M195.050596,46.1880795 L197.402914,38.9393377 L191.522119,34.7263576 L198.871523,34.7263576 L201.616954,26.7909934 L204.45457,34.7263576 L211.900397,34.7263576 L205.926358,38.9393377 L208.178013,46.1880795 L201.616954,42.0736424 L195.050596,46.1880795 Z" id="Shape" fill="#FFFFFF" mask="url(#mask-134)"></path>
                    </g>
                    <g id="Clipped">
                        <mask id="mask-136" fill="white">
                            <use xlink:href="#path-135"></use>
                        </mask>
                        <g id="SVGID_1_"></g>
                        <path d="M195.050596,46.1880795 L201.616954,42.0736424 L201.616954,37.5682119 L195.050596,46.1880795 Z" id="Shape" fill="#B3B5B8" mask="url(#mask-136)"></path>
                    </g>
                    <g id="Clipped">
                        <mask id="mask-138" fill="white">
                            <use xlink:href="#path-137"></use>
                        </mask>
                        <g id="SVGID_1_"></g>
                        <path d="M208.178013,46.1880795 L205.926358,38.9393377 L201.613775,37.5682119 L208.178013,46.1880795 Z" id="Shape" fill="#C2C4C6" mask="url(#mask-138)"></path>
                    </g>
                    <g id="Clipped">
                        <mask id="mask-140" fill="white">
                            <use xlink:href="#path-139"></use>
                        </mask>
                        <g id="SVGID_1_"></g>
                        <path d="M205.926358,38.9393377 L211.900397,34.7263576 L201.613775,37.5682119 L205.926358,38.9393377 Z" id="Shape" fill="#999B9E" mask="url(#mask-140)"></path>
                    </g>
                    <g id="Clipped">
                        <mask id="mask-142" fill="white">
                            <use xlink:href="#path-141"></use>
                        </mask>
                        <g id="SVGID_1_"></g>
                        <path d="M204.45457,34.7263576 L201.616954,26.6913907 L201.616954,37.5682119 L204.45457,34.7263576 Z" id="Shape" fill="#C2C4C6" mask="url(#mask-142)"></path>
                    </g>
                    <g id="Clipped">
                        <mask id="mask-144" fill="white">
                            <use xlink:href="#path-143"></use>
                        </mask>
                        <g id="SVGID_1_"></g>
                        <path d="M197.402914,38.9393377 L191.427815,34.7263576 L201.616954,37.5682119 L197.402914,38.9393377 Z" id="Shape" fill="#999B9E" mask="url(#mask-144)"></path>
                    </g>
                    <g id="Clipped">
                        <mask id="mask-146" fill="white">
                            <use xlink:href="#path-145"></use>
                        </mask>
                        <g id="SVGID_1_"></g>
                        <path d="M226.500662,123.195762 L228.85298,116.042384 L222.972185,111.73298 L230.32053,111.73298 L233.06702,103.89404 L235.905695,111.73298 L243.350464,111.73298 L237.375364,116.042384 L239.62702,123.195762 L233.06702,119.080265 L226.500662,123.195762 Z" id="Shape" fill="#FFFFFF" mask="url(#mask-146)"></path>
                    </g>
                    <g id="Clipped">
                        <mask id="mask-148" fill="white">
                            <use xlink:href="#path-147"></use>
                        </mask>
                        <g id="SVGID_1_"></g>
                        <path d="M226.500662,123.195762 L233.06702,119.080265 L233.06702,114.671258 L226.500662,123.195762 Z" id="Shape" fill="#B3B5B8" mask="url(#mask-148)"></path>
                    </g>
                    <g id="Clipped">
                        <mask id="mask-150" fill="white">
                            <use xlink:href="#path-149"></use>
                        </mask>
                        <g id="SVGID_1_"></g>
                        <path d="M239.62702,123.195762 L237.27894,116.042384 L233.063841,114.671258 L239.62702,123.195762 Z" id="Shape" fill="#C2C4C6" mask="url(#mask-150)"></path>
                    </g>
                    <g id="Clipped">
                        <mask id="mask-152" fill="white">
                            <use xlink:href="#path-151"></use>
                        </mask>
                        <g id="SVGID_1_"></g>
                        <path d="M237.27894,116.042384 L243.25298,111.73298 L233.06702,114.672318 L237.27894,116.042384 Z" id="Shape" fill="#999B9E" mask="url(#mask-152)"></path>
                    </g>
                    <g id="Clipped">
                        <mask id="mask-154" fill="white">
                            <use xlink:href="#path-153"></use>
                        </mask>
                        <g id="SVGID_1_"></g>
                        <path d="M235.905695,111.731921 L233.063841,103.796556 L233.063841,114.669139 L235.905695,111.731921 Z" id="Shape" fill="#C2C4C6" mask="url(#mask-154)"></path>
                    </g>
                    <g id="Clipped">
                        <mask id="mask-156" fill="white">
                            <use xlink:href="#path-155"></use>
                        </mask>
                        <g id="SVGID_1_"></g>
                        <path d="M228.85298,116.042384 L222.874702,111.73298 L233.063841,114.672318 L228.85298,116.042384 Z" id="Shape" fill="#999B9E" mask="url(#mask-156)"></path>
                    </g>
                    <g id="Clipped">
                        <mask id="mask-158" fill="white">
                            <use xlink:href="#path-157"></use>
                        </mask>
                        <g id="SVGID_1_"></g>
                        <path d="M215.037881,203.234967 L217.388079,196.082649 L211.510464,191.773245 L218.858808,191.773245 L221.602119,183.937483 L224.442914,191.773245 L231.791258,191.773245 L225.816159,196.082649 L228.068874,203.234967 L221.602119,199.121589 L215.037881,203.234967 Z" id="Shape" fill="#FFFFFF" mask="url(#mask-158)"></path>
                    </g>
                    <g id="Clipped">
                        <mask id="mask-160" fill="white">
                            <use xlink:href="#path-159"></use>
                        </mask>
                        <g id="SVGID_1_"></g>
                        <path d="M215.037881,203.234967 L221.602119,199.121589 L221.602119,194.715762 L215.037881,203.234967 Z" id="Shape" fill="#B3B5B8" mask="url(#mask-160)"></path>
                    </g>
                    <g id="Clipped">
                        <mask id="mask-162" fill="white">
                            <use xlink:href="#path-161"></use>
                        </mask>
                        <g id="SVGID_1_"></g>
                        <path d="M228.068874,203.234967 L225.816159,196.082649 L221.606358,194.715762 L228.068874,203.234967 Z" id="Shape" fill="#C2C4C6" mask="url(#mask-162)"></path>
                    </g>
                    <g id="Clipped">
                        <mask id="mask-164" fill="white">
                            <use xlink:href="#path-163"></use>
                        </mask>
                        <g id="SVGID_1_"></g>
                        <path d="M225.81298,196.085828 L231.791258,191.773245 L221.602119,194.715762 L225.81298,196.085828 Z" id="Shape" fill="#999B9E" mask="url(#mask-164)"></path>
                    </g>
                    <g id="Clipped">
                        <mask id="mask-166" fill="white">
                            <use xlink:href="#path-165"></use>
                        </mask>
                        <g id="SVGID_1_"></g>
                        <path d="M224.442914,191.773245 L221.602119,183.84 L221.602119,194.715762 L224.442914,191.773245 Z" id="Shape" fill="#C2C4C6" mask="url(#mask-166)"></path>
                    </g>
                    <g id="Clipped">
                        <mask id="mask-168" fill="white">
                            <use xlink:href="#path-167"></use>
                        </mask>
                        <g id="SVGID_1_"></g>
                        <path d="M217.388079,196.085828 L211.41298,191.773245 L221.59894,194.715762 L217.388079,196.085828 Z" id="Shape" fill="#999B9E" mask="url(#mask-168)"></path>
                    </g>
                    <g id="Clipped">
                        <mask id="mask-170" fill="white">
                            <use xlink:href="#path-169"></use>
                        </mask>
                        <g id="SVGID_1_"></g>
                        <path d="M81.6349669,37.6603974 L83.9883444,30.5101987 L78.1086093,26.1986755 L85.4527152,26.1986755 L88.1981457,18.3607947 L91.0410596,26.1986755 L98.4868874,26.1986755 L92.5107285,30.5101987 L94.7645033,37.6603974 L88.1981457,33.5449007 L81.6349669,37.6603974 Z" id="Shape" fill="#FFFFFF" mask="url(#mask-170)"></path>
                    </g>
                    <g id="Clipped">
                        <mask id="mask-172" fill="white">
                            <use xlink:href="#path-171"></use>
                        </mask>
                        <g id="SVGID_1_"></g>
                        <path d="M81.6349669,37.6603974 L88.0996026,33.5449007 L88.0996026,29.1348344 L81.6349669,37.6603974 Z" id="Shape" fill="#B3B5B8" mask="url(#mask-172)"></path>
                    </g>
                    <g id="Clipped">
                        <mask id="mask-174" fill="white">
                            <use xlink:href="#path-173"></use>
                        </mask>
                        <g id="SVGID_1_"></g>
                        <path d="M94.6649007,37.6603974 L92.413245,30.5101987 L88.1017219,29.1348344 L94.6649007,37.6603974 Z" id="Shape" fill="#C2C4C6" mask="url(#mask-174)"></path>
                    </g>
                    <g id="Clipped">
                        <mask id="mask-176" fill="white">
                            <use xlink:href="#path-175"></use>
                        </mask>
                        <g id="SVGID_1_"></g>
                        <path d="M92.4111258,30.5080795 L98.3883444,26.1965563 L88.0996026,29.1390728 L92.4111258,30.5080795 Z" id="Shape" fill="#999B9E" mask="url(#mask-176)"></path>
                    </g>
                    <g id="Clipped">
                        <mask id="mask-178" fill="white">
                            <use xlink:href="#path-177"></use>
                        </mask>
                        <g id="SVGID_1_"></g>
                        <path d="M90.941457,26.1986755 L88.1017219,18.2622517 L88.1017219,29.1348344 L90.941457,26.1986755 Z" id="Shape" fill="#C2C4C6" mask="url(#mask-178)"></path>
                    </g>
                    <g id="Clipped">
                        <mask id="mask-180" fill="white">
                            <use xlink:href="#path-179"></use>
                        </mask>
                        <g id="SVGID_1_"></g>
                        <path d="M83.9862252,30.5080795 L78.0090066,26.1965563 L88.1017219,29.1390728 L83.9862252,30.5080795 Z" id="Shape" fill="#999B9E" mask="url(#mask-180)"></path>
                    </g>
                    <g id="Clipped">
                        <mask id="mask-182" fill="white">
                            <use xlink:href="#path-181"></use>
                        </mask>
                        <g id="SVGID_1_"></g>
                        <path d="M93.3350993,205.367947 L95.6884768,198.21457 L89.8087417,193.907285 L97.1539073,193.907285 L99.8982781,186.067285 L102.742252,193.907285 L110.18702,193.907285 L104.211921,198.21457 L106.465695,205.367947 L99.8982781,201.25245 L93.3350993,205.367947 Z" id="Shape" fill="#FFFFFF" mask="url(#mask-182)"></path>
                    </g>
                    <g id="Clipped">
                        <mask id="mask-184" fill="white">
                            <use xlink:href="#path-183"></use>
                        </mask>
                        <g id="SVGID_1_"></g>
                        <path d="M93.3350993,205.367947 L99.7997351,201.25245 L99.7997351,196.842384 L93.3350993,205.367947 Z" id="Shape" fill="#B3B5B8" mask="url(#mask-184)"></path>
                    </g>
                    <g id="Clipped">
                        <mask id="mask-186" fill="white">
                            <use xlink:href="#path-185"></use>
                        </mask>
                        <g id="SVGID_1_"></g>
                        <path d="M106.365033,205.367947 L104.112318,198.21457 L99.7997351,196.842384 L106.365033,205.367947 Z" id="Shape" fill="#C2C4C6" mask="url(#mask-186)"></path>
                    </g>
                    <g id="Clipped">
                        <mask id="mask-188" fill="white">
                            <use xlink:href="#path-187"></use>
                        </mask>
                        <g id="SVGID_1_"></g>
                        <path d="M104.112318,198.21457 L110.088477,193.903046 L99.7997351,196.844503 L104.112318,198.21457 Z" id="Shape" fill="#999B9E" mask="url(#mask-188)"></path>
                    </g>
                    <g id="Clipped">
                        <mask id="mask-190" fill="white">
                            <use xlink:href="#path-189"></use>
                        </mask>
                        <g id="SVGID_1_"></g>
                        <path d="M102.642649,193.907285 L99.8018543,185.969801 L99.8018543,196.842384 L102.642649,193.907285 Z" id="Shape" fill="#C2C4C6" mask="url(#mask-190)"></path>
                    </g>
                    <g id="Clipped">
                        <mask id="mask-192" fill="white">
                            <use xlink:href="#path-191"></use>
                        </mask>
                        <g id="SVGID_1_"></g>
                        <path d="M95.6863576,198.21457 L89.7091391,193.903046 L99.8018543,196.844503 L95.6863576,198.21457 Z" id="Shape" fill="#999B9E" mask="url(#mask-192)"></path>
                    </g>
                    <g id="Clipped">
                        <mask id="mask-194" fill="white">
                            <use xlink:href="#path-193"></use>
                        </mask>
                        <g id="SVGID_1_"></g>
                        <path d="M169.778013,198.34702 L172.130331,191.194702 L166.249536,186.886358 L173.597881,186.886358 L176.34543,179.046358 L179.183046,186.886358 L186.628874,186.886358 L180.652715,191.194702 L182.90543,198.34702 L176.34543,194.234702 L169.778013,198.34702 Z" id="Shape" fill="#FFFFFF" mask="url(#mask-194)"></path>
                    </g>
                    <g id="Clipped">
                        <mask id="mask-196" fill="white">
                            <use xlink:href="#path-195"></use>
                        </mask>
                        <g id="SVGID_1_"></g>
                        <path d="M169.778013,198.34702 L176.24053,194.234702 L176.24053,189.821457 L169.778013,198.34702 Z" id="Shape" fill="#B3B5B8" mask="url(#mask-196)"></path>
                    </g>
                    <g id="Clipped">
                        <mask id="mask-198" fill="white">
                            <use xlink:href="#path-197"></use>
                        </mask>
                        <g id="SVGID_1_"></g>
                        <path d="M182.806887,198.34702 L180.555232,191.194702 L176.243709,189.821457 L182.806887,198.34702 Z" id="Shape" fill="#C2C4C6" mask="url(#mask-198)"></path>
                    </g>
                    <g id="Clipped">
                        <mask id="mask-200" fill="white">
                            <use xlink:href="#path-199"></use>
                        </mask>
                        <g id="SVGID_1_"></g>
                        <path d="M180.555232,191.194702 L186.530331,186.886358 L176.243709,189.824636 L180.555232,191.194702 Z" id="Shape" fill="#999B9E" mask="url(#mask-200)"></path>
                    </g>
                    <g id="Clipped">
                        <mask id="mask-202" fill="white">
                            <use xlink:href="#path-201"></use>
                        </mask>
                        <g id="SVGID_1_"></g>
                        <path d="M179.085563,186.886358 L176.243709,178.953113 L176.243709,189.821457 L179.085563,186.886358 Z" id="Shape" fill="#C2C4C6" mask="url(#mask-202)"></path>
                    </g>
                    <g id="Clipped">
                        <mask id="mask-204" fill="white">
                            <use xlink:href="#path-203"></use>
                        </mask>
                        <g id="SVGID_1_"></g>
                        <path d="M172.126093,191.194702 L166.152053,186.886358 L176.246887,189.824636 L172.126093,191.194702 Z" id="Shape" fill="#999B9E" mask="url(#mask-204)"></path>
                    </g>
                </g>
            </g>
        </g>
    </g>
</svg>