<?xml version="1.0" encoding="UTF-8" standalone="no"?>
<svg width="512px" height="512px" viewBox="0 0 512 512" version="1.1" xmlns="http://www.w3.org/2000/svg" xmlns:xlink="http://www.w3.org/1999/xlink">
    <!-- Generator: Sketch 3.6 (26304) - http://www.bohemiancoding.com/sketch -->
    <title>success-factors</title>
    <desc>Created with Sketch.</desc>
    <defs>
        <path id="path-1" d="M0.998351145,81.4427481 L430.706443,81.4427481 L430.706443,0.193770992 L0.998351145,0.193770992 L0.998351145,81.4427481 Z"></path>
    </defs>
    <g id="Client-Section" stroke="none" stroke-width="1" fill="none" fill-rule="evenodd">
        <g id="success-factors">
            <g id="Success-Factors" transform="translate(41.000000, 237.000000)">
                <mask id="mask-2" fill="white">
                    <use xlink:href="#path-1"></use>
                </mask>
                <g id="Clip-2"></g>
                <path d="M247.214608,76.564116 L247.214608,63.8877191 L249.302058,63.8877191 L249.302058,65.7773069 C249.575768,65.5101924 249.882455,65.2496733 250.218821,64.9891542 C250.555188,64.7319328 250.917936,64.4977954 251.320256,64.2933374 C251.719279,64.0855817 252.147982,63.9206962 252.603066,63.8019786 C253.061447,63.6766656 253.542913,63.6173069 254.05076,63.6173069 C255.270913,63.6173069 256.204165,63.9503756 256.843921,64.616513 C257.483676,65.2793527 257.803554,66.2126046 257.803554,67.4195664 L257.803554,76.564116 L255.739188,76.564116 L255.739188,67.8746504 C255.739188,67.0238412 255.554516,66.3972763 255.185173,65.9982534 C254.812531,65.5992305 254.222241,65.4013679 253.407707,65.4013679 C252.642638,65.4013679 251.933631,65.5860397 251.283982,65.9520855 C250.637631,66.3181313 249.974791,66.8160855 249.302058,67.4426504 L249.302058,76.564116 L247.214608,76.564116 Z" id="Fill-1" fill="#000000" mask="url(#mask-2)"></path>
                <path d="M271.941166,76.9047695 C270.246144,76.9047695 268.818235,76.4826626 267.657441,75.6417466 C266.496647,74.8041282 265.682113,73.6763115 265.220434,72.2615939 L266.991304,71.4734412 C267.436495,72.6705099 268.092739,73.5641893 268.953441,74.147884 C269.810846,74.738174 270.839731,75.0283725 272.033502,75.0283725 C273.286632,75.0283725 274.295731,74.7744489 275.057502,74.2731969 C275.819273,73.7686473 276.19851,73.0431511 276.19851,72.0967084 C276.19851,71.6680061 276.132556,71.2788763 275.994052,70.9359145 C275.858846,70.589655 275.621411,70.2763725 275.281747,69.986174 C274.94538,69.6959756 274.490296,69.4222656 273.909899,69.1650443 C273.3328,68.9078229 272.604006,68.6440061 271.733411,68.3801893 C270.800159,68.0899908 269.972434,67.7997924 269.240342,67.5128916 C268.511548,67.2226931 267.891579,66.8863267 267.387029,66.5037924 C266.882479,66.121258 266.496647,65.6628763 266.226235,65.1253496 C265.955823,64.5878229 265.820617,63.9348763 265.820617,63.1599145 C265.820617,62.4904794 265.959121,61.8639145 266.239426,61.290113 C266.516434,60.7163115 266.905563,60.2150595 267.410113,59.789655 C267.914663,59.3642504 268.518144,59.0344794 269.217258,58.8036397 C269.91967,58.5728 270.684739,58.4573802 271.528953,58.4573802 C272.38306,58.4573802 273.148128,58.5563115 273.817563,58.7574718 C274.490296,58.9553344 275.083884,59.2356397 275.595029,59.5950901 C276.109472,59.9545405 276.548067,60.379945 276.914113,60.8680061 C277.283456,61.3593649 277.576953,61.8837008 277.807792,62.4476092 L276.116067,63.3841588 C275.641197,62.3025099 275.01793,61.5341435 274.246266,61.0724641 C273.477899,60.6140824 272.564434,60.379945 271.505869,60.379945 C270.374754,60.379945 269.490968,60.6272733 268.85451,61.1153344 C268.224647,61.6033954 267.908067,62.2299603 267.908067,62.995029 C267.908067,63.4731969 267.99051,63.8755176 268.152098,64.2052885 C268.310388,64.5317618 268.574205,64.8318534 268.94025,65.0956702 C269.306296,65.3627847 269.79106,65.6134107 270.39454,65.8508458 C270.998021,66.0915786 271.726815,66.3455023 272.58422,66.6192122 C273.484495,66.8929221 274.285838,67.1864183 274.991548,67.4997008 C275.69396,67.8129832 276.290846,68.1724336 276.778907,68.5780519 C277.270266,68.9869679 277.639609,69.4618382 277.896831,70.009258 C278.15735,70.5566779 278.28596,71.2063267 278.28596,71.9549069 C278.28596,72.6902962 278.134266,73.363029 277.827579,73.9731053 C277.524189,74.5831817 277.092189,75.1009221 276.534876,75.5329221 C275.977563,75.9616244 275.308128,76.2979908 274.529869,76.5420214 C273.751609,76.7827542 272.887609,76.9047695 271.941166,76.9047695" id="Fill-3" fill="#000000" mask="url(#mask-2)"></path>
                <path d="M283.761478,69.6217771 L289.529173,69.6217771 L286.693142,61.2851664 L286.646974,61.2851664 L283.761478,69.6217771 Z M279.326058,76.5634565 L285.614791,58.7162504 L287.830852,58.7162504 L294.116287,76.5634565 L291.933203,76.5634565 L290.175524,71.4750901 L283.115127,71.4750901 L281.36734,76.5634565 L279.326058,76.5634565 Z" id="Fill-4" fill="#000000" mask="url(#mask-2)"></path>
                <path d="M298.592928,67.1715786 L302.474333,67.1715786 C303.905539,67.1715786 304.987188,66.9275481 305.722577,66.4361893 C306.457966,65.9481282 306.82731,65.1072122 306.82731,63.9101435 C306.82731,62.755945 306.461264,61.9315176 305.73247,61.4434565 C305.006974,60.9553954 303.912134,60.7113649 302.451249,60.7113649 L298.592928,60.7113649 L298.592928,67.1715786 Z M296.469203,76.5634565 L296.469203,58.7855023 L302.497417,58.7855023 C303.460348,58.7855023 304.334241,58.8844336 305.119096,59.0822962 C305.903951,59.2768611 306.579982,59.5769527 307.147188,59.982571 C307.714394,60.3881893 308.149692,60.9125252 308.453081,61.5555786 C308.759768,62.1953344 308.911463,62.9571053 308.911463,63.8408916 C308.911463,64.7807389 308.746577,65.5820824 308.406913,66.2449221 C308.070547,66.9077618 307.612165,67.451884 307.031768,67.8706931 C306.448073,68.2862046 305.755554,68.5895939 304.957508,68.7742656 C304.152867,68.9556397 303.288867,69.0479756 302.358913,69.0479756 L298.592928,69.0479756 L298.592928,76.5634565 L296.469203,76.5634565 Z" id="Fill-5" fill="#000000" mask="url(#mask-2)"></path>
                <path d="M322.921124,76.9047695 C321.780116,76.9047695 320.747933,76.693716 319.831169,76.2650137 C318.914406,75.8396092 318.122956,75.2262351 317.460116,74.4248916 C316.793979,73.6235481 316.279536,72.6507237 315.923383,71.5064183 C315.563933,70.3588153 315.382559,69.0595176 315.382559,67.6052275 C315.382559,66.2135939 315.567231,64.9571664 315.933276,63.835945 C316.299322,62.711426 316.817063,61.7517924 317.4832,60.9504489 C318.14604,60.1491053 318.940788,59.5324336 319.867444,59.1037313 C320.794101,58.675029 321.813093,58.4573802 322.921124,58.4573802 C323.870864,58.4573802 324.705185,58.5892885 325.430681,58.8498076 C326.159475,59.1136244 326.789337,59.4796702 327.323566,59.9512427 C327.861093,60.426113 328.302986,60.9999145 328.655841,61.6726473 C329.008696,62.3453802 329.292299,63.0906626 329.503353,63.9117924 L327.481856,64.4625099 C327.10262,63.1005557 326.565093,62.0848611 325.879169,61.415426 C325.189948,60.7426931 324.197337,60.403029 322.89804,60.403029 C322.063719,60.403029 321.311841,60.5745099 320.649002,60.9108763 C319.982864,61.243945 319.415658,61.7254107 318.950681,62.3453802 C318.485704,62.9686473 318.129551,63.7205252 317.885521,64.6043115 C317.638192,65.4848 317.516177,66.4807084 317.516177,67.5821435 C317.516177,69.9498992 318.004238,71.7768305 318.983658,73.0596397 C319.95978,74.3424489 321.282162,74.9822046 322.947505,74.9822046 C325.424085,74.9822046 327.03007,73.5477008 327.76546,70.6786931 L329.760574,71.1370748 C329.542925,72.0208611 329.236238,72.8123115 328.847108,73.5147237 C328.461276,74.2204336 327.986406,74.8239145 327.415902,75.3284641 C326.851994,75.8330137 326.192452,76.2221435 325.437276,76.4925557 C324.682101,76.7695634 323.844482,76.9047695 322.921124,76.9047695" id="Fill-6" fill="#000000" mask="url(#mask-2)"></path>
                <path d="M337.165252,75.0752 C337.762137,75.0752 338.296366,74.9597802 338.767939,74.7289405 C339.242809,74.4981008 339.641832,74.1716275 339.968305,73.7429252 C340.294779,73.3175206 340.548702,72.8030779 340.713588,72.2028947 C340.885069,71.6027115 340.964214,70.9398718 340.964214,70.220971 C340.964214,69.5647267 340.885069,68.9447573 340.726779,68.3610626 C340.568489,67.7773679 340.331053,67.2662229 340.014473,66.8243298 C339.701191,66.3824366 339.308763,66.0361771 338.827298,65.7822534 C338.34913,65.5283298 337.791817,65.3997191 337.165252,65.3997191 C336.555176,65.3997191 336.017649,65.5151389 335.542779,65.7459786 C335.071206,65.9768183 334.668885,66.3065893 334.339115,66.7319939 C334.012641,67.1573985 333.768611,67.6652458 333.59713,68.2555359 C333.432244,68.845826 333.343206,69.5020702 333.343206,70.220971 C333.343206,70.8937038 333.425649,71.5235664 333.587237,72.1204519 C333.748824,72.7140397 333.979664,73.2251847 334.292947,73.6571847 C334.606229,74.085887 335.005252,74.4321466 335.486718,74.6893679 C335.964885,74.9465893 336.522198,75.0752 337.165252,75.0752 M337.165252,76.8361771 C336.400183,76.8361771 335.661496,76.6943756 334.945893,76.4107725 C334.23029,76.1304672 333.600427,75.7149557 333.056305,75.1642382 C332.515481,74.6135206 332.073588,73.9242992 331.750412,73.0998718 C331.420641,72.2754443 331.255756,71.3158107 331.255756,70.220971 C331.255756,69.1327267 331.414046,68.1763908 331.737221,67.3519634 C332.053802,66.5308336 332.492397,65.8416122 333.033221,65.2908947 C333.577344,64.7401771 334.210504,64.3213679 334.922809,64.0410626 C335.635115,63.7607573 336.383695,63.6189557 337.165252,63.6189557 C337.933618,63.6189557 338.678901,63.7607573 339.391206,64.0410626 C340.103511,64.3213679 340.736672,64.7401771 341.277496,65.2908947 C341.821618,65.8416122 342.250321,66.5308336 342.573496,67.3519634 C342.893374,68.1763908 343.051664,69.1327267 343.051664,70.220971 C343.051664,71.3158107 342.893374,72.2754443 342.573496,73.0998718 C342.250321,73.9242992 341.821618,74.6135206 341.277496,75.1642382 C340.736672,75.7149557 340.103511,76.1304672 339.391206,76.4107725 C338.678901,76.6943756 337.933618,76.8361771 337.165252,76.8361771" id="Fill-7" fill="#000000" mask="url(#mask-2)"></path>
                <path d="M345.386443,76.564116 L345.386443,63.8877191 L347.450809,63.8877191 L347.450809,65.8003908 C348.060885,65.1969099 348.730321,64.6824672 349.469008,64.2570626 C350.204397,63.831658 351.051908,63.6173069 352.011542,63.6173069 C353.083298,63.6173069 353.878046,63.8250626 354.385893,64.2339786 C354.900336,64.6461924 355.269679,65.1870168 355.493924,65.8564519 C356.104,65.2496733 356.796519,64.7220397 357.571481,64.2801466 C358.343145,63.8382534 359.210443,63.6173069 360.173374,63.6173069 C361.472672,63.6173069 362.409221,63.9635664 362.989618,64.6494901 C363.566718,65.3387115 363.853618,66.2587725 363.853618,67.4195664 L363.853618,76.564116 L361.779359,76.564116 L361.779359,67.8746504 C361.779359,67.0238412 361.621069,66.3972763 361.307786,65.9982534 C360.987908,65.5992305 360.414107,65.4013679 359.576489,65.4013679 C358.857588,65.4013679 358.194748,65.5860397 357.584672,65.9520855 C356.971298,66.3181313 356.331542,66.8160855 355.658809,67.4426504 L355.658809,76.564116 L353.594443,76.564116 L353.594443,67.8746504 C353.594443,67.0238412 353.436153,66.3972763 353.116275,65.9982534 C352.793099,65.5992305 352.219298,65.4013679 351.388275,65.4013679 C350.68916,65.4013679 350.023023,65.5860397 349.396458,65.9520855 C348.773191,66.3181313 348.123542,66.8160855 347.450809,67.4426504 L347.450809,76.564116 L345.386443,76.564116 Z" id="Fill-8" fill="#000000" mask="url(#mask-2)"></path>
                <path d="M372.543084,75.0752 C373.644519,75.0752 374.518412,74.6860702 375.171359,73.9078107 C375.81771,73.1295511 376.140885,71.8995053 376.140885,70.220971 C376.140885,68.6017954 375.801221,67.3948336 375.125191,66.5967878 C374.442565,65.798742 373.588458,65.3997191 372.566168,65.3997191 C371.830779,65.3997191 371.161344,65.5810931 370.56116,65.9405435 C369.957679,66.2999939 369.397069,66.7682687 368.872733,67.3486656 L368.872733,73.1526351 C370.007145,74.4354443 371.230595,75.0752 372.543084,75.0752 L372.543084,75.0752 Z M366.808366,81.373826 L366.808366,63.8893679 L368.872733,63.8893679 L368.872733,65.6371542 C369.347603,65.1128183 369.921405,64.6445435 370.597435,64.2356275 C371.26687,63.8234137 372.084702,63.6189557 373.047634,63.6189557 C373.766534,63.6189557 374.442565,63.7574595 375.075725,64.0278718 C375.708885,64.3015817 376.256305,64.7104977 376.721282,65.2546198 C377.189557,65.798742 377.552305,66.4813679 377.812824,67.3057954 C378.076641,68.1302229 378.20855,69.0931542 378.20855,70.197887 C378.20855,71.3059176 378.070046,72.2754443 377.799634,73.0998718 C377.532519,73.9242992 377.15658,74.6036275 376.675115,75.1378565 C376.196947,75.6753832 375.626443,76.0777038 374.966901,76.348116 C374.313954,76.6152305 373.601649,76.7537344 372.83658,76.7537344 C372.04513,76.7537344 371.322931,76.5888489 370.666687,76.2590779 C370.010443,75.9326046 369.41026,75.4907115 368.872733,74.9366962 L368.872733,81.373826 L366.808366,81.373826 Z" id="Fill-9" fill="#000000" mask="url(#mask-2)"></path>
                <path d="M383.765191,75.1216977 C384.616,75.1216977 385.400855,74.9568122 386.109863,74.6303389 C386.822168,74.3005679 387.475115,73.8487817 388.068702,73.2683847 L388.068702,69.7167511 C386.865038,69.911316 385.852641,70.1289649 385.031511,70.3664 C384.210382,70.6071328 383.544244,70.8742473 383.036397,71.1710412 C382.52855,71.4678351 382.169099,71.787713 381.95145,72.1306748 C381.737099,72.4736366 381.631573,72.8462779 381.631573,73.2453008 C381.631573,73.8553771 381.819542,74.3203542 382.195481,74.6402321 C382.568122,74.9634076 383.092458,75.1216977 383.765191,75.1216977 M383.168305,76.7540641 C382.063573,76.7540641 381.192977,76.4770565 380.549924,75.9263389 C379.910168,75.3756214 379.59029,74.5874687 379.59029,73.5618809 C379.59029,72.9221252 379.738687,72.3285374 380.035481,71.7844153 C380.332275,71.2435908 380.81374,70.7456366 381.47658,70.2971481 C382.142718,69.8486595 383.016611,69.4529344 384.094962,69.1165679 C385.173313,68.7802015 386.498992,68.4998962 388.068702,68.2756519 L388.068702,67.6985527 C388.068702,66.1354382 387.267359,65.3538809 385.667969,65.3538809 C384.70174,65.3538809 383.854229,65.5385527 383.11884,65.9045985 C382.38345,66.2706443 381.704122,66.7257282 381.080855,67.263255 L379.999206,65.9738504 C380.734595,65.3044153 381.585405,64.7438046 382.545038,64.2920183 C383.507969,63.8435298 384.619298,63.6159878 385.888916,63.6159878 C386.637496,63.6159878 387.28055,63.7116214 387.818076,63.9061863 C388.352305,64.0974534 388.787603,64.3711634 389.123969,64.7339115 C389.460336,65.0900641 389.707664,65.5385527 389.869252,66.069484 C390.027542,66.6004153 390.109985,67.1940031 390.109985,67.8502473 L390.109985,73.4464611 C390.109985,74.2115298 390.136366,74.8446901 390.18913,75.3393466 C390.245191,75.8373008 390.340824,76.2462168 390.472733,76.5627969 L388.362198,76.5627969 C388.276458,76.2923847 388.203908,76.0219725 388.151145,75.7614534 C388.095084,75.5009344 388.068702,75.1810565 388.068702,74.8051176 C386.680366,76.1011176 385.041405,76.7540641 383.168305,76.7540641" id="Fill-10" fill="#000000" mask="url(#mask-2)"></path>
                <path d="M237.765191,75.1216977 C238.616,75.1216977 239.400855,74.9568122 240.109863,74.6303389 C240.822168,74.3005679 241.475115,73.8487817 242.068702,73.2683847 L242.068702,69.7167511 C240.865038,69.911316 239.852641,70.1289649 239.031511,70.3664 C238.210382,70.6071328 237.544244,70.8742473 237.036397,71.1710412 C236.52855,71.4678351 236.169099,71.787713 235.95145,72.1306748 C235.737099,72.4736366 235.631573,72.8462779 235.631573,73.2453008 C235.631573,73.8553771 235.819542,74.3203542 236.195481,74.6402321 C236.568122,74.9634076 237.092458,75.1216977 237.765191,75.1216977 M237.168305,76.7540641 C236.063573,76.7540641 235.192977,76.4770565 234.549924,75.9263389 C233.910168,75.3756214 233.59029,74.5874687 233.59029,73.5618809 C233.59029,72.9221252 233.738687,72.3285374 234.035481,71.7844153 C234.332275,71.2435908 234.81374,70.7456366 235.47658,70.2971481 C236.142718,69.8486595 237.016611,69.4529344 238.094962,69.1165679 C239.173313,68.7802015 240.498992,68.4998962 242.068702,68.2756519 L242.068702,67.6985527 C242.068702,66.1354382 241.267359,65.3538809 239.667969,65.3538809 C238.70174,65.3538809 237.854229,65.5385527 237.11884,65.9045985 C236.38345,66.2706443 235.704122,66.7257282 235.080855,67.263255 L233.999206,65.9738504 C234.734595,65.3044153 235.585405,64.7438046 236.545038,64.2920183 C237.507969,63.8435298 238.619298,63.6159878 239.888916,63.6159878 C240.637496,63.6159878 241.28055,63.7116214 241.818076,63.9061863 C242.352305,64.0974534 242.787603,64.3711634 243.123969,64.7339115 C243.460336,65.0900641 243.707664,65.5385527 243.869252,66.069484 C244.027542,66.6004153 244.109985,67.1940031 244.109985,67.8502473 L244.109985,73.4464611 C244.109985,74.2115298 244.136366,74.8446901 244.18913,75.3393466 C244.245191,75.8373008 244.340824,76.2462168 244.472733,76.5627969 L242.362198,76.5627969 C242.276458,76.2923847 242.203908,76.0219725 242.151145,75.7614534 C242.095084,75.5009344 242.068702,75.1810565 242.068702,74.8051176 C240.680366,76.1011176 239.041405,76.7540641 237.168305,76.7540641" id="Fill-10" fill="#000000" mask="url(#mask-2)"></path>
                <path d="M393.048244,76.564116 L393.048244,63.8877191 L395.135695,63.8877191 L395.135695,65.7773069 C395.409405,65.5101924 395.716092,65.2496733 396.052458,64.9891542 C396.388824,64.7319328 396.75487,64.4977954 397.150595,64.2933374 C397.552916,64.0855817 397.978321,63.9206962 398.436702,63.8019786 C398.891786,63.6766656 399.37655,63.6173069 399.884397,63.6173069 C401.10455,63.6173069 402.037802,63.9503756 402.677557,64.616513 C403.317313,65.2793527 403.637191,66.2126046 403.637191,67.4195664 L403.637191,76.564116 L401.572824,76.564116 L401.572824,67.8746504 C401.572824,67.0238412 401.388153,66.3972763 401.015511,65.9982534 C400.64287,65.5992305 400.05258,65.4013679 399.241344,65.4013679 C398.472977,65.4013679 397.767267,65.5860397 397.117618,65.9520855 C396.471267,66.3181313 395.808427,66.8160855 395.135695,67.4426504 L395.135695,76.564116 L393.048244,76.564116 Z" id="Fill-11" fill="#000000" mask="url(#mask-2)"></path>
                <path d="M407.047023,81.4430779 C406.486412,81.4430779 406.018137,81.4101008 405.638901,81.3441466 C405.26626,81.2781924 404.939786,81.2056427 404.666076,81.1264977 L405.147542,79.474345 C405.325618,79.520513 405.572947,79.5666809 405.886229,79.6128489 C406.199511,79.6590168 406.578748,79.6821008 407.023939,79.6821008 C407.680183,79.6821008 408.184733,79.5402992 408.53429,79.2566962 C408.887145,78.9697954 409.193832,78.5147115 409.451053,77.8881466 L409.932519,76.6350168 L405.028824,63.8893679 L407.211908,63.8893679 L410.938321,74.1353527 L410.987786,74.1353527 L414.704305,63.8893679 L416.804947,63.8893679 L411.373618,78.0068641 C411.149374,78.5707725 410.918534,79.0621313 410.677802,79.4842382 C410.440366,79.906345 410.153466,80.2624977 409.813802,80.5526962 C409.477435,80.8428947 409.091603,81.0605435 408.64971,81.2122382 C408.207817,81.3672305 407.673588,81.4430779 407.047023,81.4430779" id="Fill-12" fill="#000000" mask="url(#mask-2)"></path>
                <path d="M15.8298015,46.426345 C7.86583206,46.426345 1.96952672,42.231658 1,35.4878412 L9.1420458,35.4878412 C10.2368855,38.162284 13.4554504,39.1318107 15.8298015,39.1318107 C19.0483664,39.1318107 21.4754809,38.162284 21.4754809,36.3353527 C21.4754809,34.5743756 20.3839389,33.8455817 14.9130382,32.9947725 C9.32341985,32.1406656 1.85080916,30.6237191 1.85080916,23.6391695 C1.85080916,18.7123908 6.16421374,13.6108336 15.2197252,13.6108336 C22.3922443,13.6108336 27.7378321,17.4955359 28.7700153,23.3951389 L20.4465954,23.3951389 C19.9585344,21.9342534 18.1942595,20.780055 15.2197252,20.780055 C11.5098015,20.780055 9.99285496,22.1189252 9.99285496,23.269826 C9.99285496,24.9120855 12.3012519,25.4595053 16.1892519,26.0695817 C23.9652519,27.3424977 29.5581679,29.044116 29.5581679,35.853887 C29.5581679,42.0535817 23.8465344,46.426345 15.8298015,46.426345" id="Fill-13" fill="#0C96D4" mask="url(#mask-2)"></path>
                <path d="M61.2026626,45.7001893 L53.5486779,45.7001893 L53.5486779,42.8344794 C51.603029,45.0868153 48.8692275,46.4256855 45.5847084,46.4256855 C38.1714565,46.4256855 33.2512733,40.895426 33.2512733,32.687426 L33.2512733,14.3983267 L41.2746015,14.3983267 L41.2746015,32.687426 C41.2746015,34.4517008 41.8813802,38.8277618 47.1049527,38.8277618 C50.6928611,38.8277618 53.1826321,36.1566168 53.1826321,32.687426 L53.1826321,14.3983267 L61.2026626,14.3983267 L61.2026626,45.7001893 Z" id="Fill-14" fill="#0C96D4" mask="url(#mask-2)"></path>
                <path d="M81.4651115,46.426345 C72.0468519,46.426345 65.3030351,39.1318107 65.3030351,30.0762992 C65.3030351,21.0240855 72.0468519,13.6108336 81.4651115,13.6108336 C89.0003786,13.6108336 94.7153099,17.8648794 96.5389435,24.9120855 L87.9714931,24.9120855 C86.8766534,22.7883603 84.380287,20.961429 81.4651115,20.961429 C77.0296916,20.961429 73.4450809,25.0967573 73.4450809,30.1389557 C73.4450809,35.0624366 77.0296916,39.1318107 81.4651115,39.1318107 C84.4429435,39.1318107 86.9986687,37.3114748 88.0275542,35.1250931 L96.5983023,35.1250931 C94.771371,42.231658 89.0597374,46.426345 81.4651115,46.426345" id="Fill-15" fill="#0C96D4" mask="url(#mask-2)"></path>
                <path d="M115.562443,46.426345 C106.140885,46.426345 99.393771,39.1318107 99.393771,30.0762992 C99.393771,21.0240855 106.140885,13.6108336 115.562443,13.6108336 C123.09771,13.6108336 128.809344,17.8648794 130.632977,24.9120855 L122.065527,24.9120855 C120.970687,22.7883603 118.474321,20.961429 115.562443,20.961429 C111.127023,20.961429 107.539115,25.0967573 107.539115,30.1389557 C107.539115,35.0624366 111.127023,39.1318107 115.562443,39.1318107 C118.540275,39.1318107 121.089405,37.3114748 122.124885,35.1250931 L130.695634,35.1250931 C128.868702,42.231658 123.157069,46.426345 115.562443,46.426345" id="Fill-16" fill="#0C96D4" mask="url(#mask-2)"></path>
                <path d="M157.319365,26.616342 C156.34654,22.9723725 153.306052,20.6573802 149.477411,20.6573802 C145.833441,20.6573802 142.914968,22.9723725 141.757472,26.616342 L157.319365,26.616342 Z M141.635456,33.1787847 C142.670937,37.0041282 145.711426,39.3751817 149.477411,39.3751817 C152.151853,39.3751817 154.76364,38.2242809 156.10251,35.7312122 L164.66996,35.7312122 C162.849624,42.1089832 157.319365,46.4256855 149.536769,46.4256855 C140.725289,46.4256855 133.496708,39.1311511 133.496708,30.0756397 C133.496708,21.023426 140.725289,13.610174 149.536769,13.610174 C158.773655,13.610174 166.430937,20.7793954 165.280037,33.1787847 L141.635456,33.1787847 Z" id="Fill-17" fill="#0C96D4" mask="url(#mask-2)"></path>
                <path d="M182.964006,46.426345 C175.000037,46.426345 169.107029,42.231658 168.134205,35.4878412 L176.279548,35.4878412 C177.374388,38.162284 180.599548,39.1318107 182.964006,39.1318107 C186.182571,39.1318107 188.616281,38.162284 188.616281,36.3353527 C188.616281,34.5743756 187.524739,33.8455817 182.05054,32.9947725 C176.46422,32.1406656 168.988311,30.6237191 168.988311,23.6391695 C168.988311,18.7123908 173.305014,13.6108336 182.357227,13.6108336 C189.529747,13.6108336 194.875334,17.4955359 195.910815,23.3951389 L187.584098,23.3951389 C187.099334,21.9342534 185.33506,20.780055 182.357227,20.780055 C178.650602,20.780055 177.133655,22.1189252 177.133655,23.269826 C177.133655,24.9120855 179.442052,25.4595053 183.330052,26.0695817 C191.10935,27.3424977 196.698968,29.044116 196.698968,35.853887 C196.698968,42.0535817 190.987334,46.426345 182.964006,46.426345" id="Fill-18" fill="#0C96D4" mask="url(#mask-2)"></path>
                <path d="M214.328855,46.426345 C206.364885,46.426345 200.471878,42.231658 199.499053,35.4878412 L207.641099,35.4878412 C208.739237,38.162284 211.954504,39.1318107 214.328855,39.1318107 C217.54742,39.1318107 219.984427,38.162284 219.984427,36.3353527 C219.984427,34.5743756 218.889588,33.8455817 213.415389,32.9947725 C207.822473,32.1406656 200.346565,30.6237191 200.346565,23.6391695 C200.346565,18.7123908 204.663267,13.6108336 213.722076,13.6108336 C220.891298,13.6108336 226.240183,17.4955359 227.272366,23.3951389 L218.945649,23.3951389 C218.460885,21.9342534 216.699908,20.780055 213.722076,20.780055 C210.01545,20.780055 208.491908,22.1189252 208.491908,23.269826 C208.491908,24.9120855 210.800305,25.4595053 214.688305,26.0695817 C222.470901,27.3424977 228.060519,29.044116 228.060519,35.853887 C228.060519,42.0535817 222.345588,46.426345 214.328855,46.426345" id="Fill-19" fill="#0C96D4" mask="url(#mask-2)"></path>
                <path d="M234.746626,46.1750595 L234.746626,19.9219908 L230.49258,19.9219908 L230.49258,14.042174 L234.746626,14.042174 L234.746626,13.3067847 C234.746626,8.56467786 236.006351,5.03283053 238.496122,2.80028092 C240.372519,1.07228092 242.806229,0.198387786 245.718107,0.198387786 C246.324885,0.198387786 246.964641,0.234662595 247.620885,0.310509924 L248.042992,0.363273282 L248.042992,5.98257099 L247.52855,5.94299847 C247.192183,5.9199145 246.86571,5.90342595 246.562321,5.90342595 C244.798046,5.90342595 243.544916,6.3189374 242.605069,7.21261679 C241.041954,8.65371603 240.811115,11.6480366 240.811115,13.3067847 L240.811115,14.042174 L247.924275,14.042174 L247.924275,19.9219908 L240.811115,19.9219908 L240.811115,46.1750595 L234.746626,46.1750595 Z" id="Fill-20" fill="#000000" mask="url(#mask-2)"></path>
                <path d="M271.377258,29.8141313 C269.078754,31.2783145 265.573289,31.624574 262.404189,31.8356275 C255.422937,32.2676275 254.529258,34.6980397 254.529258,36.7624061 C254.529258,40.8317802 259.73964,41.1483603 261.339029,41.1483603 C266.117411,41.1483603 271.255243,39.1763298 271.377258,33.6526656 L271.377258,29.8141313 Z M261.157655,46.9061618 C255.020617,46.9061618 248.464769,44.2416122 248.464769,36.7624061 C248.464769,30.4209099 252.910082,26.9616122 261.685289,26.5032305 C270.22306,26.0943145 271.377258,24.3663145 271.377258,22.7273527 C271.377258,20.2507725 268.758876,18.8294595 264.198144,18.8294595 C261.566571,18.8294595 257.068495,19.5054901 256.530968,24.0002687 L256.474907,24.4190779 L250.199365,24.4190779 L250.232342,23.9145282 C250.608281,17.3619786 256.118754,13.1277191 264.257502,13.1277191 C272.472098,13.1277191 277.375792,16.9464672 277.375792,23.3341313 L277.375792,40.5910473 C277.375792,42.0750168 277.781411,44.3306504 278.249685,45.517826 L278.5168,46.1740702 L272.402846,46.1740702 L272.270937,45.9003603 C271.918082,45.1352916 271.664159,44.2317191 271.535548,43.2391084 C269.101838,45.6464366 265.546907,46.9061618 261.157655,46.9061618 L261.157655,46.9061618 Z" id="Fill-21" fill="#000000" mask="url(#mask-2)"></path>
                <path d="M297.648464,46.9051725 C288.738052,46.9051725 281.486388,39.3600122 281.486388,30.0769588 C281.486388,20.7312489 288.738052,13.1300275 297.648464,13.1300275 C304.682479,13.1300275 310.446876,17.2653557 312.682724,23.9102412 L312.893777,24.5401038 L306.413777,24.5401038 L306.275273,24.2828824 C304.481319,20.8169893 301.332006,18.8284702 297.648464,18.8284702 C292.114907,18.8284702 287.610235,23.8739664 287.610235,30.0769588 C287.610235,36.2172947 292.114907,41.2100275 297.648464,41.2100275 C301.39796,41.2100275 304.540678,39.2248061 306.271976,35.758913 L306.410479,35.4917985 L312.887182,35.4917985 L312.682724,36.1216611 C310.509533,42.773142 304.748434,46.9051725 297.648464,46.9051725" id="Fill-22" fill="#000000" mask="url(#mask-2)"></path>
                <path d="M329.234919,46.2786076 C322.431744,46.2786076 318.194186,41.6816 318.194186,34.2716458 L318.194186,19.8012947 L313.943438,19.8012947 L313.943438,13.9247756 L318.194186,13.9247756 L318.194186,7.23372214 L324.258675,7.23372214 L324.258675,13.9247756 L331.371176,13.9247756 L331.371176,19.8012947 L324.258675,19.8012947 L324.258675,34.2716458 C324.258675,38.4102718 326.263682,40.5043176 330.214339,40.5043176 C330.464965,40.5043176 330.725484,40.4944244 330.982046,40.4779359 L331.493191,40.4449588 L331.493191,46.1236153 L331.071084,46.1730809 C330.451774,46.2423328 329.831805,46.2786076 329.234919,46.2786076" id="Fill-23" fill="#000000" mask="url(#mask-2)"></path>
                <path d="M372.134168,46.1750595 L372.134168,13.9234565 L378.076641,13.9234565 L378.076641,16.5880061 C380.13771,14.395029 383.191389,13.1155176 386.492397,13.1155176 C386.954076,13.1155176 387.419053,13.1418992 387.864244,13.1946626 L388.283053,13.2441282 L388.283053,19.2822351 L387.778504,19.2525557 C387.531176,19.2393649 387.277252,19.2327695 387.029924,19.2327695 C382.789069,19.2327695 378.258015,21.4257466 378.258015,27.5858687 L378.258015,46.1750595 L372.134168,46.1750595 Z" id="Fill-24" fill="#000000" mask="url(#mask-2)"></path>
                <path d="M403.647084,46.9674992 C395.73258,46.9674992 390.067115,42.6013313 389.193221,35.8509191 L389.120672,35.3133924 L395.293985,35.3133924 L395.369832,35.7058198 C395.976611,39.0496977 399.228153,41.2096977 403.647084,41.2096977 C408.481527,41.2096977 411.007573,38.8782168 411.007573,36.5830107 C411.007573,34.7132092 410.410687,33.2061557 402.911695,32.1937588 C395.109313,31.0692397 390.281466,29.1268885 390.281466,22.9074076 C390.281466,18.1982779 394.281588,13.1296977 403.040305,13.1296977 C410.516214,13.1296977 415.591389,17.0440794 416.274015,23.3394076 L416.333374,23.8703389 L410.18974,23.8703389 L410.107298,23.4944 C409.457649,20.5330565 406.885435,18.8281405 403.040305,18.8281405 C399.320489,18.8281405 396.402015,20.5396519 396.402015,22.7260336 C396.402015,24.4639267 397.539725,25.2553771 403.904305,26.2644763 C411.037252,27.3922931 416.94345,28.9224305 416.94345,36.2763237 C416.94345,42.6705832 411.604458,46.9674992 403.647084,46.9674992" id="Fill-25" fill="#000000" mask="url(#mask-2)"></path>
                <path d="M350.610015,40.3229435 L350.873832,40.3229435 C354.682687,36.4679206 360.117313,30.7925618 361.317679,29.0777527 C363.385344,26.0834321 363.213863,22.8681649 362.128916,21.0115542 C361.462779,19.8705466 361.12971,19.3000427 358.343145,19.3000427 C355.510412,19.3000427 354.550779,20.7114626 354.270473,21.3083481 C353.841771,22.2416 353.452641,23.9728977 353.35371,24.5071267 L348.130137,24.5137221 C347.978443,23.7156763 347.586015,22.1360733 347.206779,21.3083481 C346.926473,20.7114626 345.970137,19.3000427 343.137405,19.3000427 C340.347542,19.3000427 340.014473,19.8705466 339.348336,21.0115542 C338.260092,22.8681649 338.095206,26.0834321 340.166168,29.0777527 C341.363237,30.7925618 346.787969,36.4679206 350.610015,40.3229435 L350.610015,40.3229435 Z M353.08,45.648745 L348.397252,45.648745 L347.615695,44.8638901 C346.613191,43.8481954 337.748947,34.9212947 335.793405,32.1050504 C332.795786,27.7817527 332.393466,22.3702107 334.761221,18.3239206 C336.584855,15.1976916 338.936122,13.9808366 343.137405,13.9808366 C347.088061,13.9808366 349.432733,15.6395847 350.735328,17.1235542 C352.047817,15.6395847 354.385893,13.9808366 358.343145,13.9808366 C362.544427,13.9808366 364.892397,15.1976916 366.722626,18.3239206 C369.083786,22.3702107 368.678168,27.7817527 365.68055,32.1017527 C363.728305,34.9212947 354.867359,43.8481954 353.864855,44.8638901 L353.08,45.648745 Z" id="Fill-26" fill="#DA1E33" mask="url(#mask-2)"></path>
                <path d="M425.276763,10.6142046 L427.011359,15.4882198 L428.76574,10.6142046 L430.704794,10.6142046 L430.704794,17.4272733 L429.454962,17.4272733 L429.454962,11.9299908 L427.571969,17.4272733 L426.47713,17.4272733 L424.574351,11.9299908 L424.574351,17.4272733 L423.327817,17.4272733 L423.327817,10.6142046 L425.276763,10.6142046 Z M416.369649,11.7552122 L416.369649,10.6142046 L422.170321,10.6142046 L422.170321,11.7552122 L419.947664,11.7552122 L419.947664,17.4272733 L418.595603,17.4272733 L418.595603,11.7552122 L416.369649,11.7552122 Z" id="Fill-27" fill="#000000" mask="url(#mask-2)"></path>
            </g>
        </g>
    </g>
</svg>