<svg xmlns="http://www.w3.org/2000/svg" fill-rule="evenodd" stroke-miterlimit="1.414" viewBox="0 0 512 512" clip-rule="evenodd" stroke-linejoin="round">
  <path fill="#827f80" d="M418.966 260.752c0 2.526.093 2.593 2.36 2.593h7.572c.322 0 .595.27.595.6v1.925c0 .425-.152.575-.595.634-.96.152-2.906.42-6.463.42-4.97 0-7.598.035-7.598-6.172v-9.53c0-6.204 2.627-6.167 7.598-6.167 3.557 0 5.502.27 6.463.417.443.06.595.212.595.643v1.93c0 .33-.273.61-.595.61h-7.573c-2.266 0-2.36.066-2.36 2.588v2.767h9.57a.6.6 0 0 1 .593.6v2.175c0 .33-.26.6-.592.6h-9.57v3.393-.026zm44.218 6.187c-2.643 0-5.322-.46-6.758-.8-.296-.06-.568-.27-.568-.6v-2.18c0-.33.272-.58.568-.58h.06c1.198.15 3.995.54 6.76.54 2.657 0 3.473-.97 3.473-2.71 0-2.26-5.36-3.51-7.98-4.6-2.61-1.09-3.53-3.16-3.53-5.27 0-3.32 2.64-5.73 8.2-5.73 2.85 0 5.46.54 6.47.79.29.06.53.27.53.56v2.22c0 .29-.21.54-.52.54h-.06c-1.98-.19-4.03-.55-6.63-.55-2.22 0-3.88.77-3.88 2.13 0 .99 1.12 1.9 2.44 2.43 1.32.52 3.06 1.21 5.05 2.01 2.51 1.02 4.14 2.52 4.14 5.41 0 3.03-1.89 6.29-7.87 6.29l.05.04zm-15.896-15.08c0-2.26-1.742-3.23-4.737-3.23-.62 0-3.34.06-3.88.12v6.53c.49.02 3.39.08 3.89.08 3.09 0 4.74-.6 4.74-3.25v-.27.01zm4.486 14.82h-3.65c-.33 0-.44-.31-.594-.61l-4.306-7.3h-.67c-.77 0-3.19-.1-3.882-.13v7.42c0 .33-.237.6-.56.6h-2.986a.61.61 0 0 1-.6-.61v-19.73c0-.61.355-.82.956-.91 1.556-.24 4.907-.39 7.082-.39 4.61 0 8.86 1.66 8.86 6.8v.27c0 3.19-1.584 4.93-4.037 5.89l4.704 8.06c.06.09.06.18.06.24 0 .2-.11.35-.35.35l-.02.01zm-40.606-17.91h-5.965v17.29c0 .33-.274.6-.604.6h-2.96a.608.608 0 0 1-.6-.61v-17.28h-5.97c-.33 0-.6-.21-.6-.55v-2.38c0-.33.27-.57.59-.57h16.09c.32 0 .59.24.59.57v2.38c0 .33-.27.54-.6.54zm-28.622 18.14c-4.81 0-8.954-2.11-8.954-8.53v-12.53c0-.34.27-.58.6-.58h2.956c.33 0 .6.23.6.56v12.54c0 3.43 1.574 5.06 4.798 5.06 3.232 0 4.806-1.63 4.806-5.07v-12.53c0-.34.266-.58.596-.58h2.96c.33 0 .6.23.6.56v12.53c0 6.41-4.146 8.52-8.962 8.52v.02zm-23.95-6.18c0 2.52.1 2.59 2.36 2.59h7.572c.33 0 .6.27.6.6v1.92c0 .42-.15.57-.6.63-.956.15-2.902.41-6.456.41-4.958 0-7.59.03-7.59-6.18v-9.52c0-6.21 2.632-6.17 7.6-6.17 3.553 0 5.507.27 6.463.41.45.06.6.21.6.63V248c0 .33-.27.6-.59.6h-7.574c-2.25 0-2.35.07-2.35 2.59v2.76h9.57c.33 0 .6.27.6.6v2.174a.6.6 0 0 1-.59.592h-9.57v3.393l-.04.03zm-12.81-8.9c0-2.26-1.736-3.23-4.73-3.23-.627 0-3.352.06-3.885.12v6.53c.48.02 3.38.08 3.89.08 3.08 0 4.73-.6 4.73-3.25v-.27zm4.483 14.82h-3.65c-.32 0-.45-.31-.59-.61l-4.31-7.3h-.66c-.78 0-3.2-.09-3.89-.13v7.42c0 .33-.24.6-.57.6h-2.99a.608.608 0 0 1-.6-.61V246.3c0-.6.35-.812.95-.9 1.55-.24 4.9-.39 7.09-.39 4.6 0 8.86 1.66 8.86 6.806v.27c0 3.19-1.59 4.93-4.04 5.89l4.69 8.052a.36.36 0 0 1 .06.244c0 .2-.12.353-.36.353l-.04.018zm-58.1-12.23c0-3.98-2.39-5.76-5.32-5.76s-5.32 1.78-5.32 5.75v3.08c0 3.97 2.38 5.75 5.32 5.75 2.92 0 5.31-1.78 5.31-5.75v-3.08zm-5.32 12.47c-4.94 0-9.5-2.77-9.5-9.4v-3.08c0-6.63 4.56-9.4 9.49-9.4s9.5 2.77 9.5 9.39v3.08c0 6.62-4.57 9.39-9.51 9.39h.01zm-21.14.01c-2.64 0-5.32-.46-6.76-.79-.3-.06-.57-.27-.57-.6v-2.18c0-.33.27-.58.56-.58h.06c1.19.15 3.99.54 6.76.54 2.66 0 3.47-.97 3.47-2.71 0-2.26-5.35-3.51-7.96-4.6-2.61-1.09-3.53-3.16-3.53-5.26 0-3.32 2.65-5.73 8.21-5.73 2.85 0 5.45.54 6.47.79.3.06.53.27.53.56v2.23c0 .3-.21.54-.5.54h-.06c-1.97-.19-4.02-.55-6.63-.55-2.2 0-3.87.78-3.87 2.13 0 .99 1.12 1.9 2.45 2.43 1.33.52 3.08 1.21 5.06 2.01 2.53 1.02 4.16 2.52 4.16 5.4 0 3.04-1.88 6.29-7.87 6.29l-.02.04zm52.34-.25h-3.03c-.72 0-1.35 0-1.82-1.09l-8.11-13.68c-.09-.18-.18-.25-.27-.25-.09 0-.16.06-.16.24v14.16c0 .33-.24.6-.57.6h-2.53a.6.6 0 0 1-.6-.6v-19.59c0-.66.53-1.2 1.19-1.2h3.23c.62 0 .95.18 1.31.97l8.44 14.49c.06.15.14.24.24.24.06 0 .14-.1.14-.28v-14.85a.55.55 0 0 1 .57-.57h2.57c.33 0 .57.24.57.57v19.61c0 .66-.54 1.2-1.19 1.2zm-65.68 0h-3.02c-.27 0-.48-.31-.48-.61v-13.02c0-.21-.03-.3-.1-.3-.03 0-.09.09-.15.18l-4.82 10.78c-.18.33-.57.51-.96.51h-1.55c-.39 0-.78-.19-.96-.51l-4.86-10.76c-.07-.08-.13-.17-.15-.17-.06 0-.09.1-.09.3v13.02c0 .31-.21.61-.48.61h-3.02c-.27 0-.52-.15-.52-.45v-19.76c0-.66.54-1.2 1.19-1.2h2.45c.47 0 .89.3 1.1.72l5.73 11.77c.14.27.21.43.34.43.12 0 .17-.15.32-.42l5.73-11.76c.21-.43.63-.72 1.11-.72h2.45c.65 0 1.19.54 1.19 1.21v19.74c0 .29-.24.45-.51.45l.02-.03zm-29.96-12.24c0-3.98-2.38-5.76-5.32-5.76-2.93 0-5.32 1.77-5.32 5.75v3.08c0 3.97 2.38 5.75 5.31 5.75 2.93 0 5.31-1.78 5.31-5.75v-3.08zm-5.31 12.48c-4.94 0-9.5-2.77-9.5-9.4v-3.08c0-6.63 4.56-9.4 9.49-9.4 4.93 0 9.5 2.77 9.5 9.39v3.08c0 6.63-4.57 9.4-9.51 9.4zm-14.82-.24h-2.96a.607.607 0 0 1-.61-.61v-8.73h-9.47v8.73c0 .33-.27.61-.6.61h-2.96a.602.602 0 0 1-.6-.61v-20.21c0-.33.27-.57.6-.57h2.96c.33 0 .59.24.59.58v7.83h9.47v-7.82c0-.33.27-.57.6-.57h2.96c.32 0 .59.23.59.57v20.22a.61.61 0 0 1-.6.61v-.04zm-21.58-17.9h-5.97v17.3c0 .33-.27.61-.6.61h-2.95a.6.6 0 0 1-.6-.61v-17.29h-5.97c-.33 0-.6-.21-.6-.55v-2.38c0-.33.27-.57.6-.57h16.09c.33 0 .6.23.6.57v2.38c0 .33-.27.54-.6.54v-.01z"/>
  <path fill="url(#a)" d="M88.428 239.74c-.854.466-1.16 1.55-.708 2.4.454.872 1.535 1.176 2.39.728a1.805 1.805 0 0 0 .71-2.42 1.76 1.76 0 0 0-2.39-.72m4.737.068c-.76.407-1.032 1.363-.634 2.133a1.537 1.537 0 0 0 2.107.62 1.58 1.58 0 0 0 .643-2.14 1.53 1.53 0 0 0-1.363-.83c-.245 0-.507.07-.744.2m-9.223 1.27a2 2 0 0 0-.795 2.71 2 2 0 0 0 2.716.82 2.01 2.01 0 0 0 .804-2.72 1.977 1.977 0 0 0-1.76-1.07c-.313 0-.643.07-.948.23m13.775.22a1.415 1.415 0 0 0-.567 1.88c.355.67 1.21.91 1.853.55a1.374 1.374 0 0 0 .56-1.87 1.37 1.37 0 0 0-1.21-.74c-.21 0-.43.05-.63.16m-17.37 2.86a1.783 1.783 0 0 0-.72 2.41 1.75 1.75 0 0 0 2.38.71 1.77 1.77 0 0 0 .73-2.4 1.766 1.766 0 0 0-1.55-.95c-.28 0-.56.06-.82.21m21.25.01a1.208 1.208 0 0 0-.49 1.61 1.205 1.205 0 0 0 1.61.49c.57-.33.8-1.04.49-1.62a1.174 1.174 0 0 0-1.03-.63c-.18 0-.37.04-.55.15m2.9 3.87c-.46.27-.64.88-.38 1.35a.98.98 0 0 0 1.32.4.97.97 0 0 0 .4-1.33.983.983 0 0 0-1.32-.43m-26.69.143a1.602 1.602 0 0 0-.64 2.14c.42.756 1.37 1.05 2.12.64a1.583 1.583 0 0 0 .65-2.14 1.58 1.58 0 0 0-1.39-.82c-.25 0-.5.06-.74.185m28.14 4.12a1.188 1.188 0 0 0-.48 1.61 1.17 1.17 0 0 0 1.58.49c.59-.34.81-1.06.5-1.625a1.182 1.182 0 0 0-1.03-.62 1.16 1.16 0 0 0-.55.144m-29.41.55a1.38 1.38 0 0 0-.55 1.86 1.37 1.37 0 0 0 1.86.56c.66-.355.91-1.21.557-1.87a1.363 1.363 0 0 0-1.2-.72c-.23 0-.457.06-.67.18m29.386 3.95c-.67.374-.91 1.2-.56 1.89.353.66 1.21.904 1.86.55.66-.365.904-1.2.54-1.87a1.357 1.357 0 0 0-1.19-.72c-.22 0-.44.06-.65.17m-29.19.853a1.21 1.21 0 0 0-.48 1.614 1.143 1.143 0 0 0 1.58.47 1.16 1.16 0 0 0 .47-1.6 1.205 1.205 0 0 0-1.04-.62c-.18 0-.38.05-.56.14m27.78 3.42c-.77.4-1.05 1.39-.64 2.15.41.76 1.36 1.05 2.1.63.79-.42 1.05-1.37.66-2.14a1.57 1.57 0 0 0-1.38-.82c-.24 0-.5.06-.73.196m-26.15 1.15a.99.99 0 0 0-.39 1.342.986.986 0 0 0 1.33.41.997.997 0 0 0 .39-1.345.987.987 0 0 0-.873-.51.97.97 0 0 0-.46.12m23.42 2.497a1.78 1.78 0 0 0-.71 2.41 1.738 1.738 0 0 0 2.39.71c.85-.44 1.17-1.54.7-2.397a1.794 1.794 0 0 0-1.556-.93c-.28 0-.563.07-.83.22m-20.68 1.01a1.18 1.18 0 0 0-.48 1.6c.3.58 1.01.79 1.58.47.57-.294.79-1.02.48-1.59a1.16 1.16 0 0 0-1.03-.61c-.19 0-.38.04-.55.13m16.87 1.61a1.987 1.987 0 0 0-.8 2.71 2.008 2.008 0 0 0 2.71.81c.963-.54 1.32-1.76.8-2.71a1.99 1.99 0 0 0-1.76-1.07c-.32 0-.65.076-.95.245m-13.14.89a1.36 1.36 0 0 0-.555 1.86 1.35 1.35 0 0 0 1.84.57c.67-.38.92-1.22.56-1.88a1.402 1.402 0 0 0-1.21-.71c-.216 0-.44.05-.64.17m8.883.89c-.86.46-1.16 1.53-.69 2.41a1.712 1.712 0 0 0 2.37.7c.86-.45 1.17-1.53.71-2.39a1.765 1.765 0 0 0-2.4-.72m-4.544.28c-.76.41-1.03 1.38-.63 2.14a1.564 1.564 0 0 0 2.127.64c.77-.407 1.05-1.37.64-2.15a1.572 1.572 0 0 0-1.39-.82 1.69 1.69 0 0 0-.758.18"/>
  <path fill="url(#b)" d="M89.208 234.895a2.252 2.252 0 0 0 1.51 2.798c1.194.354 2.43-.338 2.785-1.52.355-1.195-.322-2.457-1.507-2.8a2.068 2.068 0 0 0-.643-.098c-.973 0-1.844.635-2.14 1.616m6 .73c-.4 1.38.362 2.81 1.742 3.22a2.563 2.563 0 0 0 3.19-1.74 2.593 2.593 0 0 0-1.735-3.24 2.57 2.57 0 0 0-3.18 1.76m-12.016.53a2.016 2.016 0 0 0 1.353 2.49 1.977 1.977 0 0 0 2.47-1.36 2.022 2.022 0 0 0-1.344-2.49 1.818 1.818 0 0 0-.55-.08c-.872 0-1.66.57-1.92 1.43m18.072 2.32a2.247 2.247 0 0 0 1.515 2.79c1.184.36 2.428-.34 2.775-1.53a2.25 2.25 0 0 0-1.514-2.8 1.97 1.97 0 0 0-.62-.09c-.97 0-1.86.65-2.15 1.63m-23.25.88a1.566 1.566 0 1 0 3.01.89 1.58 1.58 0 0 0-1.5-2.02c-.67 0-1.3.45-1.5 1.14m28.11 3.59a2 2 0 0 0 1.35 2.49c1.06.32 2.16-.3 2.47-1.36a1.978 1.978 0 0 0-1.34-2.47 1.842 1.842 0 0 0-.56-.08c-.85 0-1.64.57-1.9 1.43m-32.23 1.18a1.27 1.27 0 0 0 2.44.72c.21-.67-.18-1.38-.85-1.59a1.275 1.275 0 0 0-1.57.87m35.65 4.59a1.577 1.577 0 0 0 1.07 1.97 1.56 1.56 0 0 0 1.95-1.07 1.57 1.57 0 0 0-1.5-2.02c-.68 0-1.3.45-1.5 1.13M71.56 250a.96.96 0 0 0 .64 1.193.96.96 0 0 0 1.18-.65.974.974 0 0 0-.66-1.196 1 1 0 0 0-.27-.034.937.937 0 0 0-.903.677m39.525 5.092a1.268 1.268 0 0 0 .86 1.58 1.258 1.258 0 0 0 1.57-.87 1.29 1.29 0 0 0-.858-1.59 1.268 1.268 0 0 0-1.575.87m-40.66 1.18a1.277 1.277 0 0 0 .86 1.58 1.255 1.255 0 0 0 1.57-.86 1.277 1.277 0 0 0-.86-1.582 1.118 1.118 0 0 0-.35-.05c-.55 0-1.06.364-1.23.916m40.14 5.287c-.14.51.14 1.04.63 1.19a.933.933 0 0 0 1.17-.643.95.95 0 0 0-.64-1.185.957.957 0 0 0-1.17.65m-39.24.924c-.23.83.21 1.71 1.06 1.96.82.25 1.69-.24 1.94-1.08.24-.84-.24-1.71-1.06-1.94a1.53 1.53 0 0 0-1.94 1.06m36.21 4.76c-.2.68.19 1.39.85 1.58.68.2 1.39-.19 1.58-.86a1.292 1.292 0 0 0-.86-1.59 1.2 1.2 0 0 0-.36-.05c-.55 0-1.05.36-1.218.92m-33.58.73a2.004 2.004 0 0 0 1.34 2.49c1.06.31 2.15-.3 2.48-1.36a2.016 2.016 0 0 0-1.92-2.58c-.86 0-1.64.56-1.91 1.44m28.92 3.83a1.593 1.593 0 0 0 1.07 1.95 1.56 1.56 0 0 0 1.933-1.06 1.57 1.57 0 0 0-1.498-2.03 1.58 1.58 0 0 0-1.51 1.13m-24.53.5a2.25 2.25 0 0 0 1.51 2.79 2.25 2.25 0 0 0 2.78-1.53c.34-1.19-.34-2.45-1.53-2.8a2.22 2.22 0 0 0-2.77 1.53m5.424 2.64c-.39 1.39.37 2.81 1.745 3.22a2.577 2.577 0 0 0 3.19-1.76c.4-1.37-.37-2.81-1.743-3.22a2.582 2.582 0 0 0-.73-.1c-1.12 0-2.14.73-2.46 1.86m13.1-.19a2.01 2.01 0 0 0 1.35 2.49 1.984 1.984 0 0 0 2.47-1.36c.303-1.05-.29-2.17-1.347-2.48a1.925 1.925 0 0 0-.564-.08c-.86 0-1.657.57-1.91 1.44m-6.48 1.13a2.258 2.258 0 0 0 1.52 2.783 2.213 2.213 0 0 0 2.77-1.513c.34-1.19-.33-2.45-1.513-2.8a2.237 2.237 0 0 0-2.79 1.53"/>
  <path fill="url(#c)" d="M93.508 227.16a2.58 2.58 0 0 0 .113 3.633 2.528 2.528 0 0 0 3.6-.106 2.588 2.588 0 0 0-.1-3.635 2.532 2.532 0 0 0-3.6.102m-8.07.626a2.03 2.03 0 0 0 .09 2.86 2.01 2.01 0 0 0 2.85-.093 2.044 2.044 0 0 0-.08-2.86 1.964 1.964 0 0 0-1.37-.55c-.53 0-1.06.21-1.46.626m15.99 1.54a2.905 2.905 0 0 0 .12 4.087 2.873 2.873 0 0 0 4.06-.12c1.09-1.158 1.04-2.994-.11-4.086a2.836 2.836 0 0 0-4.05.12m-23.7 1.606a1.648 1.648 0 0 0 .07 2.31c.66.61 1.69.584 2.3-.076a1.64 1.64 0 0 0-.06-2.31 1.598 1.598 0 0 0-1.12-.448c-.43 0-.85.17-1.17.508m30.39 2.927a3.317 3.317 0 0 0 .13 4.69 3.293 3.293 0 0 0 4.67-.12 3.364 3.364 0 0 0-.13-4.72 3.273 3.273 0 0 0-4.66.15m-36.81 2.6a1.22 1.22 0 0 0 .05 1.73c.5.47 1.27.44 1.71-.05a1.228 1.228 0 0 0-.04-1.72 1.21 1.21 0 0 0-.84-.32c-.31 0-.63.13-.87.38m42.28 4.47a2.905 2.905 0 0 0 .13 4.09 2.85 2.85 0 0 0 4.06-.12 2.89 2.89 0 0 0-.13-4.09 2.787 2.787 0 0 0-1.96-.78 2.84 2.84 0 0 0-2.09.92m-47.4 2.27a1.64 1.64 0 0 0 .075 2.32 1.62 1.62 0 0 0 2.29-.06 1.648 1.648 0 0 0-.07-2.31 1.628 1.628 0 0 0-2.3.06m50.45 5.96a2.574 2.574 0 0 0 .1 3.63 2.53 2.53 0 0 0 3.605-.11c.975-1.02.916-2.65-.11-3.63a2.556 2.556 0 0 0-1.75-.69c-.676 0-1.353.27-1.853.81m-53.125 2c-.74.82-.724 2.08.09 2.85.8.77 2.08.72 2.84-.08.764-.82.72-2.1-.083-2.86a2.03 2.03 0 0 0-1.39-.55c-.53 0-1.065.22-1.46.64m53.77 6.91a2.034 2.034 0 0 0 .09 2.85c.82.77 2.076.73 2.84-.08.76-.81.73-2.09-.09-2.86a1.96 1.96 0 0 0-1.375-.55 2 2 0 0 0-1.465.63m-53.9 1.23a2.59 2.59 0 0 0 .12 3.63 2.533 2.533 0 0 0 3.607-.11c.97-1.03.92-2.66-.11-3.64a2.5 2.5 0 0 0-1.74-.7c-.682 0-1.36.28-1.87.81m51.81 7.24a1.653 1.653 0 0 0 .07 2.32c.66.63 1.69.59 2.31-.08a1.66 1.66 0 0 0-.07-2.31 1.63 1.63 0 0 0-2.31.086m-49.172.6a2.896 2.896 0 0 0 .11 4.084 2.855 2.855 0 0 0 4.05-.126c1.084-1.16 1.033-2.993-.12-4.08a2.856 2.856 0 0 0-1.955-.782c-.77 0-1.53.317-2.09.917m4.87 6.45a3.35 3.35 0 0 0 .144 4.703 3.26 3.26 0 0 0 4.65-.144 3.344 3.344 0 0 0-.136-4.705 3.315 3.315 0 0 0-2.267-.906c-.88 0-1.75.36-2.4 1.05m39.83.3a1.225 1.225 0 0 0 .05 1.73c.49.46 1.25.44 1.71-.06a1.216 1.216 0 0 0-1.77-1.668m-32.5 4.81c-1.08 1.15-1.02 2.98.13 4.08a2.845 2.845 0 0 0 4.05-.12c1.09-1.17 1.05-2.99-.11-4.08a2.825 2.825 0 0 0-1.96-.79h-.01a2.83 2.83 0 0 0-2.08.914m25.5.11a1.646 1.646 0 0 0 .07 2.317c.66.62 1.69.587 2.3-.073a1.643 1.643 0 0 0-.06-2.31 1.602 1.602 0 0 0-2.29.07m-17.14 2.47a2.57 2.57 0 0 0 .11 3.63 2.53 2.53 0 0 0 3.606-.105 2.578 2.578 0 0 0-.1-3.63 2.514 2.514 0 0 0-1.75-.7c-.69 0-1.37.27-1.87.81m8.87.13c-.754.8-.714 2.09.09 2.86.81.77 2.08.72 2.84-.1a2.02 2.02 0 0 0-1.46-3.4c-.54 0-1.07.21-1.47.64"/>
  <path fill="url(#d)" d="M95.646 218.084a2.215 2.215 0 0 0-1.733 2.613 2.21 2.21 0 0 0 2.6 1.74 2.218 2.218 0 0 0 1.727-2.612 2.2 2.2 0 0 0-2.593-1.74m-9.14.602a1.74 1.74 0 0 0-1.454 1.968 1.738 1.738 0 0 0 1.963 1.465 1.726 1.726 0 0 0 1.455-1.97 1.715 1.715 0 0 0-1.95-1.467m17.96 1.27c-1.43.367-2.29 1.83-1.93 3.276.37 1.43 1.83 2.31 3.26 1.94a2.692 2.692 0 0 0 1.93-3.28 2.674 2.674 0 0 0-2.58-2.03c-.22 0-.44.02-.66.08m-27.31 1.52a1.62 1.62 0 0 0-.83 2.12 1.6 1.6 0 0 0 2.11.85 1.63 1.63 0 0 0 .85-2.13 1.606 1.606 0 0 0-2.11-.84m35.12 2.46a3.36 3.36 0 0 0-2.18 4.2c.55 1.77 2.42 2.76 4.17 2.21 1.76-.55 2.74-2.44 2.19-4.2a3.33 3.33 0 0 0-4.17-2.2m-43.56 2.48a1.744 1.744 0 0 0-.27 2.43c.59.75 1.68.88 2.42.29.75-.6.88-1.69.29-2.45a1.71 1.71 0 0 0-1.34-.66c-.37 0-.75.13-1.07.38m49.93 3.77a3.69 3.69 0 0 0-2.17 4.74 3.665 3.665 0 0 0 4.71 2.19 3.716 3.716 0 0 0 2.18-4.76 3.664 3.664 0 0 0-3.44-2.42c-.42 0-.85.07-1.27.23m-56.69 2.5a2.223 2.223 0 0 0-.52 3.09 2.19 2.19 0 0 0 3.07.52 2.228 2.228 0 0 0 .53-3.09 2.195 2.195 0 0 0-1.79-.94c-.45 0-.89.14-1.28.42m61.14 5.35a4.03 4.03 0 0 0-2.09 5.28 3.986 3.986 0 0 0 5.25 2.102 4.032 4.032 0 0 0 2.086-5.29 3.98 3.98 0 0 0-5.25-2.1m-65.84 2.38a2.7 2.7 0 0 0-.826 3.72 2.66 2.66 0 0 0 3.69.84c1.25-.796 1.62-2.466.83-3.72a2.657 2.657 0 0 0-3.69-.83m68.34 7.034c-1.82.91-2.564 3.13-1.67 4.96a3.652 3.652 0 0 0 4.93 1.684c1.81-.9 2.56-3.116 1.66-4.95a3.677 3.677 0 0 0-3.3-2.06c-.55 0-1.11.127-1.624.38m-70.82 1.41a3.36 3.36 0 0 0-1.28 4.57 3.318 3.318 0 0 0 4.536 1.29c1.6-.906 2.17-2.96 1.27-4.58a3.3 3.3 0 0 0-2.906-1.71h-.02c-.55 0-1.11.14-1.63.43m70.95 8.36c-1.6.9-2.17 2.96-1.28 4.57a3.313 3.313 0 0 0 4.54 1.28 3.354 3.354 0 0 0 1.28-4.56 3.35 3.35 0 0 0-2.91-1.72 3.29 3.29 0 0 0-1.633.44m-70.82.65c-1.78.88-2.54 3.1-1.64 4.94.91 1.83 3.12 2.58 4.94 1.67 1.82-.9 2.56-3.13 1.66-4.96a3.65 3.65 0 0 0-4.93-1.67m2.61 8.66c-2.02.87-2.97 3.24-2.09 5.29a3.99 3.99 0 0 0 5.257 2.1 4.045 4.045 0 0 0 2.07-5.3 3.988 3.988 0 0 0-3.66-2.43c-.52 0-1.06.1-1.58.33m66.14.45a2.69 2.69 0 0 0-.83 3.71 2.642 2.642 0 0 0 3.68.84 2.7 2.7 0 0 0 .83-3.72 2.687 2.687 0 0 0-2.27-1.24c-.49 0-.98.13-1.42.41m-61.07 7.845a3.713 3.713 0 0 0-2.17 4.75c.71 1.933 2.822 2.9 4.71 2.184a3.7 3.7 0 0 0 2.173-4.76 3.687 3.687 0 0 0-3.45-2.42 3.61 3.61 0 0 0-1.28.24m56.68.83a2.22 2.22 0 0 0-.52 3.09 2.194 2.194 0 0 0 3.07.533 2.238 2.238 0 0 0 .51-3.11 2.205 2.205 0 0 0-3.08-.53m-49.656 5.99c-1.76.55-2.74 2.43-2.19 4.2a3.308 3.308 0 0 0 4.17 2.2 3.346 3.346 0 0 0 2.19-4.19 3.332 3.332 0 0 0-3.18-2.36c-.32 0-.66.053-.99.16m43.407 1.2a1.758 1.758 0 0 0-.28 2.44c.59.75 1.68.88 2.43.28.74-.6.88-1.69.287-2.44a1.698 1.698 0 0 0-1.35-.66 1.73 1.73 0 0 0-1.072.37m-34.96 4c-1.42.364-2.28 1.83-1.92 3.27a2.67 2.67 0 0 0 3.25 1.95 2.69 2.69 0 0 0 1.93-3.28 2.69 2.69 0 0 0-2.59-2.03c-.22 0-.44.03-.664.086m27.354.73a1.614 1.614 0 0 0-.84 2.12 1.596 1.596 0 0 0 2.1.85 1.628 1.628 0 0 0 .84-2.13 1.612 1.612 0 0 0-2.12-.84m-18.1 2.03a2.223 2.223 0 0 0-1.73 2.61 2.204 2.204 0 0 0 2.59 1.75 2.226 2.226 0 0 0-.435-4.4c-.14 0-.28.01-.43.04m9.51.31a1.737 1.737 0 0 0 .51 3.437 1.738 1.738 0 0 0 1.463-1.97 1.73 1.73 0 0 0-1.71-1.49c-.074 0-.16 0-.244.016"/>
  <path fill="url(#e)" d="M89.873 209.92c0 1.148.924 2.07 2.054 2.07 1.136 0 2.06-.92 2.06-2.07a2.057 2.057 0 1 0-4.114 0m-10.354-.573a2.224 2.224 0 0 0-1.57 2.72 2.21 2.21 0 0 0 2.7 1.572 2.228 2.228 0 0 0 1.57-2.73 2.204 2.204 0 0 0-2.13-1.65c-.19 0-.39.02-.58.08m22.11 1.57a2.227 2.227 0 0 0 1.56 2.72 2.21 2.21 0 0 0 2.71-1.58 2.225 2.225 0 0 0-2.15-2.8c-.97 0-1.87.65-2.13 1.65m-33.17 2.39a2.833 2.833 0 0 0-2.18 3.37 2.82 2.82 0 0 0 3.35 2.18c1.52-.33 2.49-1.84 2.17-3.38a2.813 2.813 0 0 0-2.76-2.25c-.2 0-.4.02-.6.06m43.57 2.19a2.835 2.835 0 0 0 2.17 3.37 2.814 2.814 0 0 0 3.34-2.19 2.833 2.833 0 0 0-2.17-3.37 2.74 2.74 0 0 0-.6-.07c-1.31 0-2.48.91-2.75 2.25M59.01 220a3.43 3.43 0 0 0-2.844 3.943c.298 1.875 2.05 3.164 3.91 2.87 1.87-.3 3.14-2.07 2.844-3.955a3.427 3.427 0 0 0-3.915-2.86m61.84 2.865c-.297 1.884.97 3.654 2.84 3.95 1.86.298 3.62-.99 3.92-2.87a3.438 3.438 0 0 0-3.382-3.983 3.428 3.428 0 0 0-3.387 2.904m6.394 9.64c-.245 2.36 1.464 4.475 3.8 4.72 2.34.254 4.44-1.47 4.687-3.824a4.29 4.29 0 0 0-4.254-4.745c-2.15 0-4.01 1.64-4.24 3.86m-75.43-3.833c-2.353.257-4.045 2.355-3.8 4.73.237 2.36 2.335 4.08 4.69 3.828 2.333-.246 4.042-2.36 3.8-4.722-.24-2.215-2.09-3.85-4.24-3.85-.155 0-.307.01-.46.028m79.57 15.138c-.135 2.61 1.854 4.842 4.443 4.99 2.593.13 4.81-1.87 4.95-4.49a4.72 4.72 0 0 0-4.46-4.977c-.088-.01-.17-.01-.257-.01a4.703 4.703 0 0 0-4.69 4.486m-83.93-4.486c-2.59.136-4.59 2.35-4.45 4.984.13 2.62 2.35 4.63 4.95 4.5 2.59-.13 4.58-2.37 4.45-4.98a4.71 4.71 0 0 0-4.7-4.48c-.09 0-.17 0-.26.01m85.07 16.65c0 2.85 2.29 5.17 5.11 5.17 2.83 0 5.12-2.31 5.12-5.15 0-2.86-2.3-5.15-5.12-5.15-2.84 0-5.12 2.3-5.12 5.16m-91.5 0c0 2.84 2.3 5.16 5.12 5.16 2.81 0 5.11-2.31 5.11-5.16 0-2.86-2.3-5.15-5.11-5.15-2.83 0-5.13 2.3-5.13 5.16m94.87 7.15c-2.59.14-4.58 2.37-4.44 4.98.13 2.63 2.35 4.62 4.94 4.48 2.59-.14 4.59-2.35 4.45-4.99-.13-2.53-2.22-4.49-4.7-4.49h-.25M43 267.67c-.135 2.63 1.864 4.84 4.45 4.98a4.714 4.714 0 0 0 4.954-4.486c.13-2.61-1.864-4.84-4.455-4.98h-.24c-2.48 0-4.57 1.967-4.7 4.497m88.06 7.09c-2.34.25-4.05 2.36-3.8 4.73.25 2.38 2.36 4.07 4.69 3.83a4.273 4.273 0 0 0 3.8-4.72c-.23-2.2-2.08-3.85-4.24-3.85-.15 0-.3.01-.45.03m-83.02 3.82a4.292 4.292 0 0 0 3.8 4.73 4.275 4.275 0 0 0 4.69-3.82c.24-2.36-1.46-4.47-3.8-4.72-.15-.02-.3-.02-.46-.02-2.16 0-4.01 1.64-4.23 3.85m75.66 6.59a3.448 3.448 0 0 0-2.84 3.96 3.423 3.423 0 0 0 3.92 2.87c1.86-.3 3.14-2.05 2.84-3.94-.27-1.7-1.73-2.91-3.38-2.91-.17 0-.36.02-.54.04m-67.57 2.83A3.428 3.428 0 0 0 59 292a3.43 3.43 0 0 0 3.93-2.866c.285-1.88-.98-3.647-2.85-3.945a3.913 3.913 0 0 0-.546-.04 3.42 3.42 0 0 0-3.37 2.91m58.02 5.08a2.84 2.84 0 0 0-2.176 3.37 2.814 2.814 0 0 0 3.35 2.19 2.835 2.835 0 0 0 2.176-3.38 2.836 2.836 0 0 0-2.754-2.25 2.29 2.29 0 0 0-.59.07m-47.93 2.19a2.848 2.848 0 0 0 2.172 3.38 2.816 2.816 0 0 0 3.35-2.2 2.828 2.828 0 0 0-2.76-3.43c-1.304 0-2.48.92-2.76 2.26m36.89 3.03c-1.174.31-1.876 1.53-1.563 2.72a2.204 2.204 0 0 0 2.71 1.57 2.215 2.215 0 0 0 1.57-2.72 2.22 2.22 0 0 0-2.14-1.65c-.19 0-.39.03-.58.08m-25.25 1.57a2.223 2.223 0 0 0 1.56 2.71 2.204 2.204 0 0 0 2.71-1.57 2.23 2.23 0 0 0-2.14-2.8c-.98 0-1.87.66-2.14 1.66m11.92 2.14c0 1.1.84 1.99 1.91 2.06H92a2.067 2.067 0 0 0 1.92-2.07 2.066 2.066 0 0 0-2.01-2.07 2.064 2.064 0 0 0-2.056 2.07"/>
  <defs>
    <linearGradient id="a" x2="1" gradientUnits="userSpaceOnUse" gradientTransform="rotate(151.44 21.298 137.66) scale(31.6458)">
      <stop offset="0" stop-color="#f79210"/>
      <stop offset=".5" stop-color="#f35c19"/>
      <stop offset="1" stop-color="#f79210"/>
    </linearGradient>
    <linearGradient id="b" x2="1" gradientUnits="userSpaceOnUse" gradientTransform="rotate(-163.522 75.137 122.9) scale(42.5706)">
      <stop offset="0" stop-color="#f79210"/>
      <stop offset=".5" stop-color="#f35c19"/>
      <stop offset="1" stop-color="#f79210"/>
    </linearGradient>
    <linearGradient id="c" x2="1" gradientUnits="userSpaceOnUse" gradientTransform="rotate(-134.793 113.492 114.74) scale(56.8026)">
      <stop offset="0" stop-color="#f79210"/>
      <stop offset=".5" stop-color="#f35c19"/>
      <stop offset="1" stop-color="#f79210"/>
    </linearGradient>
    <linearGradient id="d" x2="1" gradientUnits="userSpaceOnUse" gradientTransform="rotate(-113.18 149.15 110.098) scale(75.1012)">
      <stop offset="0" stop-color="#f79210"/>
      <stop offset=".5" stop-color="#f35c19"/>
      <stop offset="1" stop-color="#f79210"/>
    </linearGradient>
    <linearGradient id="e" x2="1" gradientUnits="userSpaceOnUse" gradientTransform="matrix(0 -96.2942 -96.2942 0 91.87 304.15)">
      <stop offset="0" stop-color="#f79210"/>
      <stop offset=".5" stop-color="#f35c19"/>
      <stop offset="1" stop-color="#f79210"/>
    </linearGradient>
  </defs>
</svg>
