<svg width="900" height="299" viewBox="0 0 900 299" xmlns="http://www.w3.org/2000/svg"><title>experience-is-everything</title><g fill-rule="nonzero" fill="none"><path fill="#FF8100" opacity=".6" d="M0 0h900v299H0z"/><path d="M122.762 107H73.497V19.908h49.265v12.033H87.734v23.71h32.824v11.913H87.734v27.343h35.028V107zm31.989-33.657l-22.1-32.228h15.964l15.012 23.054 15.13-23.054h15.847l-22.16 32.228L195.734 107H179.89l-16.263-24.662L147.424 107h-15.846l23.173-33.657zm85.96 34.848c-8.34 0-14.813-2.998-19.42-8.995h-.834c.556 5.56.834 8.936.834 10.127v26.986h-13.999V41.115h11.318c.318 1.231.973 4.17 1.966 8.817h.715c4.369-6.672 10.921-10.008 19.658-10.008 8.221 0 14.625 2.978 19.212 8.935 4.587 5.957 6.88 14.317 6.88 25.08 0 10.762-2.333 19.161-7 25.198-4.666 6.036-11.11 9.054-19.33 9.054zm-3.396-56.83c-5.56 0-9.62 1.629-12.182 4.885-2.561 3.257-3.842 8.459-3.842 15.608v2.084c0 8.023 1.27 13.83 3.813 17.425 2.541 3.594 6.691 5.39 12.45 5.39 4.845 0 8.578-1.985 11.199-5.956 2.621-3.971 3.932-9.63 3.932-16.978 0-7.386-1.301-12.976-3.902-16.769-2.602-3.792-6.424-5.689-11.468-5.689zm74.761 56.83c-10.246 0-18.258-2.988-24.036-8.965-5.779-5.977-8.668-14.207-8.668-24.692 0-10.762 2.68-19.221 8.042-25.377 5.361-6.155 12.728-9.233 22.1-9.233 8.698 0 15.568 2.64 20.612 7.923 5.044 5.282 7.565 12.55 7.565 21.802v7.566h-43.903c.199 6.394 1.926 11.308 5.183 14.743 3.256 3.436 7.843 5.153 13.76 5.153 3.892 0 7.516-.367 10.872-1.102 3.356-.734 6.96-1.956 10.812-3.663v11.378c-3.415 1.628-6.87 2.78-10.365 3.455-3.495.675-7.486 1.012-11.974 1.012zm-2.561-57.664c-4.448 0-8.013 1.41-10.693 4.23-2.68 2.82-4.28 6.93-4.796 12.33h29.905c-.08-5.44-1.39-9.56-3.932-12.36-2.542-2.8-6.036-4.2-10.484-4.2zm77.5-10.603c2.82 0 5.144.198 6.97.596l-1.37 13.045a26.458 26.458 0 0 0-6.195-.714c-5.6 0-10.137 1.826-13.612 5.48-3.475 3.654-5.212 8.4-5.212 14.237V107h-14V41.115h10.962l1.846 11.616h.715c2.184-3.931 5.034-7.049 8.548-9.352 3.515-2.303 7.298-3.455 11.349-3.455zM420.197 107h-13.999V41.115h14V107zm-14.833-83.339c0-2.502.685-4.428 2.055-5.778 1.37-1.35 3.326-2.026 5.868-2.026 2.462 0 4.379.676 5.749 2.026 1.37 1.35 2.055 3.276 2.055 5.778 0 2.383-.685 4.26-2.055 5.63s-3.287 2.055-5.749 2.055c-2.542 0-4.497-.685-5.868-2.055-1.37-1.37-2.055-3.247-2.055-5.63zm63.621 84.53c-10.246 0-18.258-2.988-24.036-8.965-5.779-5.977-8.668-14.207-8.668-24.692 0-10.762 2.68-19.221 8.042-25.377 5.362-6.155 12.728-9.233 22.1-9.233 8.698 0 15.569 2.64 20.612 7.923 5.044 5.282 7.566 12.55 7.566 21.802v7.566h-43.904c.199 6.394 1.926 11.308 5.183 14.743 3.256 3.436 7.843 5.153 13.76 5.153 3.893 0 7.516-.367 10.872-1.102 3.356-.734 6.96-1.956 10.812-3.663v11.378c-3.415 1.628-6.87 2.78-10.365 3.455-3.495.675-7.486 1.012-11.974 1.012zm-2.561-57.664c-4.448 0-8.012 1.41-10.693 4.23-2.68 2.82-4.28 6.93-4.795 12.33h29.904c-.08-5.44-1.39-9.56-3.932-12.36-2.541-2.8-6.036-4.2-10.484-4.2zM568.467 107h-14.059V66.492c0-5.083-1.022-8.876-3.068-11.378-2.045-2.502-5.291-3.753-9.74-3.753-5.917 0-10.245 1.748-12.986 5.243-2.74 3.494-4.11 9.352-4.11 17.573V107h-14V41.115h10.962l1.966 8.638h.714c1.986-3.137 4.806-5.56 8.46-7.268 3.653-1.707 7.704-2.561 12.152-2.561 15.806 0 23.709 8.042 23.709 24.126V107zm46.048 1.191c-9.968 0-17.544-2.909-22.726-8.727-5.183-5.818-7.774-14.167-7.774-25.049 0-11.08 2.71-19.599 8.131-25.556 5.42-5.957 13.254-8.935 23.5-8.935 6.95 0 13.205 1.29 18.765 3.872l-4.23 11.259c-5.917-2.304-10.801-3.455-14.654-3.455-11.398 0-17.096 7.565-17.096 22.696 0 7.387 1.42 12.937 4.259 16.65 2.84 3.713 7 5.57 12.48 5.57 6.235 0 12.132-1.55 17.692-4.647v12.212a27.647 27.647 0 0 1-8.012 3.157c-2.84.636-6.285.953-10.335.953zm62.608 0c-10.246 0-18.258-2.988-24.037-8.965-5.778-5.977-8.667-14.207-8.667-24.692 0-10.762 2.68-19.221 8.042-25.377 5.361-6.155 12.728-9.233 22.1-9.233 8.698 0 15.568 2.64 20.612 7.923 5.043 5.282 7.565 12.55 7.565 21.802v7.566h-43.903c.199 6.394 1.926 11.308 5.183 14.743 3.256 3.436 7.843 5.153 13.76 5.153 3.892 0 7.516-.367 10.872-1.102 3.356-.734 6.96-1.956 10.812-3.663v11.378c-3.415 1.628-6.87 2.78-10.365 3.455-3.495.675-7.486 1.012-11.974 1.012zm-2.561-57.664c-4.448 0-8.013 1.41-10.693 4.23-2.681 2.82-4.28 6.93-4.796 12.33h29.905c-.08-5.44-1.39-9.56-3.932-12.36-2.542-2.8-6.037-4.2-10.484-4.2zM764.334 107h-13.999V41.115h13.999V107zm-14.833-83.339c0-2.502.685-4.428 2.055-5.778 1.37-1.35 3.326-2.026 5.868-2.026 2.462 0 4.378.676 5.748 2.026 1.37 1.35 2.056 3.276 2.056 5.778 0 2.383-.686 4.26-2.056 5.63s-3.286 2.055-5.748 2.055c-2.542 0-4.498-.685-5.868-2.055s-2.055-3.247-2.055-5.63zm79.11 64.574c0 6.434-2.344 11.368-7.03 14.804-4.686 3.435-11.398 5.152-20.135 5.152-8.776 0-15.826-1.33-21.147-3.99V92.106c7.744 3.575 14.952 5.362 21.624 5.362 8.618 0 12.927-2.601 12.927-7.804 0-1.668-.477-3.058-1.43-4.17s-2.522-2.264-4.706-3.455c-2.184-1.191-5.222-2.542-9.114-4.05-7.586-2.94-12.719-5.878-15.4-8.817-2.68-2.939-4.02-6.751-4.02-11.438 0-5.639 2.273-10.017 6.82-13.135 4.548-3.117 10.733-4.676 18.557-4.676 7.744 0 15.07 1.568 21.981 4.706l-4.527 10.544c-7.109-2.939-13.086-4.408-17.93-4.408-7.388 0-11.081 2.104-11.081 6.314 0 2.065.963 3.813 2.89 5.242 1.925 1.43 6.125 3.396 12.598 5.898 5.441 2.105 9.393 4.03 11.855 5.778 2.462 1.747 4.289 3.763 5.48 6.046 1.192 2.284 1.787 5.014 1.787 8.191zM133.706 247H73.136V139.92h60.571v14.795H90.641v29.15h40.356v14.649H90.641v33.618h43.066V247zm39.77 0l-30.761-81.006h18.164l16.48 47.095c2.831 7.91 4.54 14.306 5.126 19.19h.586c.44-3.516 2.149-9.913 5.127-19.19l16.48-47.095h18.31L192.081 247h-18.603zm97.193 1.465c-12.598 0-22.449-3.674-29.553-11.023-7.105-7.349-10.657-17.468-10.657-30.359 0-13.232 3.296-23.633 9.888-31.201 6.591-7.569 15.649-11.353 27.173-11.353 10.693 0 19.14 3.247 25.341 9.742 6.202 6.494 9.302 15.43 9.302 26.806v9.302h-53.98c.245 7.861 2.369 13.904 6.373 18.127 4.004 4.224 9.643 6.336 16.919 6.336 4.785 0 9.24-.452 13.366-1.355 4.126-.904 8.557-2.405 13.294-4.505v13.99c-4.2 2.002-8.448 3.418-12.744 4.248-4.297.83-9.204 1.245-14.722 1.245zm-3.15-70.899c-5.468 0-9.85 1.734-13.146 5.2-3.296 3.467-5.262 8.521-5.896 15.162h36.767c-.098-6.69-1.709-11.756-4.834-15.198-3.125-3.442-7.422-5.164-12.89-5.164zm95.289-13.037c3.466 0 6.323.244 8.569.733l-1.685 16.04a32.53 32.53 0 0 0-7.617-.88c-6.885 0-12.463 2.247-16.736 6.74-4.272 4.491-6.408 10.326-6.408 17.504V247H321.72v-81.006h13.476l2.27 14.282h.88c2.685-4.834 6.189-8.667 10.51-11.499 4.321-2.832 8.972-4.248 13.953-4.248zm11.279 1.465h18.75l16.48 45.923c2.49 6.543 4.15 12.695 4.98 18.457h.586c.44-2.686 1.245-5.945 2.417-9.778 1.172-3.833 7.373-22.033 18.603-54.602h18.604l-34.644 91.773c-6.299 16.845-16.797 25.268-31.494 25.268-3.808 0-7.52-.415-11.133-1.245v-13.623c2.588.586 5.542.879 8.863.879 8.3 0 14.135-4.81 17.504-14.429l3.003-7.617-32.52-81.006zm122.9 68.555c4.2 0 8.399-.66 12.598-1.978v12.964c-1.904.83-4.358 1.526-7.36 2.088a50.713 50.713 0 0 1-9.34.842c-16.308 0-24.462-8.594-24.462-25.781V179.03h-11.06v-7.617l11.865-6.299 5.86-17.138h10.62v18.017h23.071v13.037H485.71v43.36c0 4.15 1.038 7.214 3.113 9.192 2.075 1.977 4.797 2.966 8.166 2.966zM597.038 247h-17.286v-49.805c0-6.25-1.257-10.913-3.772-13.989-2.515-3.076-6.506-4.614-11.975-4.614-7.227 0-12.537 2.16-15.93 6.482-3.394 4.321-5.09 11.56-5.09 21.716V247h-17.213V133.035h17.212v28.93c0 4.64-.293 9.596-.879 14.869h1.1c2.343-3.906 5.602-6.934 9.777-9.082 4.175-2.148 9.045-3.223 14.612-3.223 19.629 0 29.443 9.888 29.443 29.663V247zm41.161 0h-17.212v-81.006H638.2V247zm-18.237-102.466c0-3.076.842-5.444 2.527-7.104 1.684-1.66 4.09-2.49 7.214-2.49 3.027 0 5.383.83 7.068 2.49 1.685 1.66 2.527 4.028 2.527 7.104 0 2.93-.842 5.237-2.527 6.922-1.685 1.684-4.04 2.526-7.068 2.526-3.125 0-5.53-.842-7.214-2.526-1.685-1.685-2.527-3.992-2.527-6.922zM734.073 247h-17.285v-49.805c0-6.25-1.257-10.913-3.772-13.989-2.515-3.076-6.506-4.614-11.975-4.614-7.275 0-12.598 2.148-15.967 6.445-3.369 4.297-5.053 11.5-5.053 21.607V247h-17.212v-81.006h13.476l2.417 10.62h.88c2.44-3.857 5.907-6.836 10.4-8.935 4.492-2.1 9.472-3.15 14.94-3.15 19.435 0 29.151 9.888 29.151 29.663V247zm92.359-81.006v9.448l-13.843 2.564c1.27 1.709 2.32 3.808 3.15 6.299.83 2.49 1.244 5.127 1.244 7.91 0 8.35-2.88 14.917-8.642 19.702-5.762 4.785-13.696 7.178-23.804 7.178-2.588 0-4.932-.196-7.031-.586-3.711 2.295-5.567 4.98-5.567 8.056 0 1.856.867 3.247 2.6 4.175 1.734.928 4.92 1.392 9.559 1.392h14.135c8.936 0 15.723 1.904 20.362 5.713 4.638 3.808 6.958 9.301 6.958 16.48 0 9.179-3.784 16.259-11.353 21.24-7.568 4.98-18.506 7.47-32.812 7.47-11.036 0-19.458-1.953-25.269-5.86-5.81-3.905-8.716-9.472-8.716-16.698 0-4.98 1.575-9.168 4.724-12.561 3.15-3.394 7.557-5.75 13.22-7.068-2.294-.977-4.186-2.552-5.676-4.724-1.489-2.173-2.234-4.456-2.234-6.849 0-3.027.855-5.59 2.564-7.69 1.709-2.1 4.248-4.175 7.617-6.226-4.2-1.806-7.605-4.748-10.217-8.825-2.612-4.077-3.919-8.85-3.919-14.32 0-8.788 2.771-15.6 8.313-20.434 5.542-4.834 13.44-7.25 23.694-7.25 2.295 0 4.7.158 7.215.475 2.514.318 4.406.647 5.676.99h28.052zm-63.648 93.604c0 3.71 1.673 6.567 5.017 8.569 3.345 2.002 8.045 3.003 14.1 3.003 9.374 0 16.357-1.343 20.947-4.028 4.59-2.686 6.884-6.25 6.884-10.694 0-3.515-1.257-6.018-3.772-7.507-2.514-1.49-7.19-2.234-14.025-2.234h-13.038c-4.931 0-8.85 1.16-11.755 3.479-2.905 2.32-4.358 5.457-4.358 9.412zm7.398-67.383c0 5.078 1.306 8.984 3.918 11.719 2.612 2.734 6.36 4.101 11.243 4.101 9.96 0 14.941-5.322 14.941-15.967 0-5.273-1.233-9.338-3.699-12.194-2.465-2.857-6.213-4.285-11.242-4.285-4.98 0-8.753 1.416-11.316 4.248-2.564 2.832-3.845 6.958-3.845 12.378z" fill="#FFF"/></g></svg>